<?xml version="1.0" encoding="UTF-8" standalone="no"?>
<!DOCTYPE svg PUBLIC "-//W3C//DTD SVG 1.1//EN" "http://www.w3.org/Graphics/SVG/1.1/DTD/svg11.dtd">
<svg xmlns="http://www.w3.org/2000/svg" version="1.1" viewBox="0.00 0.00 272.00 122.00">
<g stroke-width="2.00" fill="none" stroke-linecap="butt">
<path stroke="#80a0c1" vector-effect="non-scaling-stroke" d="
  M 103.40 85.30
  L 99.49 74.69"
/>
<path stroke="#e8f4ff" vector-effect="non-scaling-stroke" d="
  M 99.49 74.69
  L 97.82 61.77"
/>
<path stroke="#80a0c1" vector-effect="non-scaling-stroke" d="
  M 97.82 61.77
  L 98.55 55.27"
/>
<path stroke="#9bc7f4" vector-effect="non-scaling-stroke" d="
  M 98.55 55.27
  Q 100.40 45.03 106.01 36.38
  A 0.54 0.53 -49.2 0 0 105.97 35.74
  C 96.21 24.53 82.04 19.31 67.38 21.57
  Q 56.96 23.18 48.76 29.41
  C 25.85 46.82 26.52 82.01 50.85 98.02
  C 68.66 109.73 91.91 106.34 105.86 90.35
  A 0.75 0.73 -40.5 0 0 105.94 89.49
  L 103.40 85.30"
/>
<path stroke="#1c68b6" vector-effect="non-scaling-stroke" d="
  M 98.55 55.27
  Q 97.22 55.82 96.03 55.75
  Q 95.52 55.72 95.18 55.33
  Q 89.50 48.67 83.62 42.57
  C 81.10 39.96 79.18 36.41 77.45 33.18
  Q 76.13 30.72 74.46 29.46
  C 70.40 26.42 65.10 28.36 62.60 32.50
  C 59.63 37.42 61.82 45.51 64.56 49.91
  Q 64.91 50.49 64.24 50.50
  Q 59.08 50.57 53.44 50.45
  Q 49.85 50.37 47.31 51.44
  C 41.67 53.82 40.96 60.85 45.01 65.15
  Q 45.33 65.49 45.16 65.92
  Q 43.06 71.46 47.11 75.24
  Q 47.48 75.58 47.35 76.07
  Q 46.10 80.86 49.76 84.04
  Q 50.13 84.36 50.17 84.86
  Q 50.67 92.95 59.23 93.01
  Q 66.50 93.06 72.44 92.93
  Q 77.53 92.83 83.89 90.30
  Q 86.22 89.38 88.69 89.44
  Q 92.90 89.55 97.75 89.46
  Q 100.44 89.41 103.40 85.30"
/>
<path stroke="#6895c1" vector-effect="non-scaling-stroke" d="
  M 97.82 61.77
  C 95.34 61.95 93.07 61.96 91.32 59.97
  C 87.81 55.98 84.43 52.16 80.78 48.42
  Q 74.93 42.44 71.61 34.97
  A 1.78 1.78 0.0 0 0 68.88 34.29
  C 64.40 37.81 69.71 47.53 72.47 50.77
  C 73.86 52.40 74.24 54.83 72.25 56.19
  Q 71.81 56.49 71.28 56.49
  L 50.44 56.52
  A 1.98 1.97 9.9 0 0 48.58 57.82
  Q 48.34 58.50 48.40 59.18
  Q 48.60 61.41 50.84 61.51
  Q 52.15 61.57 53.48 61.97
  Q 54.04 62.13 54.33 62.63
  Q 55.58 64.78 54.16 66.72
  Q 53.82 67.19 53.26 67.33
  L 51.37 67.82
  Q 50.77 67.97 50.59 68.56
  Q 50.20 69.82 51.06 70.73
  Q 51.46 71.15 52.04 71.24
  C 55.86 71.80 55.02 74.94 53.33 77.09
  A 1.70 1.70 0.0 0 0 54.03 79.72
  L 55.23 80.21
  A 2.66 2.65 -64.9 0 1 56.57 83.93
  C 55.61 85.71 56.96 86.91 58.61 86.95
  Q 67.12 87.20 74.05 86.78
  C 76.93 86.61 79.92 85.33 82.69 84.34
  C 86.87 82.83 92.12 83.57 96.51 83.49
  Q 96.98 83.48 97.23 83.07
  Q 98.44 81.05 98.78 78.76
  Q 99.10 76.69 99.49 74.69"
/>
<path stroke="#faddae" vector-effect="non-scaling-stroke" d="
  M 143.68 21.31
  Q 140.68 21.06 137.01 22.02
  C 132.91 23.09 129.01 24.19 125.35 26.37
  Q 110.38 35.30 105.74 51.21
  C 99.82 71.55 109.67 92.42 128.63 101.19
  Q 137.87 105.46 148.12 104.91
  Q 165.39 104.00 177.75 90.54
  A 1.03 1.02 49.8 0 0 177.85 89.27
  C 167.31 73.29 167.49 52.84 177.88 36.65
  A 0.92 0.92 0.0 0 0 177.80 35.55
  Q 168.28 24.70 154.24 21.78
  Q 150.79 21.07 148.14 21.31"
/>
<path stroke="#ae9d80" vector-effect="non-scaling-stroke" d="
  M 148.14 21.31
  Q 145.93 20.75 143.68 21.31"
/>
<path stroke="#a97b2f" vector-effect="non-scaling-stroke" d="
  M 148.14 21.31
  Q 149.59 26.26 148.90 32.24
  Q 148.71 33.91 147.17 34.32
  Q 143.51 35.30 142.98 31.77
  Q 142.32 27.32 143.68 21.31"
/>
<path stroke="#efb8a6" vector-effect="non-scaling-stroke" d="
  M 259.98 63.00
  A 41.98 41.98 0.0 0 0 218.00 21.02
  A 41.98 41.98 0.0 0 0 176.02 63.00
  A 41.98 41.98 0.0 0 0 218.00 104.98
  A 41.98 41.98 0.0 0 0 259.98 63.00"
/>
<path stroke="#ab4c2d" vector-effect="non-scaling-stroke" d="
  M 217.47 41.95
  C 208.98 34.36 195.15 36.41 189.20 46.43
  Q 184.48 54.38 187.99 63.96
  Q 189.15 67.12 197.02 74.84
  Q 208.33 85.93 217.56 95.32
  A 0.58 0.57 -44.0 0 0 218.38 95.33
  Q 231.08 82.68 243.98 69.76
  C 253.32 60.40 251.05 46.04 239.74 39.47
  C 233.08 35.61 224.27 36.75 218.48 41.95
  A 0.76 0.75 44.7 0 1 217.47 41.95"
/>
<path stroke="#a97b2f" vector-effect="non-scaling-stroke" d="
  M 127.8072 28.8472
  A 2.81 2.81 0.0 0 0 123.8604 28.3836
  L 123.5622 28.6191
  A 2.81 2.81 0.0 0 0 123.0986 32.5659
  L 127.0528 37.5728
  A 2.81 2.81 0.0 0 0 130.9996 38.0364
  L 131.2978 37.8009
  A 2.81 2.81 0.0 0 0 131.7614 33.8541
  L 127.8072 28.8472"
/>
<path stroke="#a97b2f" vector-effect="non-scaling-stroke" d="
  M 169.0601 32.3909
  A 2.69 2.69 0.0 0 0 168.5504 28.6209
  L 168.0572 28.2452
  A 2.69 2.69 0.0 0 0 164.2873 28.7549
  L 160.2999 33.9891
  A 2.69 2.69 0.0 0 0 160.8096 37.7591
  L 161.3028 38.1348
  A 2.69 2.69 0.0 0 0 165.0727 37.6251
  L 169.0601 32.3909"
/>
<path stroke="#a97b2f" vector-effect="non-scaling-stroke" d="
  M 157.30 82.90
  C 157.24 80.97 157.91 77.53 159.47 76.19
  Q 169.57 67.59 168.10 55.31
  C 167.19 47.68 161.62 40.69 154.62 37.91
  C 144.70 33.96 134.00 37.09 127.80 45.87
  C 121.42 54.90 123.08 67.15 131.06 74.68
  C 135.80 79.14 135.15 83.91 134.96 89.85
  C 134.82 94.18 136.32 97.97 141.07 98.34
  Q 145.74 98.71 150.40 98.42
  Q 156.51 98.04 157.05 92.61
  Q 157.46 88.50 157.30 82.90"
/>
<path stroke="#ad9670" vector-effect="non-scaling-stroke" d="
  M 130.18 61.51
  Q 131.34 66.76 136.10 71.17
  Q 139.73 74.53 140.79 80.66
  Q 140.90 81.25 141.49 81.25
  L 150.78 81.25
  Q 151.41 81.25 151.46 80.62
  Q 151.98 74.95 155.76 71.42
  Q 159.11 68.29 159.73 67.23
  C 165.64 57.10 160.88 45.25 149.34 42.52"
/>
<path stroke="#ae9d80" vector-effect="non-scaling-stroke" d="
  M 149.34 42.52
  Q 142.55 41.27 137.26 44.80
  Q 128.60 50.59 130.18 61.51"
/>
<path stroke="#fef8ef" vector-effect="non-scaling-stroke" d="
  M 149.34 42.52
  Q 148.54 48.06 143.97 49.64
  Q 141.27 50.57 140.66 50.99
  C 137.30 53.29 137.82 57.59 134.78 59.75
  Q 132.84 61.13 130.18 61.51"
/>
<path stroke="#ad9670" vector-effect="non-scaling-stroke" d="
  M 151.23 87.71
  A 0.45 0.45 0.0 0 0 150.78 87.26
  L 141.46 87.26
  A 0.45 0.45 0.0 0 0 141.01 87.71
  L 141.01 92.03
  A 0.45 0.45 0.0 0 0 141.46 92.48
  L 150.78 92.48
  A 0.45 0.45 0.0 0 0 151.23 92.03
  L 151.23 87.71"
/>
<path stroke="#bb8e7e" vector-effect="non-scaling-stroke" d="
  M 217.42 50.57
  C 215.48 48.79 213.68 46.64 211.40 45.40
  Q 206.43 42.69 200.90 44.87
  C 192.27 48.28 190.15 58.94 196.75 65.57
  Q 207.12 75.97 217.66 86.47
  A 0.48 0.47 44.6 0 0 218.33 86.47
  Q 229.66 75.18 239.37 65.42
  C 248.81 55.93 240.08 40.06 226.79 44.25
  C 223.50 45.28 221.04 48.27 218.57 50.56
  Q 218.00 51.09 217.42 50.57"
/>
</g>
<g fill="#ffffff">
<path d="
  M 0.00 0.00
  L 272.00 0.00
  L 272.00 122.00
  L 0.00 122.00
  L 0.00 0.00
  Z
  M 103.40 85.30
  L 99.49 74.69
  L 97.82 61.77
  L 98.55 55.27
  Q 100.40 45.03 106.01 36.38
  A 0.54 0.53 -49.2 0 0 105.97 35.74
  C 96.21 24.53 82.04 19.31 67.38 21.57
  Q 56.96 23.18 48.76 29.41
  C 25.85 46.82 26.52 82.01 50.85 98.02
  C 68.66 109.73 91.91 106.34 105.86 90.35
  A 0.75 0.73 -40.5 0 0 105.94 89.49
  L 103.40 85.30
  Z
  M 143.68 21.31
  Q 140.68 21.06 137.01 22.02
  C 132.91 23.09 129.01 24.19 125.35 26.37
  Q 110.38 35.30 105.74 51.21
  C 99.82 71.55 109.67 92.42 128.63 101.19
  Q 137.87 105.46 148.12 104.91
  Q 165.39 104.00 177.75 90.54
  A 1.03 1.02 49.8 0 0 177.85 89.27
  C 167.31 73.29 167.49 52.84 177.88 36.65
  A 0.92 0.92 0.0 0 0 177.80 35.55
  Q 168.28 24.70 154.24 21.78
  Q 150.79 21.07 148.14 21.31
  Q 145.93 20.75 143.68 21.31
  Z
  M 259.98 63.00
  A 41.98 41.98 0.0 0 0 218.00 21.02
  A 41.98 41.98 0.0 0 0 176.02 63.00
  A 41.98 41.98 0.0 0 0 218.00 104.98
  A 41.98 41.98 0.0 0 0 259.98 63.00
  Z"
/>
<path d="
  M 149.34 42.52
  Q 148.54 48.06 143.97 49.64
  Q 141.27 50.57 140.66 50.99
  C 137.30 53.29 137.82 57.59 134.78 59.75
  Q 132.84 61.13 130.18 61.51
  Q 128.60 50.59 137.26 44.80
  Q 142.55 41.27 149.34 42.52
  Z"
/>
</g>
<path fill="#df704d" d="
  M 259.98 63.00
  A 41.98 41.98 0.0 0 1 218.00 104.98
  A 41.98 41.98 0.0 0 1 176.02 63.00
  A 41.98 41.98 0.0 0 1 218.00 21.02
  A 41.98 41.98 0.0 0 1 259.98 63.00
  Z
  M 217.47 41.95
  C 208.98 34.36 195.15 36.41 189.20 46.43
  Q 184.48 54.38 187.99 63.96
  Q 189.15 67.12 197.02 74.84
  Q 208.33 85.93 217.56 95.32
  A 0.58 0.57 -44.0 0 0 218.38 95.33
  Q 231.08 82.68 243.98 69.76
  C 253.32 60.40 251.05 46.04 239.74 39.47
  C 233.08 35.61 224.27 36.75 218.48 41.95
  A 0.76 0.75 44.7 0 1 217.47 41.95
  Z"
/>
<path fill="#378fe9" d="
  M 98.55 55.27
  Q 97.22 55.82 96.03 55.75
  Q 95.52 55.72 95.18 55.33
  Q 89.50 48.67 83.62 42.57
  C 81.10 39.96 79.18 36.41 77.45 33.18
  Q 76.13 30.72 74.46 29.46
  C 70.40 26.42 65.10 28.36 62.60 32.50
  C 59.63 37.42 61.82 45.51 64.56 49.91
  Q 64.91 50.49 64.24 50.50
  Q 59.08 50.57 53.44 50.45
  Q 49.85 50.37 47.31 51.44
  C 41.67 53.82 40.96 60.85 45.01 65.15
  Q 45.33 65.49 45.16 65.92
  Q 43.06 71.46 47.11 75.24
  Q 47.48 75.58 47.35 76.07
  Q 46.10 80.86 49.76 84.04
  Q 50.13 84.36 50.17 84.86
  Q 50.67 92.95 59.23 93.01
  Q 66.50 93.06 72.44 92.93
  Q 77.53 92.83 83.89 90.30
  Q 86.22 89.38 88.69 89.44
  Q 92.90 89.55 97.75 89.46
  Q 100.44 89.41 103.40 85.30
  L 105.94 89.49
  A 0.75 0.73 -40.5 0 1 105.86 90.35
  C 91.91 106.34 68.66 109.73 50.85 98.02
  C 26.52 82.01 25.85 46.82 48.76 29.41
  Q 56.96 23.18 67.38 21.57
  C 82.04 19.31 96.21 24.53 105.97 35.74
  A 0.54 0.53 -49.2 0 1 106.01 36.38
  Q 100.40 45.03 98.55 55.27
  Z"
/>
<g fill="#5d3b01">
<path d="
  M 148.14 21.31
  Q 149.59 26.26 148.90 32.24
  Q 148.71 33.91 147.17 34.32
  Q 143.51 35.30 142.98 31.77
  Q 142.32 27.32 143.68 21.31
  Q 145.93 20.75 148.14 21.31
  Z"
/>
<path d="
  M 131.7614 33.8541
  A 2.81 2.81 0.0 0 1 131.2978 37.8009
  L 130.9996 38.0364
  A 2.81 2.81 0.0 0 1 127.0528 37.5728
  L 123.0986 32.5659
  A 2.81 2.81 0.0 0 1 123.5622 28.6191
  L 123.8604 28.3836
  A 2.81 2.81 0.0 0 1 127.8072 28.8472
  L 131.7614 33.8541
  Z"
/>
<path d="
  M 165.0727 37.6251
  A 2.69 2.69 0.0 0 1 161.3028 38.1348
  L 160.8096 37.7591
  A 2.69 2.69 0.0 0 1 160.2999 33.9891
  L 164.2873 28.7549
  A 2.69 2.69 0.0 0 1 168.0572 28.2452
  L 168.5504 28.6209
  A 2.69 2.69 0.0 0 1 169.0601 32.3909
  L 165.0727 37.6251
  Z"
/>
<path d="
  M 159.47 76.19
  C 157.91 77.53 157.24 80.97 157.30 82.90
  Q 157.46 88.50 157.05 92.61
  Q 156.51 98.04 150.40 98.42
  Q 145.74 98.71 141.07 98.34
  C 136.32 97.97 134.82 94.18 134.96 89.85
  C 135.15 83.91 135.80 79.14 131.06 74.68
  C 123.08 67.15 121.42 54.90 127.80 45.87
  C 134.00 37.09 144.70 33.96 154.62 37.91
  C 161.62 40.69 167.19 47.68 168.10 55.31
  Q 169.57 67.59 159.47 76.19
  Z
  M 130.18 61.51
  Q 131.34 66.76 136.10 71.17
  Q 139.73 74.53 140.79 80.66
  Q 140.90 81.25 141.49 81.25
  L 150.78 81.25
  Q 151.41 81.25 151.46 80.62
  Q 151.98 74.95 155.76 71.42
  Q 159.11 68.29 159.73 67.23
  C 165.64 57.10 160.88 45.25 149.34 42.52
  Q 142.55 41.27 137.26 44.80
  Q 128.60 50.59 130.18 61.51
  Z
  M 151.23 87.71
  A 0.45 0.45 0.0 0 0 150.78 87.26
  L 141.46 87.26
  A 0.45 0.45 0.0 0 0 141.01 87.71
  L 141.01 92.03
  A 0.45 0.45 0.0 0 0 141.46 92.48
  L 150.78 92.48
  A 0.45 0.45 0.0 0 0 151.23 92.03
  L 151.23 87.71
  Z"
/>
</g>
<path fill="#f5bb5c" d="
  M 143.68 21.31
  Q 142.32 27.32 142.98 31.77
  Q 143.51 35.30 147.17 34.32
  Q 148.71 33.91 148.90 32.24
  Q 149.59 26.26 148.14 21.31
  Q 150.79 21.07 154.24 21.78
  Q 168.28 24.70 177.80 35.55
  A 0.92 0.92 0.0 0 1 177.88 36.65
  C 167.49 52.84 167.31 73.29 177.85 89.27
  A 1.03 1.02 49.8 0 1 177.75 90.54
  Q 165.39 104.00 148.12 104.91
  Q 137.87 105.46 128.63 101.19
  C 109.67 92.42 99.82 71.55 105.74 51.21
  Q 110.38 35.30 125.35 26.37
  C 129.01 24.19 132.91 23.09 137.01 22.02
  Q 140.68 21.06 143.68 21.31
  Z
  M 127.8072 28.8472
  A 2.81 2.81 0.0 0 0 123.8604 28.3836
  L 123.5622 28.6191
  A 2.81 2.81 0.0 0 0 123.0986 32.5659
  L 127.0528 37.5728
  A 2.81 2.81 0.0 0 0 130.9996 38.0364
  L 131.2978 37.8009
  A 2.81 2.81 0.0 0 0 131.7614 33.8541
  L 127.8072 28.8472
  Z
  M 169.0601 32.3909
  A 2.69 2.69 0.0 0 0 168.5504 28.6209
  L 168.0572 28.2452
  A 2.69 2.69 0.0 0 0 164.2873 28.7549
  L 160.2999 33.9891
  A 2.69 2.69 0.0 0 0 160.8096 37.7591
  L 161.3028 38.1348
  A 2.69 2.69 0.0 0 0 165.0727 37.6251
  L 169.0601 32.3909
  Z
  M 157.30 82.90
  C 157.24 80.97 157.91 77.53 159.47 76.19
  Q 169.57 67.59 168.10 55.31
  C 167.19 47.68 161.62 40.69 154.62 37.91
  C 144.70 33.96 134.00 37.09 127.80 45.87
  C 121.42 54.90 123.08 67.15 131.06 74.68
  C 135.80 79.14 135.15 83.91 134.96 89.85
  C 134.82 94.18 136.32 97.97 141.07 98.34
  Q 145.74 98.71 150.40 98.42
  Q 156.51 98.04 157.05 92.61
  Q 157.46 88.50 157.30 82.90
  Z"
/>
<path fill="#004182" d="
  M 98.55 55.27
  L 97.82 61.77
  C 95.34 61.95 93.07 61.96 91.32 59.97
  C 87.81 55.98 84.43 52.16 80.78 48.42
  Q 74.93 42.44 71.61 34.97
  A 1.78 1.78 0.0 0 0 68.88 34.29
  C 64.40 37.81 69.71 47.53 72.47 50.77
  C 73.86 52.40 74.24 54.83 72.25 56.19
  Q 71.81 56.49 71.28 56.49
  L 50.44 56.52
  A 1.98 1.97 9.9 0 0 48.58 57.82
  Q 48.34 58.50 48.40 59.18
  Q 48.60 61.41 50.84 61.51
  Q 52.15 61.57 53.48 61.97
  Q 54.04 62.13 54.33 62.63
  Q 55.58 64.78 54.16 66.72
  Q 53.82 67.19 53.26 67.33
  L 51.37 67.82
  Q 50.77 67.97 50.59 68.56
  Q 50.20 69.82 51.06 70.73
  Q 51.46 71.15 52.04 71.24
  C 55.86 71.80 55.02 74.94 53.33 77.09
  A 1.70 1.70 0.0 0 0 54.03 79.72
  L 55.23 80.21
  A 2.66 2.65 -64.9 0 1 56.57 83.93
  C 55.61 85.71 56.96 86.91 58.61 86.95
  Q 67.12 87.20 74.05 86.78
  C 76.93 86.61 79.92 85.33 82.69 84.34
  C 86.87 82.83 92.12 83.57 96.51 83.49
  Q 96.98 83.48 97.23 83.07
  Q 98.44 81.05 98.78 78.76
  Q 99.10 76.69 99.49 74.69
  L 103.40 85.30
  Q 100.44 89.41 97.75 89.46
  Q 92.90 89.55 88.69 89.44
  Q 86.22 89.38 83.89 90.30
  Q 77.53 92.83 72.44 92.93
  Q 66.50 93.06 59.23 93.01
  Q 50.67 92.95 50.17 84.86
  Q 50.13 84.36 49.76 84.04
  Q 46.10 80.86 47.35 76.07
  Q 47.48 75.58 47.11 75.24
  Q 43.06 71.46 45.16 65.92
  Q 45.33 65.49 45.01 65.15
  C 40.96 60.85 41.67 53.82 47.31 51.44
  Q 49.85 50.37 53.44 50.45
  Q 59.08 50.57 64.24 50.50
  Q 64.91 50.49 64.56 49.91
  C 61.82 45.51 59.63 37.42 62.60 32.50
  C 65.10 28.36 70.40 26.42 74.46 29.46
  Q 76.13 30.72 77.45 33.18
  C 79.18 36.41 81.10 39.96 83.62 42.57
  Q 89.50 48.67 95.18 55.33
  Q 95.52 55.72 96.03 55.75
  Q 97.22 55.82 98.55 55.27
  Z"
/>
<path fill="#77280c" d="
  M 218.48 41.95
  C 224.27 36.75 233.08 35.61 239.74 39.47
  C 251.05 46.04 253.32 60.40 243.98 69.76
  Q 231.08 82.68 218.38 95.33
  A 0.58 0.57 -44.0 0 1 217.56 95.32
  Q 208.33 85.93 197.02 74.84
  Q 189.15 67.12 187.99 63.96
  Q 184.48 54.38 189.20 46.43
  C 195.15 36.41 208.98 34.36 217.47 41.95
  A 0.76 0.75 44.7 0 0 218.48 41.95
  Z
  M 217.42 50.57
  C 215.48 48.79 213.68 46.64 211.40 45.40
  Q 206.43 42.69 200.90 44.87
  C 192.27 48.28 190.15 58.94 196.75 65.57
  Q 207.12 75.97 217.66 86.47
  A 0.48 0.47 44.6 0 0 218.33 86.47
  Q 229.66 75.18 239.37 65.42
  C 248.81 55.93 240.08 40.06 226.79 44.25
  C 223.50 45.28 221.04 48.27 218.57 50.56
  Q 218.00 51.09 217.42 50.57
  Z"
/>
<path fill="#d0e8ff" d="
  M 97.82 61.77
  L 99.49 74.69
  Q 99.10 76.69 98.78 78.76
  Q 98.44 81.05 97.23 83.07
  Q 96.98 83.48 96.51 83.49
  C 92.12 83.57 86.87 82.83 82.69 84.34
  C 79.92 85.33 76.93 86.61 74.05 86.78
  Q 67.12 87.20 58.61 86.95
  C 56.96 86.91 55.61 85.71 56.57 83.93
  A 2.66 2.65 -64.9 0 0 55.23 80.21
  L 54.03 79.72
  A 1.70 1.70 0.0 0 1 53.33 77.09
  C 55.02 74.94 55.86 71.80 52.04 71.24
  Q 51.46 71.15 51.06 70.73
  Q 50.20 69.82 50.59 68.56
  Q 50.77 67.97 51.37 67.82
  L 53.26 67.33
  Q 53.82 67.19 54.16 66.72
  Q 55.58 64.78 54.33 62.63
  Q 54.04 62.13 53.48 61.97
  Q 52.15 61.57 50.84 61.51
  Q 48.60 61.41 48.40 59.18
  Q 48.34 58.50 48.58 57.82
  A 1.98 1.97 9.9 0 1 50.44 56.52
  L 71.28 56.49
  Q 71.81 56.49 72.25 56.19
  C 74.24 54.83 73.86 52.40 72.47 50.77
  C 69.71 47.53 64.40 37.81 68.88 34.29
  A 1.78 1.78 0.0 0 1 71.61 34.97
  Q 74.93 42.44 80.78 48.42
  C 84.43 52.16 87.81 55.98 91.32 59.97
  C 93.07 61.96 95.34 61.95 97.82 61.77
  Z"
/>
<path fill="#fff3f0" d="
  M 218.57 50.56
  C 221.04 48.27 223.50 45.28 226.79 44.25
  C 240.08 40.06 248.81 55.93 239.37 65.42
  Q 229.66 75.18 218.33 86.47
  A 0.48 0.47 44.6 0 1 217.66 86.47
  Q 207.12 75.97 196.75 65.57
  C 190.15 58.94 192.27 48.28 200.90 44.87
  Q 206.43 42.69 211.40 45.40
  C 213.68 46.64 215.48 48.79 217.42 50.57
  Q 218.00 51.09 218.57 50.56
  Z"
/>
<g fill="#fcf0de">
<path d="
  M 149.34 42.52
  C 160.88 45.25 165.64 57.10 159.73 67.23
  Q 159.11 68.29 155.76 71.42
  Q 151.98 74.95 151.46 80.62
  Q 151.41 81.25 150.78 81.25
  L 141.49 81.25
  Q 140.90 81.25 140.79 80.66
  Q 139.73 74.53 136.10 71.17
  Q 131.34 66.76 130.18 61.51
  Q 132.84 61.13 134.78 59.75
  C 137.82 57.59 137.30 53.29 140.66 50.99
  Q 141.27 50.57 143.97 49.64
  Q 148.54 48.06 149.34 42.52
  Z"
/>
<path d="
  M 151.23 92.03
  A 0.45 0.45 0.0 0 1 150.78 92.48
  L 141.46 92.48
  A 0.45 0.45 0.0 0 1 141.01 92.03
  L 141.01 87.71
  A 0.45 0.45 0.0 0 1 141.46 87.26
  L 150.78 87.26
  A 0.45 0.45 0.0 0 1 151.23 87.71
  L 151.23 92.03
  Z"
/>
</g>
</svg>
