<?xml version="1.0" encoding="UTF-8" standalone="no"?>
<!DOCTYPE svg PUBLIC "-//W3C//DTD SVG 1.1//EN" "http://www.w3.org/Graphics/SVG/1.1/DTD/svg11.dtd">
<svg xmlns="http://www.w3.org/2000/svg" version="1.1" viewBox="0.00 0.00 1197.00 87.00">
<g stroke-width="2.00" fill="none" stroke-linecap="butt">
<path stroke="#ffbac7" vector-effect="non-scaling-stroke" d="
  M 970.88 22.81
  Q 961.75 30.21 958.60 38.55
  Q 951.98 56.01 964.37 70.83"
/>
<path stroke="#b1a09a" vector-effect="non-scaling-stroke" d="
  M 964.37 70.83
  Q 964.24 70.51 964.12 70.20"
/>
<path stroke="#86939f" vector-effect="non-scaling-stroke" d="
  M 964.12 70.20
  Q 971.28 78.88 980.75 80.74"
/>
<path stroke="#889fb4" vector-effect="non-scaling-stroke" d="
  M 980.75 80.74
  Q 988.08 82.65 995.53 80.55"
/>
<path stroke="#86939f" vector-effect="non-scaling-stroke" d="
  M 995.53 80.55
  Q 1004.05 78.51 1010.12 72.22"
/>
<path stroke="#b3b3b3" vector-effect="non-scaling-stroke" d="
  M 1010.12 72.22
  L 1012.39 69.40"
/>
<path stroke="#fed9dd" vector-effect="non-scaling-stroke" d="
  M 1012.39 69.40
  Q 1015.71 65.75 1017.40 60.73
  Q 1022.70 44.90 1013.06 31.53"
/>
<path stroke="#ffbac7" vector-effect="non-scaling-stroke" d="
  M 1013.06 31.53
  Q 1010.31 27.01 1005.92 24.88"
/>
<path stroke="#8c8c8c" vector-effect="non-scaling-stroke" d="
  M 1005.92 24.88
  Q 1004.05 22.63 1002.21 19.80
  C 998.82 14.57 992.84 10.80 986.50 11.69
  C 983.33 12.14 980.79 11.74 978.39 14.29
  Q 977.24 15.52 975.24 16.78
  Q 971.70 19.01 970.88 22.81"
/>
<path stroke="#8c4754" vector-effect="non-scaling-stroke" d="
  M 1005.92 24.88
  C 1006.00 26.98 1007.25 29.35 1005.31 31.64"
/>
<path stroke="#8b666a" vector-effect="non-scaling-stroke" d="
  M 1005.31 31.64
  Q 1002.77 34.69 1002.81 38.26"
/>
<path stroke="#3e2d27" vector-effect="non-scaling-stroke" d="
  M 1002.81 38.26
  Q 1002.69 38.83 1002.21 37.98"
/>
<path stroke="#866965" vector-effect="non-scaling-stroke" d="
  M 1002.21 37.98
  Q 1001.88 35.91 1002.38 33.47"
/>
<path stroke="#3e2d27" vector-effect="non-scaling-stroke" d="
  M 1002.38 33.47
  Q 1002.60 32.99 1002.50 32.56
  A 0.76 0.76 0.0 0 0 1001.87 31.97
  Q 998.73 31.47 995.88 32.62
  Q 995.34 32.84 994.78 32.92
  Q 993.94 33.04 993.01 33.12
  Q 991.78 33.22 991.71 32.08
  Q 991.68 31.56 991.28 31.23
  Q 988.95 29.26 985.73 29.79
  Q 984.34 30.01 984.53 31.41
  Q 984.58 31.74 984.80 31.99
  Q 985.25 32.50 984.63 32.79
  Q 982.79 33.63 980.89 32.62
  Q 980.40 32.36 979.84 32.36
  L 977.88 32.36
  Q 977.42 32.36 977.03 32.09
  Q 975.65 31.13 974.41 32.00
  A 0.96 0.96 0.0 0 0 974.01 32.90
  Q 974.32 35.51 973.57 38.08
  Q 973.49 38.36 973.20 38.35
  Q 972.71 38.32 972.68 37.83
  Q 972.57 36.27 972.01 35.43"
/>
<path stroke="#8c4754" vector-effect="non-scaling-stroke" d="
  M 972.01 35.43
  L 970.88 22.81"
/>
<path stroke="#b05b62" vector-effect="non-scaling-stroke" d="
  M 972.01 35.43
  Q 970.25 42.64 973.59 47.60
  Q 976.17 51.42 976.32 51.83
  C 977.52 55.09 976.68 58.62 975.84 62.06
  C 975.33 64.16 974.23 64.95 972.24 65.44
  A 2.27 2.17 -70.5 0 0 971.37 65.88
  Q 968.59 68.24 964.98 69.23
  Q 964.30 69.42 964.37 70.83"
/>
<path stroke="#fe93a5" vector-effect="non-scaling-stroke" d="
  M 1013.06 31.53
  Q 1013.23 32.57 1011.70 31.45
  Q 1011.36 31.20 1010.98 31.41
  L 1008.28 32.95
  Q 1008.11 33.05 1007.97 32.90
  Q 1007.86 32.78 1007.86 32.63
  Q 1007.86 32.30 1007.54 32.22
  L 1005.31 31.64"
/>
<path stroke="#aa7d73" vector-effect="non-scaling-stroke" d="
  M 1002.38 33.47
  Q 1002.40 32.59 1002.01 32.58
  Q 998.06 32.44 994.49 33.98
  Q 993.87 34.25 994.25 35.06"
/>
<path stroke="#3e2d27" vector-effect="non-scaling-stroke" d="
  M 994.25 35.06
  L 992.78 35.14
  Q 992.28 35.17 992.08 35.63
  Q 991.79 36.33 991.90 37.28"
/>
<path stroke="#aa7d73" vector-effect="non-scaling-stroke" d="
  M 991.90 37.28
  Q 991.38 36.49 991.50 35.33
  Q 991.56 34.83 991.27 34.42
  L 989.96 32.52
  A 0.74 0.74 0.0 0 0 988.64 32.73
  L 987.92 35.20"
/>
<path stroke="#8b6251" vector-effect="non-scaling-stroke" d="
  M 987.92 35.20
  Q 987.04 38.29 987.23 41.63
  Q 987.30 42.88 987.96 43.53
  A 0.43 0.41 -51.5 0 1 988.01 44.04
  Q 986.46 46.56 987.59 48.05"
/>
<path stroke="#3e2d27" vector-effect="non-scaling-stroke" d="
  M 987.59 48.05
  L 982.72 48.41
  Q 982.20 48.45 981.90 48.87
  Q 981.30 49.68 981.39 50.82
  A 0.93 0.93 0.0 0 0 982.95 51.44
  Q 985.31 49.28 988.25 49.74"
/>
<path stroke="#aa7d73" vector-effect="non-scaling-stroke" d="
  M 988.25 49.74
  Q 984.88 51.10 989.55 51.97"
/>
<path stroke="#3e2d27" vector-effect="non-scaling-stroke" d="
  M 989.55 51.97
  Q 987.96 51.98 987.65 52.53
  Q 987.36 53.04 987.91 53.24
  Q 988.88 53.59 990.06 53.59"
/>
<path stroke="#aa7d73" vector-effect="non-scaling-stroke" d="
  M 990.06 53.59
  L 987.44 53.96
  A 1.36 1.36 0.0 0 0 986.73 56.34
  Q 988.43 57.81 990.62 58.65"
/>
<path stroke="#8b6251" vector-effect="non-scaling-stroke" d="
  M 990.62 58.65
  Q 985.37 61.24 986.15 66.68
  Q 986.23 67.24 985.86 67.68
  L 983.81 70.05
  Q 983.48 70.44 983.42 70.94
  L 983.21 73.00
  Q 983.15 73.62 982.52 73.67
  Q 980.52 73.82 979.64 72.11
  Q 979.21 71.29 978.37 71.76
  A 0.78 0.77 -19.8 0 0 977.99 72.56
  Q 978.15 73.47 979.36 74.29"
/>
<path stroke="#37343a" vector-effect="non-scaling-stroke" d="
  M 979.36 74.29
  Q 978.02 73.77 977.25 72.25
  C 976.64 71.04 977.14 70.15 976.42 68.99
  Q 976.14 68.53 976.10 67.99
  Q 976.01 66.66 975.08 65.93
  A 1.98 1.97 23.3 0 0 971.91 67.19
  L 971.81 67.83
  Q 971.73 68.38 971.24 68.66
  Q 968.68 70.07 964.12 70.20"
/>
<path stroke="#b28c91" vector-effect="non-scaling-stroke" d="
  M 1012.39 69.40
  L 1008.43 67.48"
/>
<path stroke="#fe93a5" vector-effect="non-scaling-stroke" d="
  M 1008.43 67.48
  L 1003.53 65.39"
/>
<path stroke="#f8b5b6" vector-effect="non-scaling-stroke" d="
  M 1003.53 65.39
  Q 1002.98 64.54 1001.94 64.35
  Q 1001.44 64.25 1001.13 63.85
  L 999.38 61.61
  Q 999.07 61.21 999.00 60.71
  Q 998.82 59.30 998.82 57.75
  Q 998.82 57.05 999.28 56.64
  Q 999.64 56.32 999.72 55.86
  Q 1000.22 53.00 1000.77 50.01
  Q 1000.98 48.87 1002.00 46.71
  Q 1002.77 45.09 1002.93 43.23"
/>
<path stroke="#d89a94" vector-effect="non-scaling-stroke" d="
  M 1002.93 43.23
  L 1003.30 41.73"
/>
<path stroke="#f8b5b6" vector-effect="non-scaling-stroke" d="
  M 1003.30 41.73
  Q 1003.95 41.77 1003.41 39.51"
/>
<path stroke="#b07a78" vector-effect="non-scaling-stroke" d="
  M 1003.41 39.51
  Q 1002.96 39.05 1002.81 38.26"
/>
<path stroke="#866965" vector-effect="non-scaling-stroke" d="
  M 991.90 37.28
  C 993.09 39.13 994.87 37.66 996.31 36.72"
/>
<path stroke="#d39d8f" vector-effect="non-scaling-stroke" d="
  M 996.31 36.72
  Q 997.37 37.19 998.51 36.75
  Q 998.69 36.68 998.64 36.49
  L 998.54 36.10
  Q 998.45 35.74 998.11 35.88
  Q 997.08 36.27 996.12 35.99"
/>
<path stroke="#866965" vector-effect="non-scaling-stroke" d="
  M 996.12 35.99
  L 994.25 35.06"
/>
<path stroke="#aa7d73" vector-effect="non-scaling-stroke" d="
  M 1002.21 37.98
  Q 1002.69 40.68 1003.41 39.51"
/>
<path stroke="#d39d8f" vector-effect="non-scaling-stroke" d="
  M 1003.30 41.73
  Q 1001.87 41.68 1002.04 44.18
  Q 1002.07 44.75 1002.42 44.29
  Q 1002.75 43.85 1002.93 43.23"
/>
<path stroke="#f8969f" vector-effect="non-scaling-stroke" d="
  M 1003.53 65.39
  Q 1002.64 65.28 1002.02 65.50"
/>
<path stroke="#827c8c" vector-effect="non-scaling-stroke" d="
  M 1002.02 65.50
  Q 1001.22 64.73 1000.65 64.77
  Q 1000.18 64.80 999.93 65.70
  Q 998.92 69.40 996.14 71.48"
/>
<path stroke="#d39d8f" vector-effect="non-scaling-stroke" d="
  M 996.14 71.48
  Q 994.15 72.19 992.94 73.11
  Q 990.37 75.08 990.75 71.87
  Q 990.82 71.29 990.86 70.73
  Q 990.90 70.25 990.61 69.85
  Q 989.18 67.97 988.28 65.63
  C 987.86 64.52 988.36 63.82 988.32 62.75
  C 988.26 61.25 989.26 60.16 990.47 59.46
  Q 990.77 59.29 990.80 58.96
  Q 990.90 58.01 990.62 58.65"
/>
<path stroke="#866965" vector-effect="non-scaling-stroke" d="
  M 990.06 53.59
  Q 991.75 53.18 989.55 51.97"
/>
<path stroke="#866965" vector-effect="non-scaling-stroke" d="
  M 988.25 49.74
  L 993.99 50.33
  Q 994.31 50.36 994.40 50.05
  L 994.50 49.74
  Q 994.55 49.56 994.36 49.52
  L 988.59 48.45"
/>
<path stroke="#d39d8f" vector-effect="non-scaling-stroke" d="
  M 988.59 48.45
  Q 988.27 47.30 989.44 46.74
  Q 990.02 46.46 989.52 46.05
  Q 988.44 45.15 988.83 43.68
  Q 988.95 43.23 988.77 42.81
  Q 988.68 42.61 988.56 42.43
  Q 988.28 42.04 988.26 41.55
  L 987.92 35.20"
/>
<path stroke="#62616b" vector-effect="non-scaling-stroke" d="
  M 996.14 71.48
  Q 993.91 73.95 991.50 74.71
  Q 986.83 76.18 981.46 75.53"
/>
<path stroke="#605456" vector-effect="non-scaling-stroke" d="
  M 981.46 75.53
  L 979.36 74.29"
/>
<path stroke="#664e43" vector-effect="non-scaling-stroke" d="
  M 996.12 35.99
  Q 996.39 36.55 996.31 36.72"
/>
<path stroke="#664e43" vector-effect="non-scaling-stroke" d="
  M 988.59 48.45
  Q 987.97 48.42 987.59 48.05"
/>
<path stroke="#394652" vector-effect="non-scaling-stroke" d="
  M 1010.12 72.22
  Q 1009.04 70.55 1006.74 70.05"
/>
<path stroke="#b26d7a" vector-effect="non-scaling-stroke" d="
  M 1008.43 67.48
  Q 1008.69 68.99 1006.74 70.05"
/>
<path stroke="#854d66" vector-effect="non-scaling-stroke" d="
  M 1006.74 70.05
  L 1003.37 69.21"
/>
<path stroke="#885a7b" vector-effect="non-scaling-stroke" d="
  M 1002.02 65.50
  Q 1001.92 67.90 1003.37 69.21"
/>
<path stroke="#0f3353" vector-effect="non-scaling-stroke" d="
  M 1003.37 69.21
  Q 1003.09 71.85 1000.46 72.90
  A 1.25 1.25 0.0 0 0 999.69 73.85
  Q 999.51 74.91 998.53 74.90
  A 2.58 2.10 -1.6 0 0 995.89 77.17
  Q 996.03 78.72 995.53 80.55"
/>
<path stroke="#0f3353" vector-effect="non-scaling-stroke" d="
  M 980.75 80.74
  Q 983.35 80.72 984.76 79.95
  Q 985.18 79.72 985.18 79.24
  Q 985.18 78.90 984.86 78.74
  Q 984.50 78.56 984.75 78.25
  Q 985.22 77.66 985.02 76.97
  Q 984.88 76.49 984.40 76.35
  L 981.46 75.53"
/>
<path stroke="#8c8c8c" vector-effect="non-scaling-stroke" d="
  M 222.34 26.12
  L 208.27 17.16
  A 0.51 0.51 0.0 0 0 207.73 17.16
  L 175.78 37.49
  Q 175.01 37.98 175.00 38.90
  L 175.00 43.25
  Q 175.00 44.00 175.75 44.00
  L 180.47 44.00
  Q 180.98 44.00 180.99 44.51
  Q 181.06 53.33 180.95 63.10
  C 180.85 71.36 185.34 74.35 193.32 74.05
  Q 197.53 73.89 201.22 74.01
  A 0.75 0.75 0.0 0 0 201.99 73.26
  L 202.01 56.50
  Q 202.01 56.00 202.50 56.00
  L 213.49 56.00
  A 0.50 0.49 -0.0 0 1 213.99 56.49
  L 214.01 73.28
  A 0.77 0.76 88.9 0 0 214.80 74.05
  Q 219.62 73.88 223.69 74.05
  C 230.11 74.33 234.99 71.25 235.00 64.40
  Q 235.01 54.11 234.99 44.55
  Q 234.99 44.00 235.53 44.00
  L 240.38 44.00
  A 0.63 0.63 0.0 0 0 241.01 43.36
  L 241.00 38.80
  Q 240.99 37.97 240.29 37.53
  L 232.51 32.61
  A 1.09 1.08 16.4 0 1 232.01 31.70
  L 231.99 17.75
  A 0.75 0.74 -90.0 0 0 231.25 17.00
  L 223.75 17.00
  Q 223.00 17.00 223.00 17.75
  L 223.00 25.76
  Q 223.00 26.54 222.34 26.12"
/>
<path stroke="#b3b3b3" vector-effect="non-scaling-stroke" d="
  M 363.96 30.50
  A 13.46 13.46 0.0 0 0 350.50 17.04
  A 13.46 13.46 0.0 0 0 337.04 30.50
  A 13.46 13.46 0.0 0 0 350.50 43.96
  A 13.46 13.46 0.0 0 0 363.96 30.50"
/>
<path stroke="#b3b3b3" vector-effect="non-scaling-stroke" d="
  M 504.27 29.00
  L 490.76 29.00
  Q 489.94 29.00 489.97 29.82
  C 490.27 38.06 487.47 50.06 500.22 50.02
  Q 520.15 49.97 539.13 50.03
  C 545.21 50.05 549.71 47.46 549.97 40.84
  Q 550.19 35.24 549.95 29.70
  A 0.73 0.72 88.8 0 0 549.23 29.00
  L 535.71 29.00
  Q 534.88 29.00 534.96 28.17
  C 535.55 22.15 532.21 17.15 525.72 17.06
  Q 521.52 17.01 516.66 16.92
  Q 512.23 16.83 509.72 18.15
  C 506.18 20.01 504.55 24.05 505.02 28.15
  Q 505.12 29.00 504.27 29.00"
/>
<path stroke="#b3b3b3" vector-effect="non-scaling-stroke" d="
  M 850.62 33.40
  C 848.03 16.49 827.48 11.36 817.03 24.54
  Q 814.41 27.85 813.69 31.95
  Q 812.27 39.97 811.11 49.35
  Q 811.03 50.00 811.69 50.00
  L 852.50 50.00
  A 0.39 0.39 0.0 0 0 852.89 49.56
  Q 851.80 41.07 850.62 33.40"
/>
<path stroke="#b3b3b3" vector-effect="non-scaling-stroke" d="
  M 58.64 50.47
  C 66.11 35.84 54.84 19.27 38.80 20.05
  C 31.50 20.40 24.57 24.88 21.35 31.40
  C 12.39 49.53 30.98 68.84 49.43 59.66
  Q 50.01 59.37 50.46 59.82
  Q 58.16 67.51 65.51 74.91
  C 71.06 80.49 79.56 72.10 73.53 66.12
  Q 65.53 58.19 58.79 51.41
  Q 58.37 50.99 58.64 50.47"
/>
<path stroke="#b3b3b3" vector-effect="non-scaling-stroke" d="
  M 1131.9719 20.8091
  A 0.82 0.82 0.0 0 0 1131.1491 19.9920
  L 1120.8091 20.0281
  A 0.82 0.82 0.0 0 0 1119.9920 20.8509
  L 1120.0281 31.1909
  A 0.82 0.82 0.0 0 0 1120.8509 32.0080
  L 1131.1909 31.9719
  A 0.82 0.82 0.0 0 0 1132.0080 31.1491
  L 1131.9719 20.8091"
/>
<path stroke="#b3b3b3" vector-effect="non-scaling-stroke" d="
  M 1152.9818 20.7891
  A 0.79 0.79 0.0 0 0 1152.1891 20.0019
  L 1141.7691 20.0382
  A 0.79 0.79 0.0 0 0 1140.9819 20.8310
  L 1141.0182 31.2309
  A 0.79 0.79 0.0 0 0 1141.8109 32.0181
  L 1152.2309 31.9818
  A 0.79 0.79 0.0 0 0 1153.0181 31.1890
  L 1152.9818 20.7891"
/>
<path stroke="#b3b3b3" vector-effect="non-scaling-stroke" d="
  M 1173.9717 20.7691
  A 0.76 0.76 0.0 0 0 1173.2091 20.0118
  L 1162.7492 20.0483
  A 0.76 0.76 0.0 0 0 1161.9918 20.8109
  L 1162.0283 31.2509
  A 0.76 0.76 0.0 0 0 1162.7909 32.0082
  L 1173.2508 31.9717
  A 0.76 0.76 0.0 0 0 1174.0082 31.2091
  L 1173.9717 20.7691"
/>
<path stroke="#b3b3b3" vector-effect="non-scaling-stroke" d="
  M 676.00 65.68
  L 676.01 76.43
  A 0.32 0.32 0.0 0 0 676.51 76.70
  Q 687.39 69.39 698.14 62.43
  Q 702.80 59.41 705.01 56.35
  C 710.59 48.62 710.28 38.38 704.42 30.95
  C 699.98 25.33 693.60 22.81 686.44 22.96
  Q 676.28 23.16 666.26 22.94
  C 656.86 22.73 649.05 26.56 644.94 35.23
  C 638.25 49.32 648.91 64.61 663.79 64.98
  Q 669.48 65.12 675.23 64.94
  Q 676.00 64.92 676.00 65.68"
/>
<path stroke="#b3b3b3" vector-effect="non-scaling-stroke" d="
  M 390.98 39.50
  A 10.48 10.48 0.0 0 0 380.50 29.02
  A 10.48 10.48 0.0 0 0 370.02 39.50
  A 10.48 10.48 0.0 0 0 380.50 49.98
  A 10.48 10.48 0.0 0 0 390.98 39.50"
/>
<path stroke="#b3b3b3" vector-effect="non-scaling-stroke" d="
  M 1131.9909 41.7595
  A 0.77 0.77 0.0 0 0 1131.2195 40.9909
  L 1120.7595 41.0091
  A 0.77 0.77 0.0 0 0 1119.9909 41.7805
  L 1120.0091 52.2405
  A 0.77 0.77 0.0 0 0 1120.7805 53.0091
  L 1131.2405 52.9909
  A 0.77 0.77 0.0 0 0 1132.0091 52.2195
  L 1131.9909 41.7595"
/>
<path stroke="#b3b3b3" vector-effect="non-scaling-stroke" d="
  M 1152.9816 41.7291
  A 0.75 0.75 0.0 0 0 1152.2290 40.9817
  L 1141.7291 41.0184
  A 0.75 0.75 0.0 0 0 1140.9817 41.7710
  L 1141.0184 52.2709
  A 0.75 0.75 0.0 0 0 1141.7710 53.0183
  L 1152.2709 52.9816
  A 0.75 0.75 0.0 0 0 1153.0183 52.2290
  L 1152.9816 41.7291"
/>
<path stroke="#b3b3b3" vector-effect="non-scaling-stroke" d="
  M 1173.9815 41.6891
  A 0.71 0.71 0.0 0 0 1173.2690 40.9816
  L 1162.6891 41.0185
  A 0.71 0.71 0.0 0 0 1161.9816 41.7310
  L 1162.0185 52.3109
  A 0.71 0.71 0.0 0 0 1162.7310 53.0184
  L 1173.3109 52.9815
  A 0.71 0.71 0.0 0 0 1174.0184 52.2690
  L 1173.9815 41.6891"
/>
<path stroke="#b3b3b3" vector-effect="non-scaling-stroke" d="
  M 490.02 61.60
  C 490.07 66.58 493.61 71.01 498.86 71.00
  Q 519.45 70.95 539.26 71.06
  C 545.49 71.09 549.93 68.09 549.99 61.36
  Q 550.04 55.86 549.96 49.76
  A 0.33 0.33 0.0 0 0 549.41 49.52
  Q 545.58 52.97 540.24 52.98
  Q 520.72 53.01 500.16 53.00
  C 496.57 53.00 493.19 52.09 490.63 49.47
  A 0.35 0.34 -67.0 0 0 490.04 49.71
  Q 489.96 55.42 490.02 61.60"
/>
<path stroke="#b3b3b3" vector-effect="non-scaling-stroke" d="
  M 337.75 77.02
  L 363.29 76.98
  A 0.75 0.75 0.0 0 0 364.04 76.23
  L 364.01 59.27
  A 9.31 9.16 89.9 0 0 354.84 49.97
  L 346.12 49.99
  A 9.31 9.16 89.9 0 0 336.97 59.31
  L 337.00 76.27
  A 0.75 0.75 0.0 0 0 337.75 77.02"
/>
<path stroke="#b3b3b3" vector-effect="non-scaling-stroke" d="
  M 826.56 68.76
  Q 824.85 73.07 828.65 75.98
  C 833.25 79.51 840.39 73.72 837.33 68.69
  A 0.48 0.48 0.0 0 1 837.74 67.97
  L 861.29 67.97
  Q 861.89 67.97 861.95 67.37
  C 862.46 61.56 859.92 57.14 855.75 53.38
  Q 855.33 53.00 854.76 53.00
  L 809.26 53.00
  Q 808.59 53.00 808.12 53.49
  C 804.13 57.66 801.54 61.46 802.05 67.58
  A 0.46 0.45 -2.7 0 0 802.51 67.99
  L 826.04 67.99
  Q 826.86 67.99 826.56 68.76"
/>
<path stroke="#b3b3b3" vector-effect="non-scaling-stroke" d="
  M 370.68 76.99
  L 390.32 76.99
  A 0.69 0.69 0.0 0 0 391.01 76.30
  L 391.01 63.64
  A 7.65 7.63 -90.0 0 0 383.38 55.99
  L 377.62 55.99
  A 7.65 7.63 90.0 0 0 369.99 63.64
  L 369.99 76.30
  A 0.69 0.69 0.0 0 0 370.68 76.99"
/>
<path stroke="#b3b3b3" vector-effect="non-scaling-stroke" d="
  M 1131.9908 62.7395
  A 0.75 0.75 0.0 0 0 1131.2395 61.9908
  L 1120.7396 62.0092
  A 0.75 0.75 0.0 0 0 1119.9909 62.7605
  L 1120.0092 73.2405
  A 0.75 0.75 0.0 0 0 1120.7605 73.9892
  L 1131.2604 73.9708
  A 0.75 0.75 0.0 0 0 1132.0091 73.2195
  L 1131.9908 62.7395"
/>
<path stroke="#b3b3b3" vector-effect="non-scaling-stroke" d="
  M 1152.9815 62.6991
  A 0.71 0.71 0.0 0 0 1152.2691 61.9916
  L 1141.6891 62.0285
  A 0.71 0.71 0.0 0 0 1140.9816 62.7410
  L 1141.0185 73.3009
  A 0.71 0.71 0.0 0 0 1141.7309 74.0084
  L 1152.3109 73.9715
  A 0.71 0.71 0.0 0 0 1153.0184 73.2590
  L 1152.9815 62.6991"
/>
<path stroke="#b3b3b3" vector-effect="non-scaling-stroke" d="
  M 1173.9908 62.7195
  A 0.73 0.73 0.0 0 0 1173.2595 61.9908
  L 1162.7195 62.0092
  A 0.73 0.73 0.0 0 0 1161.9908 62.7405
  L 1162.0092 73.2805
  A 0.73 0.73 0.0 0 0 1162.7405 74.0092
  L 1173.2805 73.9908
  A 0.73 0.73 0.0 0 0 1174.0092 73.2595
  L 1173.9908 62.7195"
/>
<path stroke="#404040" vector-effect="non-scaling-stroke" d="
  M 1003.66 23.58
  L 1000.49 20.87
  Q 999.21 19.77 999.03 21.45
  Q 998.81 23.59 997.16 25.04
  Q 996.15 25.93 997.04 26.95
  Q 997.32 27.28 997.34 27.71
  Q 997.39 28.72 996.61 29.37
  Q 996.26 29.66 996.67 29.84
  Q 997.97 30.38 999.14 30.32
  Q 999.54 30.30 999.82 30.00
  Q 1000.25 29.53 1000.27 28.91
  Q 1000.30 28.21 1001.00 28.23
  L 1002.42 28.26
  A 1.06 1.00 -55.6 0 0 1002.92 28.15
  Q 1004.17 27.51 1004.49 26.11
  Q 1004.84 24.59 1003.66 23.58"
/>
<path stroke="#b3b3b3" vector-effect="non-scaling-stroke" d="
  M 511.42 28.99
  L 528.54 29.01
  A 0.47 0.47 0.0 0 0 529.02 28.55
  L 529.02 26.23
  A 3.36 3.23 0.1 0 0 525.67 22.99
  L 514.33 22.97
  A 3.36 3.23 0.1 0 0 510.96 26.19
  L 510.96 28.51
  A 0.47 0.47 0.0 0 0 511.42 28.99"
/>
<path stroke="#b3b3b3" vector-effect="non-scaling-stroke" d="
  M 54.95 41.00
  A 14.96 14.96 0.0 0 0 39.99 26.04
  A 14.96 14.96 0.0 0 0 25.03 41.00
  A 14.96 14.96 0.0 0 0 39.99 55.96
  A 14.96 14.96 0.0 0 0 54.95 41.00"
/>
<path stroke="#b3b3b3" vector-effect="non-scaling-stroke" d="
  M 667.68 44.00
  A 3.69 3.69 0.0 0 0 663.99 40.31
  A 3.69 3.69 0.0 0 0 660.30 44.00
  A 3.69 3.69 0.0 0 0 663.99 47.69
  A 3.69 3.69 0.0 0 0 667.68 44.00"
/>
<path stroke="#b3b3b3" vector-effect="non-scaling-stroke" d="
  M 679.68 44.00
  A 3.69 3.69 0.0 0 0 675.99 40.31
  A 3.69 3.69 0.0 0 0 672.30 44.00
  A 3.69 3.69 0.0 0 0 675.99 47.69
  A 3.69 3.69 0.0 0 0 679.68 44.00"
/>
<path stroke="#b3b3b3" vector-effect="non-scaling-stroke" d="
  M 691.68 44.00
  A 3.69 3.69 0.0 0 0 687.99 40.31
  A 3.69 3.69 0.0 0 0 684.30 44.00
  A 3.69 3.69 0.0 0 0 687.99 47.69
  A 3.69 3.69 0.0 0 0 691.68 44.00"
/>
<path stroke="#866965" vector-effect="non-scaling-stroke" d="
  M 990.06 43.74
  Q 990.80 44.24 991.58 44.09
  Q 992.36 43.95 991.77 43.43
  Q 990.92 42.66 990.07 43.17
  A 0.34 0.33 46.4 0 0 990.06 43.74"
/>
</g>
<g fill="#ffffff">
<path d="
  M 0.00 0.00
  L 1197.00 0.00
  L 1197.00 87.00
  L 0.00 87.00
  L 0.00 0.00
  Z
  M 970.88 22.81
  Q 961.75 30.21 958.60 38.55
  Q 951.98 56.01 964.37 70.83
  Q 964.24 70.51 964.12 70.20
  Q 971.28 78.88 980.75 80.74
  Q 988.08 82.65 995.53 80.55
  Q 1004.05 78.51 1010.12 72.22
  L 1012.39 69.40
  Q 1015.71 65.75 1017.40 60.73
  Q 1022.70 44.90 1013.06 31.53
  Q 1010.31 27.01 1005.92 24.88
  Q 1004.05 22.63 1002.21 19.80
  C 998.82 14.57 992.84 10.80 986.50 11.69
  C 983.33 12.14 980.79 11.74 978.39 14.29
  Q 977.24 15.52 975.24 16.78
  Q 971.70 19.01 970.88 22.81
  Z
  M 222.34 26.12
  L 208.27 17.16
  A 0.51 0.51 0.0 0 0 207.73 17.16
  L 175.78 37.49
  Q 175.01 37.98 175.00 38.90
  L 175.00 43.25
  Q 175.00 44.00 175.75 44.00
  L 180.47 44.00
  Q 180.98 44.00 180.99 44.51
  Q 181.06 53.33 180.95 63.10
  C 180.85 71.36 185.34 74.35 193.32 74.05
  Q 197.53 73.89 201.22 74.01
  A 0.75 0.75 0.0 0 0 201.99 73.26
  L 202.01 56.50
  Q 202.01 56.00 202.50 56.00
  L 213.49 56.00
  A 0.50 0.49 -0.0 0 1 213.99 56.49
  L 214.01 73.28
  A 0.77 0.76 88.9 0 0 214.80 74.05
  Q 219.62 73.88 223.69 74.05
  C 230.11 74.33 234.99 71.25 235.00 64.40
  Q 235.01 54.11 234.99 44.55
  Q 234.99 44.00 235.53 44.00
  L 240.38 44.00
  A 0.63 0.63 0.0 0 0 241.01 43.36
  L 241.00 38.80
  Q 240.99 37.97 240.29 37.53
  L 232.51 32.61
  A 1.09 1.08 16.4 0 1 232.01 31.70
  L 231.99 17.75
  A 0.75 0.74 -90.0 0 0 231.25 17.00
  L 223.75 17.00
  Q 223.00 17.00 223.00 17.75
  L 223.00 25.76
  Q 223.00 26.54 222.34 26.12
  Z
  M 363.96 30.50
  A 13.46 13.46 0.0 0 0 350.50 17.04
  A 13.46 13.46 0.0 0 0 337.04 30.50
  A 13.46 13.46 0.0 0 0 350.50 43.96
  A 13.46 13.46 0.0 0 0 363.96 30.50
  Z
  M 504.27 29.00
  L 490.76 29.00
  Q 489.94 29.00 489.97 29.82
  C 490.27 38.06 487.47 50.06 500.22 50.02
  Q 520.15 49.97 539.13 50.03
  C 545.21 50.05 549.71 47.46 549.97 40.84
  Q 550.19 35.24 549.95 29.70
  A 0.73 0.72 88.8 0 0 549.23 29.00
  L 535.71 29.00
  Q 534.88 29.00 534.96 28.17
  C 535.55 22.15 532.21 17.15 525.72 17.06
  Q 521.52 17.01 516.66 16.92
  Q 512.23 16.83 509.72 18.15
  C 506.18 20.01 504.55 24.05 505.02 28.15
  Q 505.12 29.00 504.27 29.00
  Z
  M 850.62 33.40
  C 848.03 16.49 827.48 11.36 817.03 24.54
  Q 814.41 27.85 813.69 31.95
  Q 812.27 39.97 811.11 49.35
  Q 811.03 50.00 811.69 50.00
  L 852.50 50.00
  A 0.39 0.39 0.0 0 0 852.89 49.56
  Q 851.80 41.07 850.62 33.40
  Z
  M 58.64 50.47
  C 66.11 35.84 54.84 19.27 38.80 20.05
  C 31.50 20.40 24.57 24.88 21.35 31.40
  C 12.39 49.53 30.98 68.84 49.43 59.66
  Q 50.01 59.37 50.46 59.82
  Q 58.16 67.51 65.51 74.91
  C 71.06 80.49 79.56 72.10 73.53 66.12
  Q 65.53 58.19 58.79 51.41
  Q 58.37 50.99 58.64 50.47
  Z
  M 1131.9719 20.8091
  A 0.82 0.82 0.0 0 0 1131.1491 19.9920
  L 1120.8091 20.0281
  A 0.82 0.82 0.0 0 0 1119.9920 20.8509
  L 1120.0281 31.1909
  A 0.82 0.82 0.0 0 0 1120.8509 32.0080
  L 1131.1909 31.9719
  A 0.82 0.82 0.0 0 0 1132.0080 31.1491
  L 1131.9719 20.8091
  Z
  M 1152.9818 20.7891
  A 0.79 0.79 0.0 0 0 1152.1891 20.0019
  L 1141.7691 20.0382
  A 0.79 0.79 0.0 0 0 1140.9819 20.8310
  L 1141.0182 31.2309
  A 0.79 0.79 0.0 0 0 1141.8109 32.0181
  L 1152.2309 31.9818
  A 0.79 0.79 0.0 0 0 1153.0181 31.1890
  L 1152.9818 20.7891
  Z
  M 1173.9717 20.7691
  A 0.76 0.76 0.0 0 0 1173.2091 20.0118
  L 1162.7492 20.0483
  A 0.76 0.76 0.0 0 0 1161.9918 20.8109
  L 1162.0283 31.2509
  A 0.76 0.76 0.0 0 0 1162.7909 32.0082
  L 1173.2508 31.9717
  A 0.76 0.76 0.0 0 0 1174.0082 31.2091
  L 1173.9717 20.7691
  Z
  M 676.00 65.68
  L 676.01 76.43
  A 0.32 0.32 0.0 0 0 676.51 76.70
  Q 687.39 69.39 698.14 62.43
  Q 702.80 59.41 705.01 56.35
  C 710.59 48.62 710.28 38.38 704.42 30.95
  C 699.98 25.33 693.60 22.81 686.44 22.96
  Q 676.28 23.16 666.26 22.94
  C 656.86 22.73 649.05 26.56 644.94 35.23
  C 638.25 49.32 648.91 64.61 663.79 64.98
  Q 669.48 65.12 675.23 64.94
  Q 676.00 64.92 676.00 65.68
  Z
  M 390.98 39.50
  A 10.48 10.48 0.0 0 0 380.50 29.02
  A 10.48 10.48 0.0 0 0 370.02 39.50
  A 10.48 10.48 0.0 0 0 380.50 49.98
  A 10.48 10.48 0.0 0 0 390.98 39.50
  Z
  M 1131.9909 41.7595
  A 0.77 0.77 0.0 0 0 1131.2195 40.9909
  L 1120.7595 41.0091
  A 0.77 0.77 0.0 0 0 1119.9909 41.7805
  L 1120.0091 52.2405
  A 0.77 0.77 0.0 0 0 1120.7805 53.0091
  L 1131.2405 52.9909
  A 0.77 0.77 0.0 0 0 1132.0091 52.2195
  L 1131.9909 41.7595
  Z
  M 1152.9816 41.7291
  A 0.75 0.75 0.0 0 0 1152.2290 40.9817
  L 1141.7291 41.0184
  A 0.75 0.75 0.0 0 0 1140.9817 41.7710
  L 1141.0184 52.2709
  A 0.75 0.75 0.0 0 0 1141.7710 53.0183
  L 1152.2709 52.9816
  A 0.75 0.75 0.0 0 0 1153.0183 52.2290
  L 1152.9816 41.7291
  Z
  M 1173.9815 41.6891
  A 0.71 0.71 0.0 0 0 1173.2690 40.9816
  L 1162.6891 41.0185
  A 0.71 0.71 0.0 0 0 1161.9816 41.7310
  L 1162.0185 52.3109
  A 0.71 0.71 0.0 0 0 1162.7310 53.0184
  L 1173.3109 52.9815
  A 0.71 0.71 0.0 0 0 1174.0184 52.2690
  L 1173.9815 41.6891
  Z
  M 490.02 61.60
  C 490.07 66.58 493.61 71.01 498.86 71.00
  Q 519.45 70.95 539.26 71.06
  C 545.49 71.09 549.93 68.09 549.99 61.36
  Q 550.04 55.86 549.96 49.76
  A 0.33 0.33 0.0 0 0 549.41 49.52
  Q 545.58 52.97 540.24 52.98
  Q 520.72 53.01 500.16 53.00
  C 496.57 53.00 493.19 52.09 490.63 49.47
  A 0.35 0.34 -67.0 0 0 490.04 49.71
  Q 489.96 55.42 490.02 61.60
  Z
  M 337.75 77.02
  L 363.29 76.98
  A 0.75 0.75 0.0 0 0 364.04 76.23
  L 364.01 59.27
  A 9.31 9.16 89.9 0 0 354.84 49.97
  L 346.12 49.99
  A 9.31 9.16 89.9 0 0 336.97 59.31
  L 337.00 76.27
  A 0.75 0.75 0.0 0 0 337.75 77.02
  Z
  M 826.56 68.76
  Q 824.85 73.07 828.65 75.98
  C 833.25 79.51 840.39 73.72 837.33 68.69
  A 0.48 0.48 0.0 0 1 837.74 67.97
  L 861.29 67.97
  Q 861.89 67.97 861.95 67.37
  C 862.46 61.56 859.92 57.14 855.75 53.38
  Q 855.33 53.00 854.76 53.00
  L 809.26 53.00
  Q 808.59 53.00 808.12 53.49
  C 804.13 57.66 801.54 61.46 802.05 67.58
  A 0.46 0.45 -2.7 0 0 802.51 67.99
  L 826.04 67.99
  Q 826.86 67.99 826.56 68.76
  Z
  M 370.68 76.99
  L 390.32 76.99
  A 0.69 0.69 0.0 0 0 391.01 76.30
  L 391.01 63.64
  A 7.65 7.63 -90.0 0 0 383.38 55.99
  L 377.62 55.99
  A 7.65 7.63 90.0 0 0 369.99 63.64
  L 369.99 76.30
  A 0.69 0.69 0.0 0 0 370.68 76.99
  Z
  M 1131.9908 62.7395
  A 0.75 0.75 0.0 0 0 1131.2395 61.9908
  L 1120.7396 62.0092
  A 0.75 0.75 0.0 0 0 1119.9909 62.7605
  L 1120.0092 73.2405
  A 0.75 0.75 0.0 0 0 1120.7605 73.9892
  L 1131.2604 73.9708
  A 0.75 0.75 0.0 0 0 1132.0091 73.2195
  L 1131.9908 62.7395
  Z
  M 1152.9815 62.6991
  A 0.71 0.71 0.0 0 0 1152.2691 61.9916
  L 1141.6891 62.0285
  A 0.71 0.71 0.0 0 0 1140.9816 62.7410
  L 1141.0185 73.3009
  A 0.71 0.71 0.0 0 0 1141.7309 74.0084
  L 1152.3109 73.9715
  A 0.71 0.71 0.0 0 0 1153.0184 73.2590
  L 1152.9815 62.6991
  Z
  M 1173.9908 62.7195
  A 0.73 0.73 0.0 0 0 1173.2595 61.9908
  L 1162.7195 62.0092
  A 0.73 0.73 0.0 0 0 1161.9908 62.7405
  L 1162.0092 73.2805
  A 0.73 0.73 0.0 0 0 1162.7405 74.0092
  L 1173.2805 73.9908
  A 0.73 0.73 0.0 0 0 1174.0092 73.2595
  L 1173.9908 62.7195
  Z"
/>
<path d="
  M 511.42 28.99
  A 0.47 0.47 0.0 0 1 510.96 28.51
  L 510.96 26.19
  A 3.36 3.23 0.1 0 1 514.33 22.97
  L 525.67 22.99
  A 3.36 3.23 0.1 0 1 529.02 26.23
  L 529.02 28.55
  A 0.47 0.47 0.0 0 1 528.54 29.01
  L 511.42 28.99
  Z"
/>
<path d="
  M 54.95 41.00
  A 14.96 14.96 0.0 0 1 39.99 55.96
  A 14.96 14.96 0.0 0 1 25.03 41.00
  A 14.96 14.96 0.0 0 1 39.99 26.04
  A 14.96 14.96 0.0 0 1 54.95 41.00
  Z"
/>
<path d="
  M 667.68 44.00
  A 3.69 3.69 0.0 0 1 663.99 47.69
  A 3.69 3.69 0.0 0 1 660.30 44.00
  A 3.69 3.69 0.0 0 1 663.99 40.31
  A 3.69 3.69 0.0 0 1 667.68 44.00
  Z"
/>
<path d="
  M 679.68 44.00
  A 3.69 3.69 0.0 0 1 675.99 47.69
  A 3.69 3.69 0.0 0 1 672.30 44.00
  A 3.69 3.69 0.0 0 1 675.99 40.31
  A 3.69 3.69 0.0 0 1 679.68 44.00
  Z"
/>
<path d="
  M 691.68 44.00
  A 3.69 3.69 0.0 0 1 687.99 47.69
  A 3.69 3.69 0.0 0 1 684.30 44.00
  A 3.69 3.69 0.0 0 1 687.99 40.31
  A 3.69 3.69 0.0 0 1 691.68 44.00
  Z"
/>
</g>
<g fill="#666666">
<path d="
  M 363.96 30.50
  A 13.46 13.46 0.0 0 1 350.50 43.96
  A 13.46 13.46 0.0 0 1 337.04 30.50
  A 13.46 13.46 0.0 0 1 350.50 17.04
  A 13.46 13.46 0.0 0 1 363.96 30.50
  Z"
/>
<path d="
  M 505.02 28.15
  C 504.55 24.05 506.18 20.01 509.72 18.15
  Q 512.23 16.83 516.66 16.92
  Q 521.52 17.01 525.72 17.06
  C 532.21 17.15 535.55 22.15 534.96 28.17
  Q 534.88 29.00 535.71 29.00
  L 549.23 29.00
  A 0.73 0.72 88.8 0 1 549.95 29.70
  Q 550.19 35.24 549.97 40.84
  C 549.71 47.46 545.21 50.05 539.13 50.03
  Q 520.15 49.97 500.22 50.02
  C 487.47 50.06 490.27 38.06 489.97 29.82
  Q 489.94 29.00 490.76 29.00
  L 504.27 29.00
  Q 505.12 29.00 505.02 28.15
  Z
  M 511.42 28.99
  L 528.54 29.01
  A 0.47 0.47 0.0 0 0 529.02 28.55
  L 529.02 26.23
  A 3.36 3.23 0.1 0 0 525.67 22.99
  L 514.33 22.97
  A 3.36 3.23 0.1 0 0 510.96 26.19
  L 510.96 28.51
  A 0.47 0.47 0.0 0 0 511.42 28.99
  Z"
/>
<path d="
  M 817.03 24.54
  C 827.48 11.36 848.03 16.49 850.62 33.40
  Q 851.80 41.07 852.89 49.56
  A 0.39 0.39 0.0 0 1 852.50 50.00
  L 811.69 50.00
  Q 811.03 50.00 811.11 49.35
  Q 812.27 39.97 813.69 31.95
  Q 814.41 27.85 817.03 24.54
  Z"
/>
<path d="
  M 58.79 51.41
  Q 65.53 58.19 73.53 66.12
  C 79.56 72.10 71.06 80.49 65.51 74.91
  Q 58.16 67.51 50.46 59.82
  Q 50.01 59.37 49.43 59.66
  C 30.98 68.84 12.39 49.53 21.35 31.40
  C 24.57 24.88 31.50 20.40 38.80 20.05
  C 54.84 19.27 66.11 35.84 58.64 50.47
  Q 58.37 50.99 58.79 51.41
  Z
  M 54.95 41.00
  A 14.96 14.96 0.0 0 0 39.99 26.04
  A 14.96 14.96 0.0 0 0 25.03 41.00
  A 14.96 14.96 0.0 0 0 39.99 55.96
  A 14.96 14.96 0.0 0 0 54.95 41.00
  Z"
/>
<path d="
  M 1132.0080 31.1491
  A 0.82 0.82 0.0 0 1 1131.1909 31.9719
  L 1120.8509 32.0080
  A 0.82 0.82 0.0 0 1 1120.0281 31.1909
  L 1119.9920 20.8509
  A 0.82 0.82 0.0 0 1 1120.8091 20.0281
  L 1131.1491 19.9920
  A 0.82 0.82 0.0 0 1 1131.9719 20.8091
  L 1132.0080 31.1491
  Z"
/>
<path d="
  M 1153.0181 31.1890
  A 0.79 0.79 0.0 0 1 1152.2309 31.9818
  L 1141.8109 32.0181
  A 0.79 0.79 0.0 0 1 1141.0182 31.2309
  L 1140.9819 20.8310
  A 0.79 0.79 0.0 0 1 1141.7691 20.0382
  L 1152.1891 20.0019
  A 0.79 0.79 0.0 0 1 1152.9818 20.7891
  L 1153.0181 31.1890
  Z"
/>
<path d="
  M 1174.0082 31.2091
  A 0.76 0.76 0.0 0 1 1173.2508 31.9717
  L 1162.7909 32.0082
  A 0.76 0.76 0.0 0 1 1162.0283 31.2509
  L 1161.9918 20.8109
  A 0.76 0.76 0.0 0 1 1162.7492 20.0483
  L 1173.2091 20.0118
  A 0.76 0.76 0.0 0 1 1173.9717 20.7691
  L 1174.0082 31.2091
  Z"
/>
<path d="
  M 1003.66 23.58
  Q 1004.84 24.59 1004.49 26.11
  Q 1004.17 27.51 1002.92 28.15
  A 1.06 1.00 -55.6 0 1 1002.42 28.26
  L 1001.00 28.23
  Q 1000.30 28.21 1000.27 28.91
  Q 1000.25 29.53 999.82 30.00
  Q 999.54 30.30 999.14 30.32
  Q 997.97 30.38 996.67 29.84
  Q 996.26 29.66 996.61 29.37
  Q 997.39 28.72 997.34 27.71
  Q 997.32 27.28 997.04 26.95
  Q 996.15 25.93 997.16 25.04
  Q 998.81 23.59 999.03 21.45
  Q 999.21 19.77 1000.49 20.87
  L 1003.66 23.58
  Z"
/>
<path d="
  M 675.23 64.94
  Q 669.48 65.12 663.79 64.98
  C 648.91 64.61 638.25 49.32 644.94 35.23
  C 649.05 26.56 656.86 22.73 666.26 22.94
  Q 676.28 23.16 686.44 22.96
  C 693.60 22.81 699.98 25.33 704.42 30.95
  C 710.28 38.38 710.59 48.62 705.01 56.35
  Q 702.80 59.41 698.14 62.43
  Q 687.39 69.39 676.51 76.70
  A 0.32 0.32 0.0 0 1 676.01 76.43
  L 676.00 65.68
  Q 676.00 64.92 675.23 64.94
  Z
  M 667.68 44.00
  A 3.69 3.69 0.0 0 0 663.99 40.31
  A 3.69 3.69 0.0 0 0 660.30 44.00
  A 3.69 3.69 0.0 0 0 663.99 47.69
  A 3.69 3.69 0.0 0 0 667.68 44.00
  Z
  M 679.68 44.00
  A 3.69 3.69 0.0 0 0 675.99 40.31
  A 3.69 3.69 0.0 0 0 672.30 44.00
  A 3.69 3.69 0.0 0 0 675.99 47.69
  A 3.69 3.69 0.0 0 0 679.68 44.00
  Z
  M 691.68 44.00
  A 3.69 3.69 0.0 0 0 687.99 40.31
  A 3.69 3.69 0.0 0 0 684.30 44.00
  A 3.69 3.69 0.0 0 0 687.99 47.69
  A 3.69 3.69 0.0 0 0 691.68 44.00
  Z"
/>
<path d="
  M 390.98 39.50
  A 10.48 10.48 0.0 0 1 380.50 49.98
  A 10.48 10.48 0.0 0 1 370.02 39.50
  A 10.48 10.48 0.0 0 1 380.50 29.02
  A 10.48 10.48 0.0 0 1 390.98 39.50
  Z"
/>
<path d="
  M 1132.0091 52.2195
  A 0.77 0.77 0.0 0 1 1131.2405 52.9909
  L 1120.7805 53.0091
  A 0.77 0.77 0.0 0 1 1120.0091 52.2405
  L 1119.9909 41.7805
  A 0.77 0.77 0.0 0 1 1120.7595 41.0091
  L 1131.2195 40.9909
  A 0.77 0.77 0.0 0 1 1131.9909 41.7595
  L 1132.0091 52.2195
  Z"
/>
<path d="
  M 1153.0183 52.2290
  A 0.75 0.75 0.0 0 1 1152.2709 52.9816
  L 1141.7710 53.0183
  A 0.75 0.75 0.0 0 1 1141.0184 52.2709
  L 1140.9817 41.7710
  A 0.75 0.75 0.0 0 1 1141.7291 41.0184
  L 1152.2290 40.9817
  A 0.75 0.75 0.0 0 1 1152.9816 41.7291
  L 1153.0183 52.2290
  Z"
/>
<path d="
  M 1174.0184 52.2690
  A 0.71 0.71 0.0 0 1 1173.3109 52.9815
  L 1162.7310 53.0184
  A 0.71 0.71 0.0 0 1 1162.0185 52.3109
  L 1161.9816 41.7310
  A 0.71 0.71 0.0 0 1 1162.6891 41.0185
  L 1173.2690 40.9816
  A 0.71 0.71 0.0 0 1 1173.9815 41.6891
  L 1174.0184 52.2690
  Z"
/>
<path d="
  M 498.86 71.00
  C 493.61 71.01 490.07 66.58 490.02 61.60
  Q 489.96 55.42 490.04 49.71
  A 0.35 0.34 -67.0 0 1 490.63 49.47
  C 493.19 52.09 496.57 53.00 500.16 53.00
  Q 520.72 53.01 540.24 52.98
  Q 545.58 52.97 549.41 49.52
  A 0.33 0.33 0.0 0 1 549.96 49.76
  Q 550.04 55.86 549.99 61.36
  C 549.93 68.09 545.49 71.09 539.26 71.06
  Q 519.45 70.95 498.86 71.00
  Z"
/>
<path d="
  M 337.75 77.02
  A 0.75 0.75 0.0 0 1 337.00 76.27
  L 336.97 59.31
  A 9.31 9.16 89.9 0 1 346.12 49.99
  L 354.84 49.97
  A 9.31 9.16 89.9 0 1 364.01 59.27
  L 364.04 76.23
  A 0.75 0.75 0.0 0 1 363.29 76.98
  L 337.75 77.02
  Z"
/>
<path d="
  M 826.04 67.99
  L 802.51 67.99
  A 0.46 0.45 -2.7 0 1 802.05 67.58
  C 801.54 61.46 804.13 57.66 808.12 53.49
  Q 808.59 53.00 809.26 53.00
  L 854.76 53.00
  Q 855.33 53.00 855.75 53.38
  C 859.92 57.14 862.46 61.56 861.95 67.37
  Q 861.89 67.97 861.29 67.97
  L 837.74 67.97
  A 0.48 0.48 0.0 0 0 837.33 68.69
  C 840.39 73.72 833.25 79.51 828.65 75.98
  Q 824.85 73.07 826.56 68.76
  Q 826.86 67.99 826.04 67.99
  Z"
/>
<path d="
  M 370.68 76.99
  A 0.69 0.69 0.0 0 1 369.99 76.30
  L 369.99 63.64
  A 7.65 7.63 -90.0 0 1 377.62 55.99
  L 383.38 55.99
  A 7.65 7.63 -90.0 0 1 391.01 63.64
  L 391.01 76.30
  A 0.69 0.69 0.0 0 1 390.32 76.99
  L 370.68 76.99
  Z"
/>
<path d="
  M 1132.0091 73.2195
  A 0.75 0.75 0.0 0 1 1131.2604 73.9708
  L 1120.7605 73.9892
  A 0.75 0.75 0.0 0 1 1120.0092 73.2405
  L 1119.9909 62.7605
  A 0.75 0.75 0.0 0 1 1120.7396 62.0092
  L 1131.2395 61.9908
  A 0.75 0.75 0.0 0 1 1131.9908 62.7395
  L 1132.0091 73.2195
  Z"
/>
<path d="
  M 1153.0184 73.2590
  A 0.71 0.71 0.0 0 1 1152.3109 73.9715
  L 1141.7309 74.0084
  A 0.71 0.71 0.0 0 1 1141.0185 73.3009
  L 1140.9816 62.7410
  A 0.71 0.71 0.0 0 1 1141.6891 62.0285
  L 1152.2691 61.9916
  A 0.71 0.71 0.0 0 1 1152.9815 62.6991
  L 1153.0184 73.2590
  Z"
/>
<path d="
  M 1174.0092 73.2595
  A 0.73 0.73 0.0 0 1 1173.2805 73.9908
  L 1162.7405 74.0092
  A 0.73 0.73 0.0 0 1 1162.0092 73.2805
  L 1161.9908 62.7405
  A 0.73 0.73 0.0 0 1 1162.7195 62.0092
  L 1173.2595 61.9908
  A 0.73 0.73 0.0 0 1 1173.9908 62.7195
  L 1174.0092 73.2595
  Z"
/>
<path d="
  M 1008.43 67.48
  L 1012.39 69.40
  L 1010.12 72.22
  Q 1009.04 70.55 1006.74 70.05
  Q 1008.69 68.99 1008.43 67.48
  Z"
/>
</g>
<g fill="#191919">
<path d="
  M 1005.92 24.88
  C 1006.00 26.98 1007.25 29.35 1005.31 31.64
  Q 1002.77 34.69 1002.81 38.26
  Q 1002.69 38.83 1002.21 37.98
  Q 1001.88 35.91 1002.38 33.47
  Q 1002.60 32.99 1002.50 32.56
  A 0.76 0.76 0.0 0 0 1001.87 31.97
  Q 998.73 31.47 995.88 32.62
  Q 995.34 32.84 994.78 32.92
  Q 993.94 33.04 993.01 33.12
  Q 991.78 33.22 991.71 32.08
  Q 991.68 31.56 991.28 31.23
  Q 988.95 29.26 985.73 29.79
  Q 984.34 30.01 984.53 31.41
  Q 984.58 31.74 984.80 31.99
  Q 985.25 32.50 984.63 32.79
  Q 982.79 33.63 980.89 32.62
  Q 980.40 32.36 979.84 32.36
  L 977.88 32.36
  Q 977.42 32.36 977.03 32.09
  Q 975.65 31.13 974.41 32.00
  A 0.96 0.96 0.0 0 0 974.01 32.90
  Q 974.32 35.51 973.57 38.08
  Q 973.49 38.36 973.20 38.35
  Q 972.71 38.32 972.68 37.83
  Q 972.57 36.27 972.01 35.43
  L 970.88 22.81
  Q 971.70 19.01 975.24 16.78
  Q 977.24 15.52 978.39 14.29
  C 980.79 11.74 983.33 12.14 986.50 11.69
  C 992.84 10.80 998.82 14.57 1002.21 19.80
  Q 1004.05 22.63 1005.92 24.88
  Z
  M 1003.66 23.58
  L 1000.49 20.87
  Q 999.21 19.77 999.03 21.45
  Q 998.81 23.59 997.16 25.04
  Q 996.15 25.93 997.04 26.95
  Q 997.32 27.28 997.34 27.71
  Q 997.39 28.72 996.61 29.37
  Q 996.26 29.66 996.67 29.84
  Q 997.97 30.38 999.14 30.32
  Q 999.54 30.30 999.82 30.00
  Q 1000.25 29.53 1000.27 28.91
  Q 1000.30 28.21 1001.00 28.23
  L 1002.42 28.26
  A 1.06 1.00 -55.6 0 0 1002.92 28.15
  Q 1004.17 27.51 1004.49 26.11
  Q 1004.84 24.59 1003.66 23.58
  Z"
/>
<path d="
  M 223.00 25.76
  L 223.00 17.75
  Q 223.00 17.00 223.75 17.00
  L 231.25 17.00
  A 0.75 0.74 -90.0 0 1 231.99 17.75
  L 232.01 31.70
  A 1.09 1.08 16.4 0 0 232.51 32.61
  L 240.29 37.53
  Q 240.99 37.97 241.00 38.80
  L 241.01 43.36
  A 0.63 0.63 0.0 0 1 240.38 44.00
  L 235.53 44.00
  Q 234.99 44.00 234.99 44.55
  Q 235.01 54.11 235.00 64.40
  C 234.99 71.25 230.11 74.33 223.69 74.05
  Q 219.62 73.88 214.80 74.05
  A 0.77 0.76 88.9 0 1 214.01 73.28
  L 213.99 56.49
  A 0.50 0.49 -0.0 0 0 213.49 56.00
  L 202.50 56.00
  Q 202.01 56.00 202.01 56.50
  L 201.99 73.26
  A 0.75 0.75 0.0 0 1 201.22 74.01
  Q 197.53 73.89 193.32 74.05
  C 185.34 74.35 180.85 71.36 180.95 63.10
  Q 181.06 53.33 180.99 44.51
  Q 180.98 44.00 180.47 44.00
  L 175.75 44.00
  Q 175.00 44.00 175.00 43.25
  L 175.00 38.90
  Q 175.01 37.98 175.78 37.49
  L 207.73 17.16
  A 0.51 0.51 0.0 0 1 208.27 17.16
  L 222.34 26.12
  Q 223.00 26.54 223.00 25.76
  Z"
/>
<path d="
  M 994.25 35.06
  L 996.12 35.99
  Q 996.39 36.55 996.31 36.72
  C 994.87 37.66 993.09 39.13 991.90 37.28
  Q 991.79 36.33 992.08 35.63
  Q 992.28 35.17 992.78 35.14
  L 994.25 35.06
  Z"
/>
<path d="
  M 990.06 43.74
  A 0.34 0.33 46.4 0 1 990.07 43.17
  Q 990.92 42.66 991.77 43.43
  Q 992.36 43.95 991.58 44.09
  Q 990.80 44.24 990.06 43.74
  Z"
/>
<path d="
  M 987.59 48.05
  Q 987.97 48.42 988.59 48.45
  L 994.36 49.52
  Q 994.55 49.56 994.50 49.74
  L 994.40 50.05
  Q 994.31 50.36 993.99 50.33
  L 988.25 49.74
  Q 985.31 49.28 982.95 51.44
  A 0.93 0.93 0.0 0 1 981.39 50.82
  Q 981.30 49.68 981.90 48.87
  Q 982.20 48.45 982.72 48.41
  L 987.59 48.05
  Z"
/>
<path d="
  M 989.55 51.97
  Q 991.75 53.18 990.06 53.59
  Q 988.88 53.59 987.91 53.24
  Q 987.36 53.04 987.65 52.53
  Q 987.96 51.98 989.55 51.97
  Z"
/>
</g>
<path fill="#fdb2bb" d="
  M 1013.06 31.53
  Q 1022.70 44.90 1017.40 60.73
  Q 1015.71 65.75 1012.39 69.40
  L 1008.43 67.48
  L 1003.53 65.39
  Q 1002.98 64.54 1001.94 64.35
  Q 1001.44 64.25 1001.13 63.85
  L 999.38 61.61
  Q 999.07 61.21 999.00 60.71
  Q 998.82 59.30 998.82 57.75
  Q 998.82 57.05 999.28 56.64
  Q 999.64 56.32 999.72 55.86
  Q 1000.22 53.00 1000.77 50.01
  Q 1000.98 48.87 1002.00 46.71
  Q 1002.77 45.09 1002.93 43.23
  L 1003.30 41.73
  Q 1003.95 41.77 1003.41 39.51
  Q 1002.96 39.05 1002.81 38.26
  Q 1002.77 34.69 1005.31 31.64
  L 1007.54 32.22
  Q 1007.86 32.30 1007.86 32.63
  Q 1007.86 32.78 1007.97 32.90
  Q 1008.11 33.05 1008.28 32.95
  L 1010.98 31.41
  Q 1011.36 31.20 1011.70 31.45
  Q 1013.23 32.57 1013.06 31.53
  Z"
/>
<g fill="#624135">
<path d="
  M 1002.38 33.47
  Q 1002.40 32.59 1002.01 32.58
  Q 998.06 32.44 994.49 33.98
  Q 993.87 34.25 994.25 35.06
  L 992.78 35.14
  Q 992.28 35.17 992.08 35.63
  Q 991.79 36.33 991.90 37.28
  Q 991.38 36.49 991.50 35.33
  Q 991.56 34.83 991.27 34.42
  L 989.96 32.52
  A 0.74 0.74 0.0 0 0 988.64 32.73
  L 987.92 35.20
  Q 987.04 38.29 987.23 41.63
  Q 987.30 42.88 987.96 43.53
  A 0.43 0.41 -51.5 0 1 988.01 44.04
  Q 986.46 46.56 987.59 48.05
  L 982.72 48.41
  Q 982.20 48.45 981.90 48.87
  Q 981.30 49.68 981.39 50.82
  A 0.93 0.93 0.0 0 0 982.95 51.44
  Q 985.31 49.28 988.25 49.74
  Q 984.88 51.10 989.55 51.97
  Q 987.96 51.98 987.65 52.53
  Q 987.36 53.04 987.91 53.24
  Q 988.88 53.59 990.06 53.59
  L 987.44 53.96
  A 1.36 1.36 0.0 0 0 986.73 56.34
  Q 988.43 57.81 990.62 58.65
  Q 985.37 61.24 986.15 66.68
  Q 986.23 67.24 985.86 67.68
  L 983.81 70.05
  Q 983.48 70.44 983.42 70.94
  L 983.21 73.00
  Q 983.15 73.62 982.52 73.67
  Q 980.52 73.82 979.64 72.11
  Q 979.21 71.29 978.37 71.76
  A 0.78 0.77 -19.8 0 0 977.99 72.56
  Q 978.15 73.47 979.36 74.29
  Q 978.02 73.77 977.25 72.25
  C 976.64 71.04 977.14 70.15 976.42 68.99
  Q 976.14 68.53 976.10 67.99
  Q 976.01 66.66 975.08 65.93
  A 1.98 1.97 23.3 0 0 971.91 67.19
  L 971.81 67.83
  Q 971.73 68.38 971.24 68.66
  Q 968.68 70.07 964.12 70.20
  Q 964.24 70.51 964.37 70.83
  Q 964.30 69.42 964.98 69.23
  Q 968.59 68.24 971.37 65.88
  A 2.27 2.17 -70.5 0 1 972.24 65.44
  C 974.23 64.95 975.33 64.16 975.84 62.06
  C 976.68 58.62 977.52 55.09 976.32 51.83
  Q 976.17 51.42 973.59 47.60
  Q 970.25 42.64 972.01 35.43
  Q 972.57 36.27 972.68 37.83
  Q 972.71 38.32 973.20 38.35
  Q 973.49 38.36 973.57 38.08
  Q 974.32 35.51 974.01 32.90
  A 0.96 0.96 0.0 0 1 974.41 32.00
  Q 975.65 31.13 977.03 32.09
  Q 977.42 32.36 977.88 32.36
  L 979.84 32.36
  Q 980.40 32.36 980.89 32.62
  Q 982.79 33.63 984.63 32.79
  Q 985.25 32.50 984.80 31.99
  Q 984.58 31.74 984.53 31.41
  Q 984.34 30.01 985.73 29.79
  Q 988.95 29.26 991.28 31.23
  Q 991.68 31.56 991.71 32.08
  Q 991.78 33.22 993.01 33.12
  Q 993.94 33.04 994.78 32.92
  Q 995.34 32.84 995.88 32.62
  Q 998.73 31.47 1001.87 31.97
  A 0.76 0.76 0.0 0 1 1002.50 32.56
  Q 1002.60 32.99 1002.38 33.47
  Z"
/>
<path d="
  M 1002.21 37.98
  Q 1002.69 38.83 1002.81 38.26
  Q 1002.96 39.05 1003.41 39.51
  Q 1002.69 40.68 1002.21 37.98
  Z"
/>
</g>
<g fill="#fe748e">
<path d="
  M 970.88 22.81
  L 972.01 35.43
  Q 970.25 42.64 973.59 47.60
  Q 976.17 51.42 976.32 51.83
  C 977.52 55.09 976.68 58.62 975.84 62.06
  C 975.33 64.16 974.23 64.95 972.24 65.44
  A 2.27 2.17 -70.5 0 0 971.37 65.88
  Q 968.59 68.24 964.98 69.23
  Q 964.30 69.42 964.37 70.83
  Q 951.98 56.01 958.60 38.55
  Q 961.75 30.21 970.88 22.81
  Z"
/>
<path d="
  M 1005.92 24.88
  Q 1010.31 27.01 1013.06 31.53
  Q 1013.23 32.57 1011.70 31.45
  Q 1011.36 31.20 1010.98 31.41
  L 1008.28 32.95
  Q 1008.11 33.05 1007.97 32.90
  Q 1007.86 32.78 1007.86 32.63
  Q 1007.86 32.30 1007.54 32.22
  L 1005.31 31.64
  C 1007.25 29.35 1006.00 26.98 1005.92 24.88
  Z"
/>
<path d="
  M 1002.02 65.50
  Q 1002.64 65.28 1003.53 65.39
  L 1008.43 67.48
  Q 1008.69 68.99 1006.74 70.05
  L 1003.37 69.21
  Q 1001.92 67.90 1002.02 65.50
  Z"
/>
</g>
<g fill="#0c263e">
<path d="
  M 979.36 74.29
  L 981.46 75.53
  L 984.40 76.35
  Q 984.88 76.49 985.02 76.97
  Q 985.22 77.66 984.75 78.25
  Q 984.50 78.56 984.86 78.74
  Q 985.18 78.90 985.18 79.24
  Q 985.18 79.72 984.76 79.95
  Q 983.35 80.72 980.75 80.74
  Q 971.28 78.88 964.12 70.20
  Q 968.68 70.07 971.24 68.66
  Q 971.73 68.38 971.81 67.83
  L 971.91 67.19
  A 1.98 1.97 23.3 0 1 975.08 65.93
  Q 976.01 66.66 976.10 67.99
  Q 976.14 68.53 976.42 68.99
  C 977.14 70.15 976.64 71.04 977.25 72.25
  Q 978.02 73.77 979.36 74.29
  Z"
/>
<path d="
  M 1003.37 69.21
  L 1006.74 70.05
  Q 1009.04 70.55 1010.12 72.22
  Q 1004.05 78.51 995.53 80.55
  Q 996.03 78.72 995.89 77.17
  A 2.58 2.10 -1.6 0 1 998.53 74.90
  Q 999.51 74.91 999.69 73.85
  A 1.25 1.25 0.0 0 1 1000.46 72.90
  Q 1003.09 71.85 1003.37 69.21
  Z"
/>
</g>
<g fill="#b3826d">
<path d="
  M 987.92 35.20
  L 988.26 41.55
  Q 988.28 42.04 988.56 42.43
  Q 988.68 42.61 988.77 42.81
  Q 988.95 43.23 988.83 43.68
  Q 988.44 45.15 989.52 46.05
  Q 990.02 46.46 989.44 46.74
  Q 988.27 47.30 988.59 48.45
  Q 987.97 48.42 987.59 48.05
  Q 986.46 46.56 988.01 44.04
  A 0.43 0.41 -51.5 0 0 987.96 43.53
  Q 987.30 42.88 987.23 41.63
  Q 987.04 38.29 987.92 35.20
  Z"
/>
<path d="
  M 996.12 35.99
  Q 997.08 36.27 998.11 35.88
  Q 998.45 35.74 998.54 36.10
  L 998.64 36.49
  Q 998.69 36.68 998.51 36.75
  Q 997.37 37.19 996.31 36.72
  Q 996.39 36.55 996.12 35.99
  Z"
/>
<path d="
  M 1003.30 41.73
  L 1002.93 43.23
  Q 1002.75 43.85 1002.42 44.29
  Q 1002.07 44.75 1002.04 44.18
  Q 1001.87 41.68 1003.30 41.73
  Z"
/>
<path d="
  M 990.62 58.65
  Q 990.90 58.01 990.80 58.96
  Q 990.77 59.29 990.47 59.46
  C 989.26 60.16 988.26 61.25 988.32 62.75
  C 988.36 63.82 987.86 64.52 988.28 65.63
  Q 989.18 67.97 990.61 69.85
  Q 990.90 70.25 990.86 70.73
  Q 990.82 71.29 990.75 71.87
  Q 990.37 75.08 992.94 73.11
  Q 994.15 72.19 996.14 71.48
  Q 993.91 73.95 991.50 74.71
  Q 986.83 76.18 981.46 75.53
  L 979.36 74.29
  Q 978.15 73.47 977.99 72.56
  A 0.78 0.77 -19.8 0 1 978.37 71.76
  Q 979.21 71.29 979.64 72.11
  Q 980.52 73.82 982.52 73.67
  Q 983.15 73.62 983.21 73.00
  L 983.42 70.94
  Q 983.48 70.44 983.81 70.05
  L 985.86 67.68
  Q 986.23 67.24 986.15 66.68
  Q 985.37 61.24 990.62 58.65
  Z"
/>
</g>
<path fill="#f2b8b0" d="
  M 991.90 37.28
  C 993.09 39.13 994.87 37.66 996.31 36.72
  Q 997.37 37.19 998.51 36.75
  Q 998.69 36.68 998.64 36.49
  L 998.54 36.10
  Q 998.45 35.74 998.11 35.88
  Q 997.08 36.27 996.12 35.99
  L 994.25 35.06
  Q 993.87 34.25 994.49 33.98
  Q 998.06 32.44 1002.01 32.58
  Q 1002.40 32.59 1002.38 33.47
  Q 1001.88 35.91 1002.21 37.98
  Q 1002.69 40.68 1003.41 39.51
  Q 1003.95 41.77 1003.30 41.73
  Q 1001.87 41.68 1002.04 44.18
  Q 1002.07 44.75 1002.42 44.29
  Q 1002.75 43.85 1002.93 43.23
  Q 1002.77 45.09 1002.00 46.71
  Q 1000.98 48.87 1000.77 50.01
  Q 1000.22 53.00 999.72 55.86
  Q 999.64 56.32 999.28 56.64
  Q 998.82 57.05 998.82 57.75
  Q 998.82 59.30 999.00 60.71
  Q 999.07 61.21 999.38 61.61
  L 1001.13 63.85
  Q 1001.44 64.25 1001.94 64.35
  Q 1002.98 64.54 1003.53 65.39
  Q 1002.64 65.28 1002.02 65.50
  Q 1001.22 64.73 1000.65 64.77
  Q 1000.18 64.80 999.93 65.70
  Q 998.92 69.40 996.14 71.48
  Q 994.15 72.19 992.94 73.11
  Q 990.37 75.08 990.75 71.87
  Q 990.82 71.29 990.86 70.73
  Q 990.90 70.25 990.61 69.85
  Q 989.18 67.97 988.28 65.63
  C 987.86 64.52 988.36 63.82 988.32 62.75
  C 988.26 61.25 989.26 60.16 990.47 59.46
  Q 990.77 59.29 990.80 58.96
  Q 990.90 58.01 990.62 58.65
  Q 988.43 57.81 986.73 56.34
  A 1.36 1.36 0.0 0 1 987.44 53.96
  L 990.06 53.59
  Q 991.75 53.18 989.55 51.97
  Q 984.88 51.10 988.25 49.74
  L 993.99 50.33
  Q 994.31 50.36 994.40 50.05
  L 994.50 49.74
  Q 994.55 49.56 994.36 49.52
  L 988.59 48.45
  Q 988.27 47.30 989.44 46.74
  Q 990.02 46.46 989.52 46.05
  Q 988.44 45.15 988.83 43.68
  Q 988.95 43.23 988.77 42.81
  Q 988.68 42.61 988.56 42.43
  Q 988.28 42.04 988.26 41.55
  L 987.92 35.20
  L 988.64 32.73
  A 0.74 0.74 0.0 0 1 989.96 32.52
  L 991.27 34.42
  Q 991.56 34.83 991.50 35.33
  Q 991.38 36.49 991.90 37.28
  Z
  M 990.06 43.74
  Q 990.80 44.24 991.58 44.09
  Q 992.36 43.95 991.77 43.43
  Q 990.92 42.66 990.07 43.17
  A 0.34 0.33 46.4 0 0 990.06 43.74
  Z"
/>
<path fill="#113f68" d="
  M 1002.02 65.50
  Q 1001.92 67.90 1003.37 69.21
  Q 1003.09 71.85 1000.46 72.90
  A 1.25 1.25 0.0 0 0 999.69 73.85
  Q 999.51 74.91 998.53 74.90
  A 2.58 2.10 -1.6 0 0 995.89 77.17
  Q 996.03 78.72 995.53 80.55
  Q 988.08 82.65 980.75 80.74
  Q 983.35 80.72 984.76 79.95
  Q 985.18 79.72 985.18 79.24
  Q 985.18 78.90 984.86 78.74
  Q 984.50 78.56 984.75 78.25
  Q 985.22 77.66 985.02 76.97
  Q 984.88 76.49 984.40 76.35
  L 981.46 75.53
  Q 986.83 76.18 991.50 74.71
  Q 993.91 73.95 996.14 71.48
  Q 998.92 69.40 999.93 65.70
  Q 1000.18 64.80 1000.65 64.77
  Q 1001.22 64.73 1002.02 65.50
  Z"
/>
</svg>
