<?xml version="1.0" encoding="UTF-8" standalone="no"?>
<!DOCTYPE svg PUBLIC "-//W3C//DTD SVG 1.1//EN" "http://www.w3.org/Graphics/SVG/1.1/DTD/svg11.dtd">
<svg xmlns="http://www.w3.org/2000/svg" version="1.1" viewBox="0.00 0.00 432.00 168.00">
<g stroke-width="2.00" fill="none" stroke-linecap="butt">
<path stroke="#b3b3b3" vector-effect="non-scaling-stroke" d="
  M 161.96 85.00
  A 59.96 59.96 0.0 0 0 102.00 25.04
  A 59.96 59.96 0.0 0 0 42.04 85.00
  A 59.96 59.96 0.0 0 0 102.00 144.96
  A 59.96 59.96 0.0 0 0 161.96 85.00"
/>
<path stroke="#b3b3b3" vector-effect="non-scaling-stroke" d="
  M 401.99 55.14
  A 18.13 18.13 0.0 0 0 383.86 37.01
  L 300.14 37.01
  A 18.13 18.13 0.0 0 0 282.01 55.14
  L 282.01 114.86
  A 18.13 18.13 0.0 0 0 300.14 132.99
  L 383.86 132.99
  A 18.13 18.13 0.0 0 0 401.99 114.86
  L 401.99 55.14"
/>
<path stroke="#b3b3b3" vector-effect="non-scaling-stroke" d="
  M 149.97 85.00
  A 47.97 47.97 0.0 0 0 102.00 37.03
  A 47.97 47.97 0.0 0 0 54.03 85.00
  A 47.97 47.97 0.0 0 0 102.00 132.97
  A 47.97 47.97 0.0 0 0 149.97 85.00"
/>
<path stroke="#b3b3b3" vector-effect="non-scaling-stroke" d="
  M 95.98 76.00
  A 8.98 8.98 0.0 0 0 87.00 67.02
  A 8.98 8.98 0.0 0 0 78.02 76.00
  A 8.98 8.98 0.0 0 0 87.00 84.98
  A 8.98 8.98 0.0 0 0 95.98 76.00"
/>
<path stroke="#b3b3b3" vector-effect="non-scaling-stroke" d="
  M 125.98 76.00
  A 8.98 8.98 0.0 0 0 117.00 67.02
  A 8.98 8.98 0.0 0 0 108.02 76.00
  A 8.98 8.98 0.0 0 0 117.00 84.98
  A 8.98 8.98 0.0 0 0 125.98 76.00"
/>
<path stroke="#b3b3b3" vector-effect="non-scaling-stroke" d="
  M 72.76 103.38
  C 89.23 119.57 115.17 118.87 131.42 103.17
  A 0.25 0.25 0.0 0 0 131.43 102.81
  L 127.56 98.92
  Q 127.40 98.77 127.24 98.92
  C 112.67 112.47 91.38 112.24 76.90 98.81
  Q 76.58 98.50 76.27 98.82
  L 72.75 102.44
  Q 72.29 102.92 72.76 103.38"
/>
<path stroke="#b3b3b3" vector-effect="non-scaling-stroke" d="
  M 366.51 97.51
  L 387.77 118.75
  A 0.70 0.70 0.0 0 0 388.87 118.61
  Q 389.92 116.82 390.05 114.54
  Q 390.10 113.67 390.04 57.29
  C 390.03 52.73 388.82 48.99 383.50 48.99
  Q 342.85 48.99 302.21 49.00
  C 297.58 49.00 294.06 50.02 294.03 55.27
  Q 293.90 76.06 294.02 96.44
  A 0.22 0.22 0.0 0 0 294.40 96.60
  L 317.73 73.25
  A 0.37 0.37 0.0 0 1 318.26 73.25
  L 353.52 108.52
  A 0.74 0.74 0.0 0 0 354.56 108.52
  L 365.55 97.51
  Q 366.03 97.02 366.51 97.51"
/>
<path stroke="#b3b3b3" vector-effect="non-scaling-stroke" d="
  M 377.94 73.01
  A 11.97 11.97 0.0 0 0 365.97 61.04
  A 11.97 11.97 0.0 0 0 354.00 73.01
  A 11.97 11.97 0.0 0 0 365.97 84.98
  A 11.97 11.97 0.0 0 0 377.94 73.01"
/>
</g>
<g fill="#ffffff">
<path d="
  M 0.00 0.00
  L 432.00 0.00
  L 432.00 168.00
  L 0.00 168.00
  L 0.00 0.00
  Z
  M 161.96 85.00
  A 59.96 59.96 0.0 0 0 102.00 25.04
  A 59.96 59.96 0.0 0 0 42.04 85.00
  A 59.96 59.96 0.0 0 0 102.00 144.96
  A 59.96 59.96 0.0 0 0 161.96 85.00
  Z
  M 401.99 55.14
  A 18.13 18.13 0.0 0 0 383.86 37.01
  L 300.14 37.01
  A 18.13 18.13 0.0 0 0 282.01 55.14
  L 282.01 114.86
  A 18.13 18.13 0.0 0 0 300.14 132.99
  L 383.86 132.99
  A 18.13 18.13 0.0 0 0 401.99 114.86
  L 401.99 55.14
  Z"
/>
<path d="
  M 149.97 85.00
  A 47.97 47.97 0.0 0 1 102.00 132.97
  A 47.97 47.97 0.0 0 1 54.03 85.00
  A 47.97 47.97 0.0 0 1 102.00 37.03
  A 47.97 47.97 0.0 0 1 149.97 85.00
  Z
  M 95.98 76.00
  A 8.98 8.98 0.0 0 0 87.00 67.02
  A 8.98 8.98 0.0 0 0 78.02 76.00
  A 8.98 8.98 0.0 0 0 87.00 84.98
  A 8.98 8.98 0.0 0 0 95.98 76.00
  Z
  M 125.98 76.00
  A 8.98 8.98 0.0 0 0 117.00 67.02
  A 8.98 8.98 0.0 0 0 108.02 76.00
  A 8.98 8.98 0.0 0 0 117.00 84.98
  A 8.98 8.98 0.0 0 0 125.98 76.00
  Z
  M 72.76 103.38
  C 89.23 119.57 115.17 118.87 131.42 103.17
  A 0.25 0.25 0.0 0 0 131.43 102.81
  L 127.56 98.92
  Q 127.40 98.77 127.24 98.92
  C 112.67 112.47 91.38 112.24 76.90 98.81
  Q 76.58 98.50 76.27 98.82
  L 72.75 102.44
  Q 72.29 102.92 72.76 103.38
  Z"
/>
<path d="
  M 365.55 97.51
  L 354.56 108.52
  A 0.74 0.74 0.0 0 1 353.52 108.52
  L 318.26 73.25
  A 0.37 0.37 0.0 0 0 317.73 73.25
  L 294.40 96.60
  A 0.22 0.22 0.0 0 1 294.02 96.44
  Q 293.90 76.06 294.03 55.27
  C 294.06 50.02 297.58 49.00 302.21 49.00
  Q 342.85 48.99 383.50 48.99
  C 388.82 48.99 390.03 52.73 390.04 57.29
  Q 390.10 113.67 390.05 114.54
  Q 389.92 116.82 388.87 118.61
  A 0.70 0.70 0.0 0 1 387.77 118.75
  L 366.51 97.51
  Q 366.03 97.02 365.55 97.51
  Z
  M 377.94 73.01
  A 11.97 11.97 0.0 0 0 365.97 61.04
  A 11.97 11.97 0.0 0 0 354.00 73.01
  A 11.97 11.97 0.0 0 0 365.97 84.98
  A 11.97 11.97 0.0 0 0 377.94 73.01
  Z"
/>
</g>
<g fill="#666666">
<path d="
  M 161.96 85.00
  A 59.96 59.96 0.0 0 1 102.00 144.96
  A 59.96 59.96 0.0 0 1 42.04 85.00
  A 59.96 59.96 0.0 0 1 102.00 25.04
  A 59.96 59.96 0.0 0 1 161.96 85.00
  Z
  M 149.97 85.00
  A 47.97 47.97 0.0 0 0 102.00 37.03
  A 47.97 47.97 0.0 0 0 54.03 85.00
  A 47.97 47.97 0.0 0 0 102.00 132.97
  A 47.97 47.97 0.0 0 0 149.97 85.00
  Z"
/>
<path d="
  M 401.99 114.86
  A 18.13 18.13 0.0 0 1 383.86 132.99
  L 300.14 132.99
  A 18.13 18.13 0.0 0 1 282.01 114.86
  L 282.01 55.14
  A 18.13 18.13 0.0 0 1 300.14 37.01
  L 383.86 37.01
  A 18.13 18.13 0.0 0 1 401.99 55.14
  L 401.99 114.86
  Z
  M 366.51 97.51
  L 387.77 118.75
  A 0.70 0.70 0.0 0 0 388.87 118.61
  Q 389.92 116.82 390.05 114.54
  Q 390.10 113.67 390.04 57.29
  C 390.03 52.73 388.82 48.99 383.50 48.99
  Q 342.85 48.99 302.21 49.00
  C 297.58 49.00 294.06 50.02 294.03 55.27
  Q 293.90 76.06 294.02 96.44
  A 0.22 0.22 0.0 0 0 294.40 96.60
  L 317.73 73.25
  A 0.37 0.37 0.0 0 1 318.26 73.25
  L 353.52 108.52
  A 0.74 0.74 0.0 0 0 354.56 108.52
  L 365.55 97.51
  Q 366.03 97.02 366.51 97.51
  Z"
/>
<path d="
  M 377.94 73.01
  A 11.97 11.97 0.0 0 1 365.97 84.98
  A 11.97 11.97 0.0 0 1 354.00 73.01
  A 11.97 11.97 0.0 0 1 365.97 61.04
  A 11.97 11.97 0.0 0 1 377.94 73.01
  Z"
/>
<path d="
  M 95.98 76.00
  A 8.98 8.98 0.0 0 1 87.00 84.98
  A 8.98 8.98 0.0 0 1 78.02 76.00
  A 8.98 8.98 0.0 0 1 87.00 67.02
  A 8.98 8.98 0.0 0 1 95.98 76.00
  Z"
/>
<path d="
  M 125.98 76.00
  A 8.98 8.98 0.0 0 1 117.00 84.98
  A 8.98 8.98 0.0 0 1 108.02 76.00
  A 8.98 8.98 0.0 0 1 117.00 67.02
  A 8.98 8.98 0.0 0 1 125.98 76.00
  Z"
/>
<path d="
  M 131.42 103.17
  C 115.17 118.87 89.23 119.57 72.76 103.38
  Q 72.29 102.92 72.75 102.44
  L 76.27 98.82
  Q 76.58 98.50 76.90 98.81
  C 91.38 112.24 112.67 112.47 127.24 98.92
  Q 127.40 98.77 127.56 98.92
  L 131.43 102.81
  A 0.25 0.25 0.0 0 1 131.42 103.17
  Z"
/>
</g>
</svg>
