<?xml version="1.0" encoding="UTF-8" standalone="no"?>
<!DOCTYPE svg PUBLIC "-//W3C//DTD SVG 1.1//EN" "http://www.w3.org/Graphics/SVG/1.1/DTD/svg11.dtd">
<svg xmlns="http://www.w3.org/2000/svg" version="1.1" viewBox="0.00 0.00 1273.00 147.00">
<g stroke-width="2.00" fill="none" stroke-linecap="butt">
<path stroke="#e1be8b" vector-effect="non-scaling-stroke" d="
  M 603.18 115.23
  C 605.86 122.69 612.89 127.03 620.83 127.01
  Q 653.82 126.92 688.97 127.05
  Q 695.19 127.07 698.57 125.73
  Q 705.61 122.92 708.64 115.81
  Q 710.13 112.29 710.09 103.54
  Q 709.89 58.54 710.04 19.76
  A 0.75 0.75 0.0 0 0 709.29 19.00
  L 602.52 19.00
  A 0.52 0.52 0.0 0 0 602.00 19.52
  Q 602.05 61.20 601.92 104.19
  Q 601.90 111.66 603.18 115.23"
/>
<path stroke="#f0b4a3" vector-effect="non-scaling-stroke" d="
  M 1254.00 19.73
  A 0.73 0.73 0.0 0 0 1253.27 19.00
  L 1146.73 19.00
  A 0.73 0.73 0.0 0 0 1146.00 19.73
  L 1146.00 30.27
  A 0.73 0.73 0.0 0 0 1146.73 31.00
  L 1253.27 31.00
  A 0.73 0.73 0.0 0 0 1254.00 30.27
  L 1254.00 19.73"
/>
<path stroke="#9bc7f4" vector-effect="non-scaling-stroke" d="
  M 141.98 43.14
  A 18.14 18.14 0.0 0 0 123.84 25.00
  L 40.12 25.00
  A 18.14 18.14 0.0 0 0 21.98 43.14
  L 21.98 102.86
  A 18.14 18.14 0.0 0 0 40.12 121.00
  L 123.84 121.00
  A 18.14 18.14 0.0 0 0 141.98 102.86
  L 141.98 43.14"
/>
<path stroke="#f0b4a3" vector-effect="non-scaling-stroke" d="
  M 1206.00 43.72
  A 0.72 0.72 0.0 0 0 1205.28 43.00
  L 1146.72 43.00
  A 0.72 0.72 0.0 0 0 1146.00 43.72
  L 1146.00 102.28
  A 0.72 0.72 0.0 0 0 1146.72 103.00
  L 1205.28 103.00
  A 0.72 0.72 0.0 0 0 1206.00 102.28
  L 1206.00 43.72"
/>
<path stroke="#f0b4a3" vector-effect="non-scaling-stroke" d="
  M 1254.00 43.75
  A 0.74 0.74 0.0 0 0 1253.26 43.01
  L 1218.74 43.01
  A 0.74 0.74 0.0 0 0 1218.00 43.75
  L 1218.00 54.25
  A 0.74 0.74 0.0 0 0 1218.74 54.99
  L 1253.26 54.99
  A 0.74 0.74 0.0 0 0 1254.00 54.25
  L 1254.00 43.75"
/>
<path stroke="#b3b3b3" vector-effect="non-scaling-stroke" d="
  M 359.27 71.14
  Q 359.27 71.76 358.94 71.24
  Q 355.23 65.40 347.95 64.99
  C 329.53 63.95 324.56 85.70 329.96 98.91
  C 332.27 104.58 337.32 108.50 343.52 109.01
  Q 353.36 109.81 359.04 101.44
  Q 359.36 100.97 359.35 101.54
  L 359.24 106.73
  Q 359.21 108.00 360.48 108.00
  L 367.81 108.00
  Q 368.86 108.00 368.86 106.94
  L 368.86 46.22
  Q 368.86 46.01 368.65 46.01
  L 359.51 46.00
  Q 359.27 46.00 359.27 46.24
  L 359.27 71.14"
/>
<path stroke="#b3b3b3" vector-effect="non-scaling-stroke" d="
  M 392.0880 51.4295
  A 5.75 5.48 -1.5 0 0 386.1966 46.1019
  A 5.75 5.48 -1.5 0 0 380.5920 51.7305
  A 5.75 5.48 -1.5 0 0 386.4834 57.0581
  A 5.75 5.48 -1.5 0 0 392.0880 51.4295"
/>
<path stroke="#b3b3b3" vector-effect="non-scaling-stroke" d="
  M 263.59 60.12
  Q 263.17 66.29 263.16 71.99
  Q 263.14 88.32 263.15 107.61
  Q 263.15 108.00 263.53 108.00
  L 272.50 108.00
  Q 273.00 108.00 273.00 107.50
  L 273.00 49.63
  A 0.63 0.63 0.0 0 0 272.37 49.00
  L 260.24 49.00
  Q 259.64 49.00 259.41 49.56
  Q 251.49 69.23 243.39 89.38
  Q 242.44 91.74 241.70 94.31
  Q 241.53 94.93 241.29 94.33
  L 223.76 49.61
  Q 223.52 49.00 222.86 49.00
  L 210.33 49.00
  Q 209.67 49.00 209.67 49.67
  L 209.66 107.84
  Q 209.66 107.99 209.81 107.99
  L 218.53 108.00
  Q 218.81 108.00 218.81 107.72
  Q 219.01 83.32 218.62 59.58
  A 0.05 0.05 0.0 0 1 218.72 59.57
  Q 219.44 62.31 220.24 64.36
  Q 228.23 84.70 237.50 107.35
  Q 237.76 108.00 238.46 108.00
  L 243.74 108.00
  Q 244.54 108.00 244.83 107.26
  L 263.55 60.11
  Q 263.60 59.99 263.59 60.12"
/>
<path stroke="#b3b3b3" vector-effect="non-scaling-stroke" d="
  M 793.29 99.86
  A 0.43 0.43 0.0 0 1 792.86 99.43
  L 792.86 82.56
  A 0.43 0.43 0.0 0 1 793.29 82.13
  L 812.79 82.15
  A 0.43 0.43 0.0 0 0 813.22 81.72
  L 813.22 74.43
  A 0.43 0.43 0.0 0 0 812.79 74.00
  L 793.28 74.00
  A 0.43 0.43 0.0 0 1 792.85 73.57
  L 792.85 57.58
  A 0.43 0.43 0.0 0 1 793.28 57.15
  L 814.43 57.13
  A 0.43 0.43 0.0 0 0 814.86 56.70
  L 814.81 49.42
  A 0.43 0.43 0.0 0 0 814.38 48.99
  L 783.44 49.02
  A 0.43 0.43 0.0 0 0 783.01 49.45
  L 783.00 107.56
  A 0.43 0.43 0.0 0 0 783.43 107.99
  L 815.79 108.00
  A 0.43 0.43 0.0 0 0 816.22 107.57
  L 816.22 100.31
  A 0.43 0.43 0.0 0 0 815.79 99.88
  L 793.29 99.86"
/>
<path stroke="#b3b3b3" vector-effect="non-scaling-stroke" d="
  M 973.34 65.42
  L 973.37 54.17
  Q 973.37 53.96 973.16 54.02
  L 964.01 56.51
  Q 963.79 56.57 963.79 56.80
  L 963.79 65.48
  Q 963.79 65.99 963.27 65.99
  L 957.01 66.01
  Q 956.79 66.01 956.79 66.24
  L 956.79 73.23
  Q 956.79 73.43 956.98 73.43
  L 963.24 73.39
  Q 963.76 73.39 963.76 73.91
  Q 963.84 84.56 963.73 96.01
  C 963.66 103.41 966.26 108.40 974.45 109.00
  Q 979.15 109.34 983.06 107.81
  A 0.44 0.44 0.0 0 0 983.34 107.40
  L 983.38 100.48
  A 0.15 0.15 0.0 0 0 983.16 100.35
  C 979.09 102.50 973.43 101.71 973.39 95.80
  Q 973.32 84.25 973.36 73.80
  A 0.39 0.39 0.0 0 1 973.75 73.41
  L 983.00 73.41
  A 0.36 0.36 0.0 0 0 983.36 73.06
  L 983.37 66.33
  Q 983.37 66.00 983.03 66.00
  L 973.92 66.00
  Q 973.34 66.00 973.34 65.42"
/>
<path stroke="#b3b3b3" vector-effect="non-scaling-stroke" d="
  M 294.02 89.94
  L 321.25 89.93
  Q 321.80 89.93 321.83 89.39
  C 322.39 77.79 319.12 66.54 305.76 65.07
  C 294.67 63.85 285.61 71.68 283.83 82.53
  C 281.75 95.25 287.22 108.13 301.63 108.99
  Q 310.56 109.53 318.11 105.84
  A 0.66 0.64 -13.4 0 0 318.48 105.26
  L 318.58 98.33
  A 0.18 0.18 0.0 0 0 318.31 98.17
  C 313.07 101.27 307.27 102.69 301.31 101.05
  C 296.43 99.71 293.73 95.69 293.30 90.72
  Q 293.24 89.94 294.02 89.94"
/>
<path stroke="#b3b3b3" vector-effect="non-scaling-stroke" d="
  M 426.20 102.44
  L 426.13 106.81
  Q 426.12 108.00 427.31 108.00
  L 434.37 108.00
  Q 435.58 108.00 435.56 106.79
  Q 435.40 94.80 435.59 82.37
  C 435.72 73.72 433.14 66.81 423.88 65.33
  Q 413.97 63.76 404.43 68.72
  A 0.30 0.29 80.8 0 0 404.27 68.95
  Q 404.02 72.95 404.20 77.16
  A 0.04 0.04 0.0 0 0 404.27 77.19
  Q 410.33 72.09 417.82 72.09
  Q 425.83 72.08 426.31 80.30
  Q 426.35 81.02 425.63 81.11
  Q 417.44 82.08 411.33 83.30
  Q 400.07 85.55 400.04 97.01
  C 400.02 102.80 403.72 107.44 409.39 108.62
  Q 419.80 110.78 425.68 102.27
  Q 426.22 101.49 426.20 102.44"
/>
<path stroke="#b3b3b3" vector-effect="non-scaling-stroke" d="
  M 875.29 89.93
  L 902.56 89.90
  Q 903.18 89.90 903.19 89.28
  C 903.31 82.04 902.57 74.28 897.06 69.18
  C 891.34 63.89 881.43 63.73 874.98 67.66
  C 865.84 73.22 863.24 84.06 865.50 93.98
  C 869.31 110.69 886.29 111.74 899.48 105.90
  Q 899.63 105.84 899.65 105.68
  Q 900.00 103.28 899.83 98.15
  A 0.08 0.07 -17.4 0 0 899.71 98.09
  Q 893.55 101.94 886.66 101.73
  C 880.00 101.53 875.04 97.54 874.69 90.56
  Q 874.66 89.94 875.29 89.93"
/>
<path stroke="#b3b3b3" vector-effect="non-scaling-stroke" d="
  M 921.70 72.14
  L 921.75 67.00
  Q 921.76 66.00 920.75 66.00
  L 913.32 66.00
  Q 912.15 66.00 912.15 67.18
  L 912.15 107.45
  A 0.55 0.55 0.0 0 0 912.70 108.00
  L 921.04 108.00
  A 0.69 0.68 -0.0 0 0 921.73 107.32
  Q 921.73 95.73 921.73 83.97
  Q 921.73 77.79 926.12 74.37
  C 929.13 72.02 935.28 71.77 937.77 75.29
  Q 939.88 78.27 939.93 81.94
  Q 940.06 91.17 939.99 107.28
  Q 939.98 108.00 940.71 108.00
  L 948.97 108.00
  Q 949.52 108.00 949.52 107.45
  Q 949.51 94.13 949.52 81.36
  C 949.52 73.98 946.67 66.58 938.53 65.24
  Q 928.14 63.52 922.18 72.29
  Q 921.69 73.00 921.70 72.14"
/>
<path stroke="#b3b3b3" vector-effect="non-scaling-stroke" d="
  M 391.00 66.37
  A 0.37 0.37 0.0 0 0 390.63 66.00
  L 381.85 66.00
  A 0.37 0.37 0.0 0 0 381.48 66.37
  L 381.48 107.63
  A 0.37 0.37 0.0 0 0 381.85 108.00
  L 390.63 108.00
  A 0.37 0.37 0.0 0 0 391.00 107.63
  L 391.00 66.37"
/>
<path stroke="#b3b3b3" vector-effect="non-scaling-stroke" d="
  M 840.31 99.64
  Q 840.27 99.27 840.30 98.89
  Q 840.34 98.43 840.20 97.99
  L 830.15 66.28
  Q 830.06 65.99 829.75 65.99
  L 819.92 66.02
  A 0.16 0.16 0.0 0 0 819.77 66.24
  L 835.01 107.61
  A 0.61 0.60 79.3 0 0 835.57 108.00
  L 844.99 108.00
  A 0.75 0.74 10.1 0 0 845.69 107.52
  L 861.67 66.18
  Q 861.73 66.02 861.56 66.02
  L 851.90 65.99
  Q 851.64 65.99 851.56 66.24
  L 840.61 99.67
  Q 840.39 100.33 840.31 99.64"
/>
<path stroke="#f0b4a3" vector-effect="non-scaling-stroke" d="
  M 1253.99 67.74
  A 0.74 0.74 0.0 0 0 1253.25 67.00
  L 1218.73 67.00
  A 0.74 0.74 0.0 0 0 1217.99 67.74
  L 1217.99 78.26
  A 0.74 0.74 0.0 0 0 1218.73 79.00
  L 1253.25 79.00
  A 0.74 0.74 0.0 0 0 1253.99 78.26
  L 1253.99 67.74"
/>
<path stroke="#f0b4a3" vector-effect="non-scaling-stroke" d="
  M 1253.99 91.75
  A 0.75 0.75 0.0 0 0 1253.24 91.00
  L 1218.74 91.00
  A 0.75 0.75 0.0 0 0 1217.99 91.75
  L 1217.99 102.25
  A 0.75 0.75 0.0 0 0 1218.74 103.00
  L 1253.24 103.00
  A 0.75 0.75 0.0 0 0 1253.99 102.25
  L 1253.99 91.75"
/>
<path stroke="#f0b4a3" vector-effect="non-scaling-stroke" d="
  M 1254.00 115.72
  A 0.73 0.73 0.0 0 0 1253.27 114.99
  L 1146.73 114.99
  A 0.73 0.73 0.0 0 0 1146.00 115.72
  L 1146.00 126.26
  A 0.73 0.73 0.0 0 0 1146.73 126.99
  L 1253.27 126.99
  A 0.73 0.73 0.0 0 0 1254.00 126.26
  L 1254.00 115.72"
/>
<path stroke="#e1be8b" vector-effect="non-scaling-stroke" d="
  M 639.49 37.00
  A 7.49 7.49 0.0 0 0 632.00 29.51
  A 7.49 7.49 0.0 0 0 624.51 37.00
  A 7.49 7.49 0.0 0 0 632.00 44.49
  A 7.49 7.49 0.0 0 0 639.49 37.00"
/>
<path stroke="#e1be8b" vector-effect="non-scaling-stroke" d="
  M 687.49 37.00
  A 7.49 7.49 0.0 0 0 680.00 29.51
  A 7.49 7.49 0.0 0 0 672.51 37.00
  A 7.49 7.49 0.0 0 0 680.00 44.49
  A 7.49 7.49 0.0 0 0 687.49 37.00"
/>
<path stroke="#e1be8b" vector-effect="non-scaling-stroke" d="
  M 697.25 111.51
  Q 698.01 109.66 698.01 109.00
  Q 698.04 82.27 698.00 55.71
  A 0.72 0.71 -0.0 0 0 697.28 55.00
  L 614.51 55.00
  A 0.51 0.51 0.0 0 0 614.00 55.51
  Q 613.99 81.78 614.00 107.85
  Q 614.01 115.02 621.00 115.02
  Q 656.08 115.01 691.87 114.97
  Q 695.83 114.96 697.25 111.51"
/>
<path stroke="#9bc7f4" vector-effect="non-scaling-stroke" d="
  M 106.51 85.51
  L 127.68 106.62
  Q 128.41 107.36 128.93 106.46
  C 130.11 104.43 130.03 100.33 130.02 98.12
  Q 129.96 71.46 130.01 45.99
  C 130.02 41.20 129.12 37.01 123.88 37.00
  Q 81.08 36.97 41.02 37.01
  Q 34.05 37.02 34.03 43.53
  Q 33.97 63.25 33.99 83.95
  Q 33.99 85.00 34.73 84.26
  L 57.61 61.36
  A 0.54 0.54 0.0 0 1 58.38 61.37
  L 93.65 96.64
  A 0.56 0.55 -44.6 0 0 94.44 96.64
  L 105.53 85.51
  Q 106.02 85.02 106.51 85.51"
/>
<path stroke="#9bc7f4" vector-effect="non-scaling-stroke" d="
  M 117.94 61.01
  A 11.97 11.97 0.0 0 0 105.97 49.04
  A 11.97 11.97 0.0 0 0 94.00 61.01
  A 11.97 11.97 0.0 0 0 105.97 72.98
  A 11.97 11.97 0.0 0 0 117.94 61.01"
/>
<path stroke="#b3b3b3" vector-effect="non-scaling-stroke" d="
  M 359.30 81.85
  C 358.39 74.02 350.50 70.39 343.83 74.00
  C 337.88 77.22 337.13 85.92 338.20 92.02
  C 339.14 97.30 342.74 101.38 348.43 101.37
  C 359.33 101.35 360.26 90.03 359.30 81.85"
/>
<path stroke="#e1be8b" vector-effect="non-scaling-stroke" d="
  M 637.9907 67.6895
  A 0.70 0.70 0.0 0 0 637.2895 66.9908
  L 626.6895 67.0093
  A 0.70 0.70 0.0 0 0 625.9908 67.7105
  L 626.0093 78.3105
  A 0.70 0.70 0.0 0 0 626.7105 79.0092
  L 637.3105 78.9907
  A 0.70 0.70 0.0 0 0 638.0092 78.2895
  L 637.9907 67.6895"
/>
<path stroke="#e1be8b" vector-effect="non-scaling-stroke" d="
  M 661.9908 67.7195
  A 0.72 0.72 0.0 0 0 661.2695 67.0008
  L 650.7096 67.0192
  A 0.72 0.72 0.0 0 0 649.9908 67.7405
  L 650.0092 78.2805
  A 0.72 0.72 0.0 0 0 650.7305 78.9992
  L 661.2904 78.9808
  A 0.72 0.72 0.0 0 0 662.0092 78.2595
  L 661.9908 67.7195"
/>
<path stroke="#e1be8b" vector-effect="non-scaling-stroke" d="
  M 685.9816 67.7291
  A 0.74 0.74 0.0 0 0 685.2391 66.9917
  L 674.7191 67.0284
  A 0.74 0.74 0.0 0 0 673.9817 67.7710
  L 674.0184 78.2709
  A 0.74 0.74 0.0 0 0 674.7609 79.0083
  L 685.2809 78.9716
  A 0.74 0.74 0.0 0 0 686.0183 78.2290
  L 685.9816 67.7291"
/>
<path stroke="#e1be8b" vector-effect="non-scaling-stroke" d="
  M 637.9907 91.6795
  A 0.69 0.69 0.0 0 0 637.2995 90.9907
  L 626.6795 91.0093
  A 0.69 0.69 0.0 0 0 625.9907 91.7005
  L 626.0093 102.3205
  A 0.69 0.69 0.0 0 0 626.7005 103.0093
  L 637.3205 102.9907
  A 0.69 0.69 0.0 0 0 638.0093 102.2995
  L 637.9907 91.6795"
/>
<path stroke="#e1be8b" vector-effect="non-scaling-stroke" d="
  M 661.9816 91.7191
  A 0.73 0.73 0.0 0 0 661.2491 90.9916
  L 650.7091 91.0284
  A 0.73 0.73 0.0 0 0 649.9817 91.7610
  L 650.0184 102.2809
  A 0.73 0.73 0.0 0 0 650.7509 103.0084
  L 661.2909 102.9716
  A 0.73 0.73 0.0 0 0 662.0183 102.2390
  L 661.9816 91.7191"
/>
<path stroke="#e1be8b" vector-effect="non-scaling-stroke" d="
  M 685.9817 91.7591
  A 0.77 0.77 0.0 0 0 685.2091 90.9918
  L 674.7491 91.0283
  A 0.77 0.77 0.0 0 0 673.9818 91.8010
  L 674.0183 102.2409
  A 0.77 0.77 0.0 0 0 674.7909 103.0082
  L 685.2509 102.9717
  A 0.77 0.77 0.0 0 0 686.0182 102.1990
  L 685.9817 91.7591"
/>
<path stroke="#b3b3b3" vector-effect="non-scaling-stroke" d="
  M 293.92 83.07
  L 312.54 82.91
  A 0.21 0.21 0.0 0 0 312.75 82.70
  L 312.74 82.39
  A 10.46 9.45 89.5 0 0 303.20 72.01
  L 303.06 72.01
  A 10.46 9.45 89.5 0 0 293.70 82.55
  L 293.71 82.86
  A 0.21 0.21 0.0 0 0 293.92 83.07"
/>
<path stroke="#b3b3b3" vector-effect="non-scaling-stroke" d="
  M 416.67 101.82
  C 424.36 101.14 426.83 94.82 426.23 87.86
  Q 426.19 87.35 425.68 87.40
  Q 419.79 88.05 414.65 89.13
  C 405.98 90.95 408.16 102.57 416.67 101.82"
/>
<path stroke="#b3b3b3" vector-effect="non-scaling-stroke" d="
  M 875.29 83.05
  L 893.81 82.95
  A 0.26 0.26 0.0 0 0 894.07 82.69
  L 894.07 82.33
  A 10.36 9.49 89.7 0 0 884.52 72.02
  L 884.46 72.02
  A 10.36 9.49 89.7 0 0 875.03 82.43
  L 875.03 82.79
  A 0.26 0.26 0.0 0 0 875.29 83.05"
/>
</g>
<g fill="#ffffff">
<path d="
  M 0.00 0.00
  L 1273.00 0.00
  L 1273.00 147.00
  L 0.00 147.00
  L 0.00 0.00
  Z
  M 603.18 115.23
  C 605.86 122.69 612.89 127.03 620.83 127.01
  Q 653.82 126.92 688.97 127.05
  Q 695.19 127.07 698.57 125.73
  Q 705.61 122.92 708.64 115.81
  Q 710.13 112.29 710.09 103.54
  Q 709.89 58.54 710.04 19.76
  A 0.75 0.75 0.0 0 0 709.29 19.00
  L 602.52 19.00
  A 0.52 0.52 0.0 0 0 602.00 19.52
  Q 602.05 61.20 601.92 104.19
  Q 601.90 111.66 603.18 115.23
  Z
  M 1254.00 19.73
  A 0.73 0.73 0.0 0 0 1253.27 19.00
  L 1146.73 19.00
  A 0.73 0.73 0.0 0 0 1146.00 19.73
  L 1146.00 30.27
  A 0.73 0.73 0.0 0 0 1146.73 31.00
  L 1253.27 31.00
  A 0.73 0.73 0.0 0 0 1254.00 30.27
  L 1254.00 19.73
  Z
  M 141.98 43.14
  A 18.14 18.14 0.0 0 0 123.84 25.00
  L 40.12 25.00
  A 18.14 18.14 0.0 0 0 21.98 43.14
  L 21.98 102.86
  A 18.14 18.14 0.0 0 0 40.12 121.00
  L 123.84 121.00
  A 18.14 18.14 0.0 0 0 141.98 102.86
  L 141.98 43.14
  Z
  M 1206.00 43.72
  A 0.72 0.72 0.0 0 0 1205.28 43.00
  L 1146.72 43.00
  A 0.72 0.72 0.0 0 0 1146.00 43.72
  L 1146.00 102.28
  A 0.72 0.72 0.0 0 0 1146.72 103.00
  L 1205.28 103.00
  A 0.72 0.72 0.0 0 0 1206.00 102.28
  L 1206.00 43.72
  Z
  M 1254.00 43.75
  A 0.74 0.74 0.0 0 0 1253.26 43.01
  L 1218.74 43.01
  A 0.74 0.74 0.0 0 0 1218.00 43.75
  L 1218.00 54.25
  A 0.74 0.74 0.0 0 0 1218.74 54.99
  L 1253.26 54.99
  A 0.74 0.74 0.0 0 0 1254.00 54.25
  L 1254.00 43.75
  Z
  M 359.27 71.14
  Q 359.27 71.76 358.94 71.24
  Q 355.23 65.40 347.95 64.99
  C 329.53 63.95 324.56 85.70 329.96 98.91
  C 332.27 104.58 337.32 108.50 343.52 109.01
  Q 353.36 109.81 359.04 101.44
  Q 359.36 100.97 359.35 101.54
  L 359.24 106.73
  Q 359.21 108.00 360.48 108.00
  L 367.81 108.00
  Q 368.86 108.00 368.86 106.94
  L 368.86 46.22
  Q 368.86 46.01 368.65 46.01
  L 359.51 46.00
  Q 359.27 46.00 359.27 46.24
  L 359.27 71.14
  Z
  M 392.0880 51.4295
  A 5.75 5.48 -1.5 0 0 386.1966 46.1019
  A 5.75 5.48 -1.5 0 0 380.5920 51.7305
  A 5.75 5.48 -1.5 0 0 386.4834 57.0581
  A 5.75 5.48 -1.5 0 0 392.0880 51.4295
  Z
  M 263.59 60.12
  Q 263.17 66.29 263.16 71.99
  Q 263.14 88.32 263.15 107.61
  Q 263.15 108.00 263.53 108.00
  L 272.50 108.00
  Q 273.00 108.00 273.00 107.50
  L 273.00 49.63
  A 0.63 0.63 0.0 0 0 272.37 49.00
  L 260.24 49.00
  Q 259.64 49.00 259.41 49.56
  Q 251.49 69.23 243.39 89.38
  Q 242.44 91.74 241.70 94.31
  Q 241.53 94.93 241.29 94.33
  L 223.76 49.61
  Q 223.52 49.00 222.86 49.00
  L 210.33 49.00
  Q 209.67 49.00 209.67 49.67
  L 209.66 107.84
  Q 209.66 107.99 209.81 107.99
  L 218.53 108.00
  Q 218.81 108.00 218.81 107.72
  Q 219.01 83.32 218.62 59.58
  A 0.05 0.05 0.0 0 1 218.72 59.57
  Q 219.44 62.31 220.24 64.36
  Q 228.23 84.70 237.50 107.35
  Q 237.76 108.00 238.46 108.00
  L 243.74 108.00
  Q 244.54 108.00 244.83 107.26
  L 263.55 60.11
  Q 263.60 59.99 263.59 60.12
  Z
  M 793.29 99.86
  A 0.43 0.43 0.0 0 1 792.86 99.43
  L 792.86 82.56
  A 0.43 0.43 0.0 0 1 793.29 82.13
  L 812.79 82.15
  A 0.43 0.43 0.0 0 0 813.22 81.72
  L 813.22 74.43
  A 0.43 0.43 0.0 0 0 812.79 74.00
  L 793.28 74.00
  A 0.43 0.43 0.0 0 1 792.85 73.57
  L 792.85 57.58
  A 0.43 0.43 0.0 0 1 793.28 57.15
  L 814.43 57.13
  A 0.43 0.43 0.0 0 0 814.86 56.70
  L 814.81 49.42
  A 0.43 0.43 0.0 0 0 814.38 48.99
  L 783.44 49.02
  A 0.43 0.43 0.0 0 0 783.01 49.45
  L 783.00 107.56
  A 0.43 0.43 0.0 0 0 783.43 107.99
  L 815.79 108.00
  A 0.43 0.43 0.0 0 0 816.22 107.57
  L 816.22 100.31
  A 0.43 0.43 0.0 0 0 815.79 99.88
  L 793.29 99.86
  Z
  M 973.34 65.42
  L 973.37 54.17
  Q 973.37 53.96 973.16 54.02
  L 964.01 56.51
  Q 963.79 56.57 963.79 56.80
  L 963.79 65.48
  Q 963.79 65.99 963.27 65.99
  L 957.01 66.01
  Q 956.79 66.01 956.79 66.24
  L 956.79 73.23
  Q 956.79 73.43 956.98 73.43
  L 963.24 73.39
  Q 963.76 73.39 963.76 73.91
  Q 963.84 84.56 963.73 96.01
  C 963.66 103.41 966.26 108.40 974.45 109.00
  Q 979.15 109.34 983.06 107.81
  A 0.44 0.44 0.0 0 0 983.34 107.40
  L 983.38 100.48
  A 0.15 0.15 0.0 0 0 983.16 100.35
  C 979.09 102.50 973.43 101.71 973.39 95.80
  Q 973.32 84.25 973.36 73.80
  A 0.39 0.39 0.0 0 1 973.75 73.41
  L 983.00 73.41
  A 0.36 0.36 0.0 0 0 983.36 73.06
  L 983.37 66.33
  Q 983.37 66.00 983.03 66.00
  L 973.92 66.00
  Q 973.34 66.00 973.34 65.42
  Z
  M 294.02 89.94
  L 321.25 89.93
  Q 321.80 89.93 321.83 89.39
  C 322.39 77.79 319.12 66.54 305.76 65.07
  C 294.67 63.85 285.61 71.68 283.83 82.53
  C 281.75 95.25 287.22 108.13 301.63 108.99
  Q 310.56 109.53 318.11 105.84
  A 0.66 0.64 -13.4 0 0 318.48 105.26
  L 318.58 98.33
  A 0.18 0.18 0.0 0 0 318.31 98.17
  C 313.07 101.27 307.27 102.69 301.31 101.05
  C 296.43 99.71 293.73 95.69 293.30 90.72
  Q 293.24 89.94 294.02 89.94
  Z
  M 426.20 102.44
  L 426.13 106.81
  Q 426.12 108.00 427.31 108.00
  L 434.37 108.00
  Q 435.58 108.00 435.56 106.79
  Q 435.40 94.80 435.59 82.37
  C 435.72 73.72 433.14 66.81 423.88 65.33
  Q 413.97 63.76 404.43 68.72
  A 0.30 0.29 80.8 0 0 404.27 68.95
  Q 404.02 72.95 404.20 77.16
  A 0.04 0.04 0.0 0 0 404.27 77.19
  Q 410.33 72.09 417.82 72.09
  Q 425.83 72.08 426.31 80.30
  Q 426.35 81.02 425.63 81.11
  Q 417.44 82.08 411.33 83.30
  Q 400.07 85.55 400.04 97.01
  C 400.02 102.80 403.72 107.44 409.39 108.62
  Q 419.80 110.78 425.68 102.27
  Q 426.22 101.49 426.20 102.44
  Z
  M 875.29 89.93
  L 902.56 89.90
  Q 903.18 89.90 903.19 89.28
  C 903.31 82.04 902.57 74.28 897.06 69.18
  C 891.34 63.89 881.43 63.73 874.98 67.66
  C 865.84 73.22 863.24 84.06 865.50 93.98
  C 869.31 110.69 886.29 111.74 899.48 105.90
  Q 899.63 105.84 899.65 105.68
  Q 900.00 103.28 899.83 98.15
  A 0.08 0.07 -17.4 0 0 899.71 98.09
  Q 893.55 101.94 886.66 101.73
  C 880.00 101.53 875.04 97.54 874.69 90.56
  Q 874.66 89.94 875.29 89.93
  Z
  M 921.70 72.14
  L 921.75 67.00
  Q 921.76 66.00 920.75 66.00
  L 913.32 66.00
  Q 912.15 66.00 912.15 67.18
  L 912.15 107.45
  A 0.55 0.55 0.0 0 0 912.70 108.00
  L 921.04 108.00
  A 0.69 0.68 -0.0 0 0 921.73 107.32
  Q 921.73 95.73 921.73 83.97
  Q 921.73 77.79 926.12 74.37
  C 929.13 72.02 935.28 71.77 937.77 75.29
  Q 939.88 78.27 939.93 81.94
  Q 940.06 91.17 939.99 107.28
  Q 939.98 108.00 940.71 108.00
  L 948.97 108.00
  Q 949.52 108.00 949.52 107.45
  Q 949.51 94.13 949.52 81.36
  C 949.52 73.98 946.67 66.58 938.53 65.24
  Q 928.14 63.52 922.18 72.29
  Q 921.69 73.00 921.70 72.14
  Z
  M 391.00 66.37
  A 0.37 0.37 0.0 0 0 390.63 66.00
  L 381.85 66.00
  A 0.37 0.37 0.0 0 0 381.48 66.37
  L 381.48 107.63
  A 0.37 0.37 0.0 0 0 381.85 108.00
  L 390.63 108.00
  A 0.37 0.37 0.0 0 0 391.00 107.63
  L 391.00 66.37
  Z
  M 840.31 99.64
  Q 840.27 99.27 840.30 98.89
  Q 840.34 98.43 840.20 97.99
  L 830.15 66.28
  Q 830.06 65.99 829.75 65.99
  L 819.92 66.02
  A 0.16 0.16 0.0 0 0 819.77 66.24
  L 835.01 107.61
  A 0.61 0.60 79.3 0 0 835.57 108.00
  L 844.99 108.00
  A 0.75 0.74 10.1 0 0 845.69 107.52
  L 861.67 66.18
  Q 861.73 66.02 861.56 66.02
  L 851.90 65.99
  Q 851.64 65.99 851.56 66.24
  L 840.61 99.67
  Q 840.39 100.33 840.31 99.64
  Z
  M 1253.99 67.74
  A 0.74 0.74 0.0 0 0 1253.25 67.00
  L 1218.73 67.00
  A 0.74 0.74 0.0 0 0 1217.99 67.74
  L 1217.99 78.26
  A 0.74 0.74 0.0 0 0 1218.73 79.00
  L 1253.25 79.00
  A 0.74 0.74 0.0 0 0 1253.99 78.26
  L 1253.99 67.74
  Z
  M 1253.99 91.75
  A 0.75 0.75 0.0 0 0 1253.24 91.00
  L 1218.74 91.00
  A 0.75 0.75 0.0 0 0 1217.99 91.75
  L 1217.99 102.25
  A 0.75 0.75 0.0 0 0 1218.74 103.00
  L 1253.24 103.00
  A 0.75 0.75 0.0 0 0 1253.99 102.25
  L 1253.99 91.75
  Z
  M 1254.00 115.72
  A 0.73 0.73 0.0 0 0 1253.27 114.99
  L 1146.73 114.99
  A 0.73 0.73 0.0 0 0 1146.00 115.72
  L 1146.00 126.26
  A 0.73 0.73 0.0 0 0 1146.73 126.99
  L 1253.27 126.99
  A 0.73 0.73 0.0 0 0 1254.00 126.26
  L 1254.00 115.72
  Z"
/>
<path d="
  M 639.49 37.00
  A 7.49 7.49 0.0 0 1 632.00 44.49
  A 7.49 7.49 0.0 0 1 624.51 37.00
  A 7.49 7.49 0.0 0 1 632.00 29.51
  A 7.49 7.49 0.0 0 1 639.49 37.00
  Z"
/>
<path d="
  M 687.49 37.00
  A 7.49 7.49 0.0 0 1 680.00 44.49
  A 7.49 7.49 0.0 0 1 672.51 37.00
  A 7.49 7.49 0.0 0 1 680.00 29.51
  A 7.49 7.49 0.0 0 1 687.49 37.00
  Z"
/>
<path d="
  M 105.53 85.51
  L 94.44 96.64
  A 0.56 0.55 -44.6 0 1 93.65 96.64
  L 58.38 61.37
  A 0.54 0.54 0.0 0 0 57.61 61.36
  L 34.73 84.26
  Q 33.99 85.00 33.99 83.95
  Q 33.97 63.25 34.03 43.53
  Q 34.05 37.02 41.02 37.01
  Q 81.08 36.97 123.88 37.00
  C 129.12 37.01 130.02 41.20 130.01 45.99
  Q 129.96 71.46 130.02 98.12
  C 130.03 100.33 130.11 104.43 128.93 106.46
  Q 128.41 107.36 127.68 106.62
  L 106.51 85.51
  Q 106.02 85.02 105.53 85.51
  Z
  M 117.94 61.01
  A 11.97 11.97 0.0 0 0 105.97 49.04
  A 11.97 11.97 0.0 0 0 94.00 61.01
  A 11.97 11.97 0.0 0 0 105.97 72.98
  A 11.97 11.97 0.0 0 0 117.94 61.01
  Z"
/>
<path d="
  M 697.25 111.51
  Q 695.83 114.96 691.87 114.97
  Q 656.08 115.01 621.00 115.02
  Q 614.01 115.02 614.00 107.85
  Q 613.99 81.78 614.00 55.51
  A 0.51 0.51 0.0 0 1 614.51 55.00
  L 697.28 55.00
  A 0.72 0.71 -0.0 0 1 698.00 55.71
  Q 698.04 82.27 698.01 109.00
  Q 698.01 109.66 697.25 111.51
  Z
  M 637.9907 67.6895
  A 0.70 0.70 0.0 0 0 637.2895 66.9908
  L 626.6895 67.0093
  A 0.70 0.70 0.0 0 0 625.9908 67.7105
  L 626.0093 78.3105
  A 0.70 0.70 0.0 0 0 626.7105 79.0092
  L 637.3105 78.9907
  A 0.70 0.70 0.0 0 0 638.0092 78.2895
  L 637.9907 67.6895
  Z
  M 661.9908 67.7195
  A 0.72 0.72 0.0 0 0 661.2695 67.0008
  L 650.7096 67.0192
  A 0.72 0.72 0.0 0 0 649.9908 67.7405
  L 650.0092 78.2805
  A 0.72 0.72 0.0 0 0 650.7305 78.9992
  L 661.2904 78.9808
  A 0.72 0.72 0.0 0 0 662.0092 78.2595
  L 661.9908 67.7195
  Z
  M 685.9816 67.7291
  A 0.74 0.74 0.0 0 0 685.2391 66.9917
  L 674.7191 67.0284
  A 0.74 0.74 0.0 0 0 673.9817 67.7710
  L 674.0184 78.2709
  A 0.74 0.74 0.0 0 0 674.7609 79.0083
  L 685.2809 78.9716
  A 0.74 0.74 0.0 0 0 686.0183 78.2290
  L 685.9816 67.7291
  Z
  M 637.9907 91.6795
  A 0.69 0.69 0.0 0 0 637.2995 90.9907
  L 626.6795 91.0093
  A 0.69 0.69 0.0 0 0 625.9907 91.7005
  L 626.0093 102.3205
  A 0.69 0.69 0.0 0 0 626.7005 103.0093
  L 637.3205 102.9907
  A 0.69 0.69 0.0 0 0 638.0093 102.2995
  L 637.9907 91.6795
  Z
  M 661.9816 91.7191
  A 0.73 0.73 0.0 0 0 661.2491 90.9916
  L 650.7091 91.0284
  A 0.73 0.73 0.0 0 0 649.9817 91.7610
  L 650.0184 102.2809
  A 0.73 0.73 0.0 0 0 650.7509 103.0084
  L 661.2909 102.9716
  A 0.73 0.73 0.0 0 0 662.0183 102.2390
  L 661.9816 91.7191
  Z
  M 685.9817 91.7591
  A 0.77 0.77 0.0 0 0 685.2091 90.9918
  L 674.7491 91.0283
  A 0.77 0.77 0.0 0 0 673.9818 91.8010
  L 674.0183 102.2409
  A 0.77 0.77 0.0 0 0 674.7909 103.0082
  L 685.2509 102.9717
  A 0.77 0.77 0.0 0 0 686.0182 102.1990
  L 685.9817 91.7591
  Z"
/>
<path d="
  M 293.92 83.07
  A 0.21 0.21 0.0 0 1 293.71 82.86
  L 293.70 82.55
  A 10.46 9.45 89.5 0 1 303.06 72.01
  L 303.20 72.01
  A 10.46 9.45 89.5 0 1 312.74 82.39
  L 312.75 82.70
  A 0.21 0.21 0.0 0 1 312.54 82.91
  L 293.92 83.07
  Z"
/>
<path d="
  M 875.29 83.05
  A 0.26 0.26 0.0 0 1 875.03 82.79
  L 875.03 82.43
  A 10.36 9.49 89.7 0 1 884.46 72.02
  L 884.52 72.02
  A 10.36 9.49 89.7 0 1 894.07 82.33
  L 894.07 82.69
  A 0.26 0.26 0.0 0 1 893.81 82.95
  L 875.29 83.05
  Z"
/>
<path d="
  M 343.83 74.00
  C 350.50 70.39 358.39 74.02 359.30 81.85
  C 360.26 90.03 359.33 101.35 348.43 101.37
  C 342.74 101.38 339.14 97.30 338.20 92.02
  C 337.13 85.92 337.88 77.22 343.83 74.00
  Z"
/>
<path d="
  M 426.23 87.86
  C 426.83 94.82 424.36 101.14 416.67 101.82
  C 408.16 102.57 405.98 90.95 414.65 89.13
  Q 419.79 88.05 425.68 87.40
  Q 426.19 87.35 426.23 87.86
  Z"
/>
</g>
<g fill="#666666">
<path d="
  M 359.27 71.14
  L 359.27 46.24
  Q 359.27 46.00 359.51 46.00
  L 368.65 46.01
  Q 368.86 46.01 368.86 46.22
  L 368.86 106.94
  Q 368.86 108.00 367.81 108.00
  L 360.48 108.00
  Q 359.21 108.00 359.24 106.73
  L 359.35 101.54
  Q 359.36 100.97 359.04 101.44
  Q 353.36 109.81 343.52 109.01
  C 337.32 108.50 332.27 104.58 329.96 98.91
  C 324.56 85.70 329.53 63.95 347.95 64.99
  Q 355.23 65.40 358.94 71.24
  Q 359.27 71.76 359.27 71.14
  Z
  M 359.30 81.85
  C 358.39 74.02 350.50 70.39 343.83 74.00
  C 337.88 77.22 337.13 85.92 338.20 92.02
  C 339.14 97.30 342.74 101.38 348.43 101.37
  C 359.33 101.35 360.26 90.03 359.30 81.85
  Z"
/>
<path d="
  M 392.0880 51.4295
  A 5.75 5.48 -1.5 0 1 386.4834 57.0581
  A 5.75 5.48 -1.5 0 1 380.5920 51.7305
  A 5.75 5.48 -1.5 0 1 386.1966 46.1019
  A 5.75 5.48 -1.5 0 1 392.0880 51.4295
  Z"
/>
<path d="
  M 263.55 60.11
  L 244.83 107.26
  Q 244.54 108.00 243.74 108.00
  L 238.46 108.00
  Q 237.76 108.00 237.50 107.35
  Q 228.23 84.70 220.24 64.36
  Q 219.44 62.31 218.72 59.57
  A 0.05 0.05 0.0 0 0 218.62 59.58
  Q 219.01 83.32 218.81 107.72
  Q 218.81 108.00 218.53 108.00
  L 209.81 107.99
  Q 209.66 107.99 209.66 107.84
  L 209.67 49.67
  Q 209.67 49.00 210.33 49.00
  L 222.86 49.00
  Q 223.52 49.00 223.76 49.61
  L 241.29 94.33
  Q 241.53 94.93 241.70 94.31
  Q 242.44 91.74 243.39 89.38
  Q 251.49 69.23 259.41 49.56
  Q 259.64 49.00 260.24 49.00
  L 272.37 49.00
  A 0.63 0.63 0.0 0 1 273.00 49.63
  L 273.00 107.50
  Q 273.00 108.00 272.50 108.00
  L 263.53 108.00
  Q 263.15 108.00 263.15 107.61
  Q 263.14 88.32 263.16 71.99
  Q 263.17 66.29 263.59 60.12
  Q 263.60 59.99 263.55 60.11
  Z"
/>
<path d="
  M 793.29 99.86
  L 815.79 99.88
  A 0.43 0.43 0.0 0 1 816.22 100.31
  L 816.22 107.57
  A 0.43 0.43 0.0 0 1 815.79 108.00
  L 783.43 107.99
  A 0.43 0.43 0.0 0 1 783.00 107.56
  L 783.01 49.45
  A 0.43 0.43 0.0 0 1 783.44 49.02
  L 814.38 48.99
  A 0.43 0.43 0.0 0 1 814.81 49.42
  L 814.86 56.70
  A 0.43 0.43 0.0 0 1 814.43 57.13
  L 793.28 57.15
  A 0.43 0.43 0.0 0 0 792.85 57.58
  L 792.85 73.57
  A 0.43 0.43 0.0 0 0 793.28 74.00
  L 812.79 74.00
  A 0.43 0.43 0.0 0 1 813.22 74.43
  L 813.22 81.72
  A 0.43 0.43 0.0 0 1 812.79 82.15
  L 793.29 82.13
  A 0.43 0.43 0.0 0 0 792.86 82.56
  L 792.86 99.43
  A 0.43 0.43 0.0 0 0 793.29 99.86
  Z"
/>
<path d="
  M 973.92 66.00
  L 983.03 66.00
  Q 983.37 66.00 983.37 66.33
  L 983.36 73.06
  A 0.36 0.36 0.0 0 1 983.00 73.41
  L 973.75 73.41
  A 0.39 0.39 0.0 0 0 973.36 73.80
  Q 973.32 84.25 973.39 95.80
  C 973.43 101.71 979.09 102.50 983.16 100.35
  A 0.15 0.15 0.0 0 1 983.38 100.48
  L 983.34 107.40
  A 0.44 0.44 0.0 0 1 983.06 107.81
  Q 979.15 109.34 974.45 109.00
  C 966.26 108.40 963.66 103.41 963.73 96.01
  Q 963.84 84.56 963.76 73.91
  Q 963.76 73.39 963.24 73.39
  L 956.98 73.43
  Q 956.79 73.43 956.79 73.23
  L 956.79 66.24
  Q 956.79 66.01 957.01 66.01
  L 963.27 65.99
  Q 963.79 65.99 963.79 65.48
  L 963.79 56.80
  Q 963.79 56.57 964.01 56.51
  L 973.16 54.02
  Q 973.37 53.96 973.37 54.17
  L 973.34 65.42
  Q 973.34 66.00 973.92 66.00
  Z"
/>
<path d="
  M 293.30 90.72
  C 293.73 95.69 296.43 99.71 301.31 101.05
  C 307.27 102.69 313.07 101.27 318.31 98.17
  A 0.18 0.18 0.0 0 1 318.58 98.33
  L 318.48 105.26
  A 0.66 0.64 -13.4 0 1 318.11 105.84
  Q 310.56 109.53 301.63 108.99
  C 287.22 108.13 281.75 95.25 283.83 82.53
  C 285.61 71.68 294.67 63.85 305.76 65.07
  C 319.12 66.54 322.39 77.79 321.83 89.39
  Q 321.80 89.93 321.25 89.93
  L 294.02 89.94
  Q 293.24 89.94 293.30 90.72
  Z
  M 293.92 83.07
  L 312.54 82.91
  A 0.21 0.21 0.0 0 0 312.75 82.70
  L 312.74 82.39
  A 10.46 9.45 89.5 0 0 303.20 72.01
  L 303.06 72.01
  A 10.46 9.45 89.5 0 0 293.70 82.55
  L 293.71 82.86
  A 0.21 0.21 0.0 0 0 293.92 83.07
  Z"
/>
<path d="
  M 425.68 102.27
  Q 419.80 110.78 409.39 108.62
  C 403.72 107.44 400.02 102.80 400.04 97.01
  Q 400.07 85.55 411.33 83.30
  Q 417.44 82.08 425.63 81.11
  Q 426.35 81.02 426.31 80.30
  Q 425.83 72.08 417.82 72.09
  Q 410.33 72.09 404.27 77.19
  A 0.04 0.04 0.0 0 1 404.20 77.16
  Q 404.02 72.95 404.27 68.95
  A 0.30 0.29 80.8 0 1 404.43 68.72
  Q 413.97 63.76 423.88 65.33
  C 433.14 66.81 435.72 73.72 435.59 82.37
  Q 435.40 94.80 435.56 106.79
  Q 435.58 108.00 434.37 108.00
  L 427.31 108.00
  Q 426.12 108.00 426.13 106.81
  L 426.20 102.44
  Q 426.22 101.49 425.68 102.27
  Z
  M 416.67 101.82
  C 424.36 101.14 426.83 94.82 426.23 87.86
  Q 426.19 87.35 425.68 87.40
  Q 419.79 88.05 414.65 89.13
  C 405.98 90.95 408.16 102.57 416.67 101.82
  Z"
/>
<path d="
  M 874.69 90.56
  C 875.04 97.54 880.00 101.53 886.66 101.73
  Q 893.55 101.94 899.71 98.09
  A 0.08 0.07 -17.4 0 1 899.83 98.15
  Q 900.00 103.28 899.65 105.68
  Q 899.63 105.84 899.48 105.90
  C 886.29 111.74 869.31 110.69 865.50 93.98
  C 863.24 84.06 865.84 73.22 874.98 67.66
  C 881.43 63.73 891.34 63.89 897.06 69.18
  C 902.57 74.28 903.31 82.04 903.19 89.28
  Q 903.18 89.90 902.56 89.90
  L 875.29 89.93
  Q 874.66 89.94 874.69 90.56
  Z
  M 875.29 83.05
  L 893.81 82.95
  A 0.26 0.26 0.0 0 0 894.07 82.69
  L 894.07 82.33
  A 10.36 9.49 89.7 0 0 884.52 72.02
  L 884.46 72.02
  A 10.36 9.49 89.7 0 0 875.03 82.43
  L 875.03 82.79
  A 0.26 0.26 0.0 0 0 875.29 83.05
  Z"
/>
<path d="
  M 921.70 72.14
  Q 921.69 73.00 922.18 72.29
  Q 928.14 63.52 938.53 65.24
  C 946.67 66.58 949.52 73.98 949.52 81.36
  Q 949.51 94.13 949.52 107.45
  Q 949.52 108.00 948.97 108.00
  L 940.71 108.00
  Q 939.98 108.00 939.99 107.28
  Q 940.06 91.17 939.93 81.94
  Q 939.88 78.27 937.77 75.29
  C 935.28 71.77 929.13 72.02 926.12 74.37
  Q 921.73 77.79 921.73 83.97
  Q 921.73 95.73 921.73 107.32
  A 0.69 0.68 -0.0 0 1 921.04 108.00
  L 912.70 108.00
  A 0.55 0.55 0.0 0 1 912.15 107.45
  L 912.15 67.18
  Q 912.15 66.00 913.32 66.00
  L 920.75 66.00
  Q 921.76 66.00 921.75 67.00
  L 921.70 72.14
  Z"
/>
<path d="
  M 391.00 107.63
  A 0.37 0.37 0.0 0 1 390.63 108.00
  L 381.85 108.00
  A 0.37 0.37 0.0 0 1 381.48 107.63
  L 381.48 66.37
  A 0.37 0.37 0.0 0 1 381.85 66.00
  L 390.63 66.00
  A 0.37 0.37 0.0 0 1 391.00 66.37
  L 391.00 107.63
  Z"
/>
<path d="
  M 840.61 99.67
  L 851.56 66.24
  Q 851.64 65.99 851.90 65.99
  L 861.56 66.02
  Q 861.73 66.02 861.67 66.18
  L 845.69 107.52
  A 0.75 0.74 10.1 0 1 844.99 108.00
  L 835.57 108.00
  A 0.61 0.60 79.3 0 1 835.01 107.61
  L 819.77 66.24
  A 0.16 0.16 0.0 0 1 819.92 66.02
  L 829.75 65.99
  Q 830.06 65.99 830.15 66.28
  L 840.20 97.99
  Q 840.34 98.43 840.30 98.89
  Q 840.27 99.27 840.31 99.64
  Q 840.39 100.33 840.61 99.67
  Z"
/>
</g>
<g fill="#e06847">
<path d="
  M 1254.00 30.27
  A 0.73 0.73 0.0 0 1 1253.27 31.00
  L 1146.73 31.00
  A 0.73 0.73 0.0 0 1 1146.00 30.27
  L 1146.00 19.73
  A 0.73 0.73 0.0 0 1 1146.73 19.00
  L 1253.27 19.00
  A 0.73 0.73 0.0 0 1 1254.00 19.73
  L 1254.00 30.27
  Z"
/>
<path d="
  M 1206.00 102.28
  A 0.72 0.72 0.0 0 1 1205.28 103.00
  L 1146.72 103.00
  A 0.72 0.72 0.0 0 1 1146.00 102.28
  L 1146.00 43.72
  A 0.72 0.72 0.0 0 1 1146.72 43.00
  L 1205.28 43.00
  A 0.72 0.72 0.0 0 1 1206.00 43.72
  L 1206.00 102.28
  Z"
/>
<path d="
  M 1254.00 54.25
  A 0.74 0.74 0.0 0 1 1253.26 54.99
  L 1218.74 54.99
  A 0.74 0.74 0.0 0 1 1218.00 54.25
  L 1218.00 43.75
  A 0.74 0.74 0.0 0 1 1218.74 43.01
  L 1253.26 43.01
  A 0.74 0.74 0.0 0 1 1254.00 43.75
  L 1254.00 54.25
  Z"
/>
<path d="
  M 1253.99 78.26
  A 0.74 0.74 0.0 0 1 1253.25 79.00
  L 1218.73 79.00
  A 0.74 0.74 0.0 0 1 1217.99 78.26
  L 1217.99 67.74
  A 0.74 0.74 0.0 0 1 1218.73 67.00
  L 1253.25 67.00
  A 0.74 0.74 0.0 0 1 1253.99 67.74
  L 1253.99 78.26
  Z"
/>
<path d="
  M 1253.99 102.25
  A 0.75 0.75 0.0 0 1 1253.24 103.00
  L 1218.74 103.00
  A 0.75 0.75 0.0 0 1 1217.99 102.25
  L 1217.99 91.75
  A 0.75 0.75 0.0 0 1 1218.74 91.00
  L 1253.24 91.00
  A 0.75 0.75 0.0 0 1 1253.99 91.75
  L 1253.99 102.25
  Z"
/>
<path d="
  M 1254.00 126.26
  A 0.73 0.73 0.0 0 1 1253.27 126.99
  L 1146.73 126.99
  A 0.73 0.73 0.0 0 1 1146.00 126.26
  L 1146.00 115.72
  A 0.73 0.73 0.0 0 1 1146.73 114.99
  L 1253.27 114.99
  A 0.73 0.73 0.0 0 1 1254.00 115.72
  L 1254.00 126.26
  Z"
/>
</g>
<g fill="#378fe9">
<path d="
  M 141.98 102.86
  A 18.14 18.14 0.0 0 1 123.84 121.00
  L 40.12 121.00
  A 18.14 18.14 0.0 0 1 21.98 102.86
  L 21.98 43.14
  A 18.14 18.14 0.0 0 1 40.12 25.00
  L 123.84 25.00
  A 18.14 18.14 0.0 0 1 141.98 43.14
  L 141.98 102.86
  Z
  M 106.51 85.51
  L 127.68 106.62
  Q 128.41 107.36 128.93 106.46
  C 130.11 104.43 130.03 100.33 130.02 98.12
  Q 129.96 71.46 130.01 45.99
  C 130.02 41.20 129.12 37.01 123.88 37.00
  Q 81.08 36.97 41.02 37.01
  Q 34.05 37.02 34.03 43.53
  Q 33.97 63.25 33.99 83.95
  Q 33.99 85.00 34.73 84.26
  L 57.61 61.36
  A 0.54 0.54 0.0 0 1 58.38 61.37
  L 93.65 96.64
  A 0.56 0.55 -44.6 0 0 94.44 96.64
  L 105.53 85.51
  Q 106.02 85.02 106.51 85.51
  Z"
/>
<path d="
  M 117.94 61.01
  A 11.97 11.97 0.0 0 1 105.97 72.98
  A 11.97 11.97 0.0 0 1 94.00 61.01
  A 11.97 11.97 0.0 0 1 105.97 49.04
  A 11.97 11.97 0.0 0 1 117.94 61.01
  Z"
/>
</g>
<g fill="#c37d16">
<path d="
  M 620.83 127.01
  C 612.89 127.03 605.86 122.69 603.18 115.23
  Q 601.90 111.66 601.92 104.19
  Q 602.05 61.20 602.00 19.52
  A 0.52 0.52 0.0 0 1 602.52 19.00
  L 709.29 19.00
  A 0.75 0.75 0.0 0 1 710.04 19.76
  Q 709.89 58.54 710.09 103.54
  Q 710.13 112.29 708.64 115.81
  Q 705.61 122.92 698.57 125.73
  Q 695.19 127.07 688.97 127.05
  Q 653.82 126.92 620.83 127.01
  Z
  M 639.49 37.00
  A 7.49 7.49 0.0 0 0 632.00 29.51
  A 7.49 7.49 0.0 0 0 624.51 37.00
  A 7.49 7.49 0.0 0 0 632.00 44.49
  A 7.49 7.49 0.0 0 0 639.49 37.00
  Z
  M 687.49 37.00
  A 7.49 7.49 0.0 0 0 680.00 29.51
  A 7.49 7.49 0.0 0 0 672.51 37.00
  A 7.49 7.49 0.0 0 0 680.00 44.49
  A 7.49 7.49 0.0 0 0 687.49 37.00
  Z
  M 697.25 111.51
  Q 698.01 109.66 698.01 109.00
  Q 698.04 82.27 698.00 55.71
  A 0.72 0.71 -0.0 0 0 697.28 55.00
  L 614.51 55.00
  A 0.51 0.51 0.0 0 0 614.00 55.51
  Q 613.99 81.78 614.00 107.85
  Q 614.01 115.02 621.00 115.02
  Q 656.08 115.01 691.87 114.97
  Q 695.83 114.96 697.25 111.51
  Z"
/>
<path d="
  M 638.0092 78.2895
  A 0.70 0.70 0.0 0 1 637.3105 78.9907
  L 626.7105 79.0092
  A 0.70 0.70 0.0 0 1 626.0093 78.3105
  L 625.9908 67.7105
  A 0.70 0.70 0.0 0 1 626.6895 67.0093
  L 637.2895 66.9908
  A 0.70 0.70 0.0 0 1 637.9907 67.6895
  L 638.0092 78.2895
  Z"
/>
<path d="
  M 662.0092 78.2595
  A 0.72 0.72 0.0 0 1 661.2904 78.9808
  L 650.7305 78.9992
  A 0.72 0.72 0.0 0 1 650.0092 78.2805
  L 649.9908 67.7405
  A 0.72 0.72 0.0 0 1 650.7096 67.0192
  L 661.2695 67.0008
  A 0.72 0.72 0.0 0 1 661.9908 67.7195
  L 662.0092 78.2595
  Z"
/>
<path d="
  M 686.0183 78.2290
  A 0.74 0.74 0.0 0 1 685.2809 78.9716
  L 674.7609 79.0083
  A 0.74 0.74 0.0 0 1 674.0184 78.2709
  L 673.9817 67.7710
  A 0.74 0.74 0.0 0 1 674.7191 67.0284
  L 685.2391 66.9917
  A 0.74 0.74 0.0 0 1 685.9816 67.7291
  L 686.0183 78.2290
  Z"
/>
<path d="
  M 638.0093 102.2995
  A 0.69 0.69 0.0 0 1 637.3205 102.9907
  L 626.7005 103.0093
  A 0.69 0.69 0.0 0 1 626.0093 102.3205
  L 625.9907 91.7005
  A 0.69 0.69 0.0 0 1 626.6795 91.0093
  L 637.2995 90.9907
  A 0.69 0.69 0.0 0 1 637.9907 91.6795
  L 638.0093 102.2995
  Z"
/>
<path d="
  M 662.0183 102.2390
  A 0.73 0.73 0.0 0 1 661.2909 102.9716
  L 650.7509 103.0084
  A 0.73 0.73 0.0 0 1 650.0184 102.2809
  L 649.9817 91.7610
  A 0.73 0.73 0.0 0 1 650.7091 91.0284
  L 661.2491 90.9916
  A 0.73 0.73 0.0 0 1 661.9816 91.7191
  L 662.0183 102.2390
  Z"
/>
<path d="
  M 686.0182 102.1990
  A 0.77 0.77 0.0 0 1 685.2509 102.9717
  L 674.7909 103.0082
  A 0.77 0.77 0.0 0 1 674.0183 102.2409
  L 673.9818 91.8010
  A 0.77 0.77 0.0 0 1 674.7491 91.0283
  L 685.2091 90.9918
  A 0.77 0.77 0.0 0 1 685.9817 91.7591
  L 686.0182 102.1990
  Z"
/>
</g>
</svg>
