<?xml version="1.0" encoding="utf-8"?>
<!-- Generator: Adobe Illustrator 24.3.0, SVG Export Plug-In . SVG Version: 6.00 Build 0)  -->
<svg version="1.1" id="Layer_1" xmlns="http://www.w3.org/2000/svg" xmlns:xlink="http://www.w3.org/1999/xlink" x="0px" y="0px"
	 viewBox="0 0 1024 1024" style="enable-background:new 0 0 1024 1024;" xml:space="preserve">
<style type="text/css">
	.st0{fill:none;stroke:#849DA7;stroke-width:2;}
	.st1{fill:none;stroke:#7FC8F2;stroke-width:2;}
	.st2{fill:#FDFFFE;}
	.st3{fill:#0090E5;}
</style>
<g>
	<path vector-effect="non-scaling-stroke" class="st0" d="M691.1,400.3c0.1-31.7-25.6-57.5-57.3-57.5l-257.1-0.4
		c-31.7-0.1-57.5,25.6-57.5,57.3l-0.4,256.6c-0.1,31.7,25.6,57.5,57.3,57.5l257.1,0.4c31.7,0.1,57.5-25.6,57.5-57.3L691.1,400.3"/>
	<path vector-effect="non-scaling-stroke" class="st1" d="M674.3,403.4c0-24.5-19.9-44.3-44.4-44.3l0,0l-250.3,0.4
		c-24.5,0-44.3,19.9-44.3,44.4l0,0l0.4,249.5c0,24.5,19.9,44.3,44.4,44.3c0,0,0,0,0,0l250.3-0.4c24.5,0,44.3-19.9,44.3-44.4l0,0
		L674.3,403.4"/>
	<path vector-effect="non-scaling-stroke" class="st1" d="M379.5,586c-5.4,11.5-11.1,22.8-17.6,33.8c-0.2,0.4-0.1,0.8,0.3,1
		c21.6,12.8,44.2,20.6,67.7,23.3c13.9,1.6,27.1,0.9,39.6-2.1c20.2-4.8,37.7-17.8,45.8-36.9c6.7-15.9,7.3-34.5,2.3-50.5
		c-7.2-22.6-25.7-35.2-47.4-42.5c-8.7-2.9-17.6-5.8-26.6-8.7c-15.4-4.9-33.2-11.2-28.5-31.9c2.4-10.2,11.2-17.1,21.2-19.1
		c22.2-4.5,45,2.7,64.2,14.3c0.3,0.2,0.7,0.1,0.9-0.2c0,0,0-0.1,0-0.1c3.5-8.4,6.9-15.9,10.2-22.6c1.8-3.6,3.7-7.4,5.7-11.3
		c0.3-0.6,0.1-1.3-0.5-1.6c-24.7-13.5-50.3-19.2-77-17.4c-23.4,1.6-45.2,12.1-57.9,32.3c-12.9,20.5-12.4,47.8,0.8,67.7
		c8.8,13.3,22.2,21.4,37,26.6c7.1,2.5,15.6,5.3,25.4,8.4c9.3,2.9,17.6,5.6,24.1,10.4c11,8,13.9,23.1,6.6,34.7
		c-2.9,4.6-7.6,8.1-14,10.4c-11.2,4.1-25.4,3.5-37.3,0.7c-13-3.1-25.2-7.7-36.7-13.9c-2.8-1.5-5.4-3.2-7.7-5.1
		C380,585.5,379.7,585.6,379.5,586"/>
	<path vector-effect="non-scaling-stroke" class="st1" d="M576.3,604.9c-0.3-6.8-0.5-14.7-0.5-23.9c0-34.7,0-68.9,0-102.7
		c0-0.3-0.2-0.5-0.5-0.5l-36.6,0c-0.2,0-0.4,0.2-0.4,0.4l0,161.8c0,0.4,0.3,0.8,0.8,0.8l0,0l101.8,0.1c0.5,0,1-0.4,1-0.9l0,0l0-34.2
		c0-0.3-0.2-0.5-0.5-0.5l-64.2,0.3C576.6,605.6,576.3,605.4,576.3,604.9"/>
</g>
<g>
	<path class="st2" d="M243.5,238.5l5.4,4.5c0.3,0.3,0.4,0.8,0.2,1.2c-0.6,1.1-1.6,2-3,2.6c-4,2-7.8,3.6-11.3,6.6
		c-8.2,7-10.4,15.2-10.8,25.6c0,0.4-0.4,0.7-0.8,0.7c-0.1,0-0.1,0-0.2,0l-6.5-2.1c0.1-11.9,4.1-21.7,12-29.6
		c3.8-3.9,9.1-6.8,14.1-9.4C242.9,238.5,243.1,238.5,243.5,238.5z"/>
	<path class="st2" d="M732.7,241.4c0.2,0,0.3,0.1,0.4,0.1c0.3,0.1,0.4,0.2,0.6,0.5l2.3,4.6c0.5,1.1,0.2,2.3-0.8,2.9
		c-4.4,2.7-7.9,6.2-10.5,10.5c-0.2,0.3-0.6,0.5-0.9,0.3l-7-3.1C720.1,251,726.2,244.5,732.7,241.4z"/>
	<path class="st2" d="M749.7,301.2c-13.3-1.5-22.9-13.7-21.4-27.4c1.5-13.7,13.5-23.5,26.9-22.1l0,0c13.3,1.5,22.9,13.7,21.4,27.4
		C775,292.8,763,302.7,749.7,301.2C749.7,301.2,749.7,301.2,749.7,301.2z M750.7,294.2c9.6,0.8,18-6.4,18.9-16.2c0,0,0,0,0,0
		c0.9-9.8-6.2-18.4-15.8-19.2l0,0c-9.6-0.8-18,6.4-18.9,16.2c0,0,0,0,0,0C734.1,284.8,741.1,293.4,750.7,294.2
		C750.7,294.2,750.7,294.2,750.7,294.2z"/>
	<path class="st2" d="M246,275.6c-1.1,0-1.9-0.9-1.9-1.9V271c0-8,5.8-14.5,13-14.5h0.3c7.2,0,13,6.5,13,14.5v2.7
		c0,1.1-0.9,1.9-1.9,1.9H246z"/>
	<path class="st2" d="M759.3,286.1c-3.6,0-7.3,0.8-10.8,0.6c-0.5,0-0.9-0.4-0.9-0.9l-0.3-17.6c0-1,0.5-1.5,1.5-1.5l3,0.1
		c0.9,0,1.3,0.5,1.4,1.3l0.6,11.1c0,0.7,0.5,1.2,1.1,1.4c0.8,0.2,1.5,0.4,2.3,0.6c2,0.4,2.9,2.5,2.8,4.3
		C760,285.8,759.7,286.1,759.3,286.1z"/>
	<path class="st2" d="M268.7,281.5c0.5,0,0.8,0.4,0.8,0.8v0v0.1c0,8-5.4,14.5-12,14.5h-0.1c-6.6,0-12-6.5-12-14.5c0,0,0,0,0,0v-0.1
		c0-0.5,0.4-0.8,0.8-0.8L268.7,281.5z"/>
	<path class="st2" d="M690.6,656.9c-0.1,31.7-25.8,57.4-57.5,57.3l-257.1-0.4c-31.7-0.1-57.4-25.8-57.3-57.5l0.4-256.6
		c0.1-31.7,25.8-57.4,57.5-57.3l257.1,0.4c31.7,0.1,57.4,25.8,57.3,57.5L690.6,656.9z M674.3,403.4c0-24.5-19.9-44.3-44.4-44.3l0,0
		l-250.3,0.4c-24.5,0-44.3,19.9-44.3,44.4l0,0l0.4,249.5c0,24.5,19.9,44.3,44.4,44.3c0,0,0,0,0,0l250.3-0.4
		c24.5,0,44.3-19.9,44.3-44.4l0,0L674.3,403.4z"/>
	<path class="st2" d="M361.9,619.8c6.4-11,12.2-22.3,17.6-33.8c0.2-0.4,0.5-0.5,0.8-0.2c2.3,1.9,4.9,3.6,7.7,5.1
		c11.4,6.2,23.7,10.9,36.7,13.9c11.9,2.8,26,3.4,37.3-0.7c6.4-2.3,11-5.8,14-10.4c7.3-11.6,4.5-26.7-6.6-34.7
		c-6.5-4.8-14.9-7.4-24.1-10.4c-9.8-3.1-18.3-5.9-25.4-8.4c-14.8-5.2-28.1-13.3-37-26.6c-13.2-19.9-13.7-47.2-0.8-67.7
		c12.7-20.2,34.5-30.6,57.9-32.3c26.6-1.9,52.3,3.9,77,17.4c0.6,0.3,0.8,1,0.5,1.6c-2,3.9-3.9,7.6-5.7,11.3
		c-3.3,6.7-6.7,14.2-10.2,22.6c-0.1,0.3-0.5,0.5-0.8,0.3c0,0-0.1,0-0.1,0c-19.2-11.6-42-18.9-64.2-14.3c-10,2.1-18.9,8.9-21.2,19.1
		c-4.8,20.7,13.1,27,28.5,31.9c9,2.9,17.9,5.8,26.6,8.7c21.7,7.3,40.3,19.8,47.4,42.5c5,15.9,4.4,34.5-2.3,50.5
		c-8,19.1-25.6,32.1-45.8,36.9c-12.5,3-25.7,3.7-39.6,2.1c-23.5-2.7-46.1-10.4-67.7-23.3C361.8,620.6,361.7,620.1,361.9,619.8z"/>
	<path class="st2" d="M577,593.7l64.2-0.4c0.3,0,0.5,0.3,0.5,0.6l0,45.7c0,0.7-0.4,1.3-1,1.3l0,0L539,640.7c-0.4,0-0.8-0.5-0.8-1
		l0,0l0-216.4c0-0.3,0.2-0.5,0.4-0.5l36.6-0.1c0.3,0,0.5,0.3,0.5,0.7c0,45.2,0.1,91,0,137.3c0,12.2,0.1,22.9,0.5,31.9
		c0,0.1,0,0.2,0,0.2C576.4,593.5,576.6,593.7,577,593.7z"/>
	<path class="st2" d="M235,526.3l-0.7,1.1c-0.7,1-0.3,1.5,1.1,1.5l9.9-0.1c0.4,0,0.6,0.2,0.6,0.5l0,2.8c0,0.3-0.2,0.4-0.5,0.4
		c-6.3,0.1-12.7-0.1-19.2-0.6c-0.6,0-1.1-0.4-1.2-1c-0.5-2.5,2.7-3.3,4.6-4.5c0.4-0.3,0.5-0.7,0.2-1.1c0,0,0,0,0,0l-6-6
		c-0.3-0.2-0.3-0.5-0.1-0.8c1.5-2.4,4.1-5.8,7.6-6.5c5.5-1,7.8,1.7,11.4,4.3c0.2,0.1,0.4,0.2,0.6,0.2l2,0c0.4,0,0.6,0.2,0.6,0.5
		c0.4,2.3,0.4,4.6,0.2,6.7c0,0.4-0.3,0.6-0.8,0.7l-7.1,0.3C236.8,524.7,235.7,525.3,235,526.3z M229.8,517.7c-2,3.2,0,5.4,2.4,7.3
		c0.7,0.6,1.7,0.5,2.4-0.2c1.5-1.6,2.3-3.4,2.2-5.4C236.7,515,232,514.3,229.8,517.7z"/>
	<path class="st2" d="M235.7,742.8c0.7,1.9,1.9,4,3.5,6.5c1,1.6,0.7,2.7-0.9,3.4c-1.4,0.6-2.9,1.5-4.4,2.5c-1,0.7-1.5,1.5-1.6,2.4
		c-0.1,0.4-0.3,0.5-0.6,0.3c-2.4-1.8-4.4-4-6-6.6C228.5,747.9,231.9,745.1,235.7,742.8z"/>
	<path class="st2" d="M258.7,758.7c4.5,2.2,9.2,3.6,14,4.3c0.7,0.1,1.2,0.8,1.1,1.5c-0.2,1.7-0.3,3.4-0.1,5.1
		c0.2,2.4,1.5,3.9,2.7,5.9c2.9,4.7-3.4,14.2-6.1,18.1c-0.2,0.3-0.6,0.5-0.9,0.6l-7.6,1c-0.4,0-0.7,0.2-0.9,0.4
		c-0.6,0.6-1,1.3-1.3,2.2c-0.9,2.5-3.7,2.3-4.9,0.1c-1.6-3-4.4-4.1-8.5-3.5c-0.4,0.1-0.7,0-1-0.3c-6.1-5.1-7.5-10.9-7.9-18.2
		c0-0.6,0.2-1.2,0.6-1.6c1.8-1.9,4.7-4.7,2.4-7.4c-0.3-0.3-0.4-0.7-0.3-1.2c0.3-1.6,1.3-2.7,3-3.3c0.3-0.1,0.6-0.1,0.8,0
		c3.1,1.3,8.4-2.1,10.4-3.8C255.4,758.2,257,758.2,258.7,758.7z M268.9,773.5c-3.5-8.4-8.4-9.2-16.8-7.3c-1.6,0.4-3.1,1.4-4.4,3.2
		c-3.5,4.4-5.5,11.3-1.7,15.9c4.7,5.7,10.7,5.8,17.4,4c2.1-0.6,3.8-2.8,5.1-4.5C270.6,781.8,270.8,778,268.9,773.5z"/>
	<path class="st2" d="M733.5,760.2l0.9,4.4c0.1,0.3,0,0.6-0.3,0.9c-1.4,1.2-4.1,3.4-6.1,1.5c-2.3-1.4-2.9-3.2-1.6-5.3
		C728.2,758.8,730.6,758.3,733.5,760.2z"/>
	<path class="st2" d="M775,767.4c-2.6,0-5.1-0.6-7.2-1.8c-0.3-0.2-0.5-0.5-0.4-0.8l0.9-4.4c1.5-1.3,3.1-1.5,4.6-0.8
		c1.2,0.6,1.9,1.7,2.1,3.3C775.3,764.4,775.3,765.9,775,767.4z"/>
	<path class="st2" d="M759.9,779.8c1.5-3.6-1.6-6.5-4.1-8.7c-1.9-1.7-4.8-1.2-7.1-1.6c-0.9-0.2-1.9,0.3-2.3,1.1
		c-1.5,2.6-2.8,5.3-3.7,8c-0.3,0.8-0.2,1.6,0.1,2.3c0.9,1.9,1.8,3.7,2.7,5.5c2,3.8,7.4,2.6,9.9,0
		C757.6,783.9,759.2,781.7,759.9,779.8z"/>
	<path class="st2" d="M263.2,773.7c2.5,2.9,2.2,7.4-0.7,9.9l-1.2,1c-2.9,2.5-7.4,2.2-9.9-0.7l-0.8-0.9c-2.5-2.9-2.2-7.4,0.7-9.9
		l1.2-1c2.9-2.5,7.4-2.2,9.9,0.7L263.2,773.7z"/>
	<path class="st2" d="M752.1,781c-2-0.1-3.7-2.1-3.6-4.5l0,0c0.1-2.5,1.8-4.4,3.8-4.3c0,0,0,0,0,0c2,0.1,3.7,2.1,3.6,4.5
		c0,0,0,0,0,0C755.9,779.1,754.2,781.1,752.1,781C752.1,781,752.1,781,752.1,781z"/>
	<path class="st2" d="M504.3,784.8c-4.2,2.7-7,6.5-10.9,9.4c-3.3,2.6-6.7,5.6-10,9c-0.9,0.9-1.8,0.9-2.7,0.1l-2-1.8
		c-1.1-1-1.1-2,0-3c5.8-5.1,11.7-10.3,17.6-15.6c5.3-4.7,10.2-7.8,16.7-2.2c5.7,4.9,11.5,9.8,17.6,14.8c1.4,1.2,1.6,2.6,0.5,4.1
		c-0.4,0.6-0.8,1.2-1.1,1.8c-0.8,1.5-1.8,1.7-3.1,0.5c-4.8-4.5-9.8-9.2-15-14c-1.9-1.8-3.7-2.9-5.4-3.4
		C505.8,784.2,505.1,784.3,504.3,784.8z"/>
	<path class="st2" d="M728,791.4c3.7-0.3,5,1.4,7.6,2.9c0.3,0.2,0.3,0.4,0.1,0.6c-1.1,1.3-1.8,2.8-2,4.4c-1,0.8-2.3,1-4,0.5
		c-2.6-0.7-3.7-2.6-3.3-5.6C726.7,792.8,727.2,791.9,728,791.4z"/>
	<path class="st2" d="M774.6,793.2c0.3,1.8,0.2,3.5-0.5,5.2c-0.1,0.3-0.3,0.6-0.6,0.7c-2,1.2-3.6,1-5-0.6c-2-2.1-2.6-3.9-1.8-5.6
		c0.4-0.7,1-1.1,1.8-1.1C770.9,791.9,772.5,791.8,774.6,793.2z"/>
	<path class="st2" d="M501.6,801.2c3.9,2.2,7.7-1.5,9.9-4.5c0.4-0.5,1.2-0.7,1.7-0.3c0,0,0.1,0,0.1,0.1l13.8,12.3
		c1.6,1.4,1.6,2.8-0.2,4.1l-0.7,0.5c-1.7,1.3-3.1,1.1-4.4-0.6c-2.3-3-5.2-5.7-8.7-8.3c-0.7-0.5-1.4-0.5-2,0.2
		c-1.4,1.4-2.8,2.8-4.2,4.2c-2.6,2.7-6.3-1.1-8.2-2.9c-0.6-0.6-1.6-0.6-2.2,0l-4.7,4.2c-1.1,1-2.3,1-3.4,0.1l-0.3-0.3
		c-1.3-1.1-1.4-2.3-0.5-3.6c2.7-3.7,6.5-5.1,9.4-8.4c0.1-0.1,0.3-0.2,0.5,0c0,0,0,0,0,0C498.7,799.3,500.1,800.4,501.6,801.2z"/>
	<path class="st2" d="M506.5,815.5c1.3-1.2,2.8-2.3,4.6-3.2c0.6-0.3,1.3-0.1,1.6,0.4c0,0,0,0.1,0,0.1c2.1,4.6-3.9,8.2-6.6,11
		c-0.5,0.6-1.1,0.6-1.7,0.1c-2.4-2-4.6-4.1-6.6-6.1c-1-1-1.2-2.7-0.4-3.9c0.4-0.6,1.3-0.7,2.8-0.3c0.3,0.1,0.7,0.3,0.9,0.5
		c1.1,1,2.3,1.7,3.6,2C505.4,816.1,506,815.9,506.5,815.5z"/>
</g>
<g>
	<path class="st3" d="M674.7,652.9c0,24.5-19.8,44.4-44.3,44.4l0,0l-250.3,0.4c-24.5,0-44.4-19.8-44.4-44.3v0L335.2,404
		c0-24.5,19.8-44.4,44.3-44.4l0,0l250.3-0.4c24.5,0,44.4,19.8,44.4,44.3l0,0L674.7,652.9z M379.5,586c-5.4,11.5-11.1,22.8-17.6,33.8
		c-0.2,0.4-0.1,0.8,0.3,1c21.6,12.8,44.2,20.6,67.7,23.3c13.9,1.6,27.1,0.9,39.6-2.1c20.2-4.8,37.7-17.8,45.8-36.9
		c6.7-15.9,7.3-34.5,2.3-50.5c-7.2-22.6-25.7-35.2-47.4-42.5c-8.7-2.9-17.6-5.8-26.6-8.7c-15.4-4.9-33.2-11.2-28.5-31.9
		c2.4-10.2,11.2-17.1,21.2-19.1c22.2-4.5,45,2.7,64.2,14.3c0.3,0.2,0.7,0.1,0.9-0.2c0,0,0-0.1,0-0.1c3.5-8.4,6.9-15.9,10.2-22.6
		c1.8-3.6,3.7-7.4,5.7-11.3c0.3-0.6,0.1-1.3-0.5-1.6c-24.7-13.5-50.3-19.2-77-17.4c-23.4,1.6-45.2,12.1-57.9,32.3
		c-12.9,20.5-12.4,47.8,0.8,67.7c8.8,13.3,22.2,21.4,37,26.6c7.1,2.5,15.6,5.3,25.4,8.4c9.3,2.9,17.6,5.6,24.1,10.4
		c11,8,13.9,23.1,6.6,34.7c-2.9,4.6-7.6,8.1-14,10.4c-11.2,4.1-25.4,3.5-37.3,0.7c-13-3.1-25.2-7.7-36.7-13.9
		c-2.8-1.5-5.4-3.2-7.7-5.1C380,585.5,379.7,585.6,379.5,586z M576.3,591.6c-0.3-9.2-0.5-20-0.5-32.4c0-47,0-93.3,0-139.1
		c0-0.4-0.2-0.7-0.5-0.7l-36.6,0.1c-0.2,0-0.4,0.2-0.4,0.5l0,219.2c0,0.6,0.3,1,0.8,1l101.8,0.1c0.5,0,1-0.6,1-1.3l0-46.3
		c0-0.4-0.2-0.7-0.5-0.7l-64.2,0.4C576.6,592.5,576.3,592.2,576.3,591.6z M142,488.7"/>
</g>
<path class="st3" d="M576.3,593.7l0,2.4c0,4.8,3.9,8.6,8.7,8.6l48.8-0.5c4.7,0,8.6-3.9,8.5-8.7l0,0c0-4.7-3.9-8.6-8.7-8.5l-57.3,0.6
	"/>
</svg>
