<?xml version="1.0" encoding="UTF-8" standalone="no"?>
<!DOCTYPE svg PUBLIC "-//W3C//DTD SVG 1.1//EN" "http://www.w3.org/Graphics/SVG/1.1/DTD/svg11.dtd">
<svg xmlns="http://www.w3.org/2000/svg" version="1.1" viewBox="0.00 0.00 1483.00 201.00">
<g stroke-width="2.00" fill="none" stroke-linecap="butt">
<path stroke="#b3b3b3" vector-effect="non-scaling-stroke" d="
  M 970.59 38.71
  A 0.20 0.20 0.0 0 1 970.42 39.02
  Q 946.35 38.96 923.39 39.02
  C 912.97 39.04 905.08 46.84 905.06 57.28
  Q 904.98 86.58 905.01 116.55
  A 0.45 0.45 0.0 0 0 905.46 117.00
  L 916.46 117.00
  Q 917.00 117.00 917.00 116.46
  Q 917.01 91.34 916.99 57.46
  C 916.99 52.98 919.75 50.99 923.89 50.99
  Q 951.53 50.97 970.22 51.05
  A 0.28 0.28 0.0 0 1 970.45 51.49
  L 959.29 68.54
  A 0.30 0.29 -73.1 0 0 959.53 69.00
  L 972.71 69.00
  A 0.96 0.95 16.3 0 0 973.51 68.57
  L 988.68 45.47
  Q 989.00 45.00 988.69 44.53
  L 974.23 22.52
  A 1.18 1.16 72.8 0 0 973.26 22.00
  L 960.38 22.00
  A 0.40 0.40 0.0 0 0 960.05 22.62
  L 970.59 38.71"
/>
<path stroke="#b3b3b3" vector-effect="non-scaling-stroke" d="
  M 63.66 74.97
  Q 50.80 75.10 38.78 74.92
  C 32.89 74.83 27.86 76.05 24.89 81.20
  C 21.49 87.08 22.90 93.42 28.05 97.84
  Q 28.56 98.28 28.04 98.71
  C 20.48 104.89 21.59 115.53 30.05 120.41
  Q 30.55 120.70 30.32 121.23
  Q 26.47 130.41 34.04 136.79
  Q 36.67 139.01 40.33 139.28
  Q 40.97 139.32 40.99 139.97
  Q 41.24 148.12 48.21 151.72
  Q 51.04 153.18 58.70 153.08
  Q 76.37 152.83 93.46 153.05
  C 103.55 153.19 112.00 152.00 120.65 147.67
  Q 121.97 147.01 123.50 147.00
  Q 129.94 147.00 136.54 147.00
  A 0.46 0.46 0.0 0 0 137.00 146.54
  L 137.00 87.75
  Q 137.00 87.00 136.25 87.00
  L 128.29 87.00
  A 1.06 1.06 0.0 0 1 127.54 86.69
  Q 115.89 74.98 104.82 63.96
  Q 102.12 61.28 99.81 58.13
  C 95.79 52.65 93.68 46.13 91.67 39.62
  C 86.04 21.41 60.62 23.69 59.14 42.43
  Q 58.51 50.37 59.77 58.97
  C 60.52 64.15 62.47 69.30 64.16 74.26
  Q 64.40 74.96 63.66 74.97"
/>
<path stroke="#b3b3b3" vector-effect="non-scaling-stroke" d="
  M 1420.25 69.98
  L 1383.79 118.53
  Q 1383.44 119.00 1383.73 119.51
  L 1408.62 164.34
  Q 1409.00 165.02 1409.25 164.28
  L 1450.83 39.51
  A 0.27 0.27 0.0 0 0 1450.49 39.17
  L 1325.53 80.83
  A 0.24 0.23 -39.8 0 0 1325.49 81.26
  L 1370.48 106.23
  Q 1370.95 106.50 1371.38 106.17
  L 1420.00 69.74
  Q 1421.00 68.99 1420.25 69.98"
/>
<path stroke="#b3b3b3" vector-effect="non-scaling-stroke" d="
  M 521.00 129.69
  L 521.00 152.44
  A 0.34 0.34 0.0 0 0 521.53 152.72
  Q 540.28 140.13 562.96 125.46
  Q 572.52 119.28 576.44 114.82
  C 600.27 87.68 580.90 45.05 544.75 45.01
  Q 521.48 44.99 496.75 45.12
  Q 485.99 45.18 477.19 49.93
  C 447.78 65.85 447.78 107.49 476.57 123.68
  Q 485.88 128.91 496.50 128.96
  Q 509.63 129.03 520.30 129.00
  Q 521.00 128.99 521.00 129.69"
/>
<path stroke="#b3b3b3" vector-effect="non-scaling-stroke" d="
  M 947.40 134.71
  L 958.72 117.46
  A 0.29 0.29 0.0 0 0 958.47 117.01
  L 945.50 117.00
  Q 944.77 116.99 944.38 117.60
  L 929.32 140.51
  Q 929.00 141.00 929.32 141.48
  L 944.54 164.65
  Q 944.77 165.00 945.20 165.00
  L 958.56 165.00
  A 0.24 0.24 0.0 0 0 958.76 164.63
  L 947.43 147.31
  A 0.19 0.19 0.0 0 1 947.59 147.01
  Q 973.21 146.99 994.75 146.89
  Q 1003.13 146.86 1008.18 141.18
  Q 1012.96 135.82 1012.97 128.68
  Q 1013.03 101.16 1012.98 69.80
  Q 1012.98 69.00 1012.19 69.00
  L 1001.71 69.00
  A 0.72 0.72 0.0 0 0 1000.99 69.72
  Q 1001.07 97.87 1000.99 128.53
  C 1000.98 132.04 998.71 134.96 994.87 134.97
  Q 971.73 135.04 947.56 134.99
  A 0.19 0.18 16.0 0 1 947.40 134.71"
/>
<path stroke="#b3b3b3" vector-effect="non-scaling-stroke" d="
  M 80.53 87.00
  L 38.43 87.00
  A 2.96 2.95 73.1 0 0 35.98 91.60
  L 40.27 98.02
  A 0.92 0.91 44.7 0 1 40.28 99.02
  Q 38.37 101.95 36.67 104.97
  C 33.85 109.98 38.03 113.67 41.59 116.46
  A 0.99 0.97 24.7 0 1 41.95 117.41
  C 41.24 121.30 39.66 125.80 43.78 128.40
  Q 46.14 129.89 49.12 131.11
  A 1.54 1.52 4.7 0 1 50.04 132.18
  C 51.03 136.36 52.00 140.97 57.47 140.99
  Q 78.49 141.07 99.58 140.92
  Q 107.80 140.86 116.18 136.35
  C 118.96 134.86 121.37 134.81 124.34 135.06
  Q 125.01 135.12 125.01 134.45
  L 125.02 99.81
  Q 125.02 99.10 124.31 99.05
  L 123.46 98.98
  Q 122.76 98.92 122.27 98.43
  Q 110.35 86.39 98.60 74.79
  C 92.88 69.15 88.06 63.30 85.02 56.03
  Q 82.22 49.33 79.97 42.50
  C 78.32 37.50 71.48 38.20 71.11 43.20
  C 70.54 51.07 71.27 58.29 73.93 65.89
  Q 77.52 76.16 80.87 86.54
  A 0.36 0.36 0.0 0 1 80.53 87.00"
/>
<path stroke="#b3b3b3" vector-effect="non-scaling-stroke" d="
  M 532.99 117.54
  L 533.01 130.22
  A 0.31 0.31 0.0 0 0 533.50 130.48
  Q 544.64 122.94 559.61 113.31
  Q 565.72 109.37 568.67 105.59
  C 577.30 94.55 577.01 78.88 568.07 67.98
  Q 559.15 57.10 544.90 57.03
  Q 515.35 56.87 496.49 57.12
  C 468.57 57.50 456.86 91.44 477.54 109.92
  Q 485.41 116.95 497.24 116.98
  Q 514.90 117.01 532.45 117.00
  A 0.54 0.54 0.0 0 1 532.99 117.54"
/>
<path stroke="#b3b3b3" vector-effect="non-scaling-stroke" d="
  M 550.99 75.50
  A 0.50 0.50 0.0 0 0 550.49 75.00
  L 491.51 75.00
  A 0.50 0.50 0.0 0 0 491.01 75.50
  L 491.01 80.48
  A 0.50 0.50 0.0 0 0 491.51 80.98
  L 550.49 80.98
  A 0.50 0.50 0.0 0 0 550.99 80.48
  L 550.99 75.50"
/>
<path stroke="#b3b3b3" vector-effect="non-scaling-stroke" d="
  M 532.98 93.63
  A 0.62 0.62 0.0 0 0 532.36 93.01
  L 491.62 93.01
  A 0.62 0.62 0.0 0 0 491.00 93.63
  L 491.00 98.37
  A 0.62 0.62 0.0 0 0 491.62 98.99
  L 532.36 98.99
  A 0.62 0.62 0.0 0 0 532.98 98.37
  L 532.98 93.63"
/>
</g>
<g fill="#ffffff">
<path d="
  M 0.00 0.00
  L 1483.00 0.00
  L 1483.00 201.00
  L 0.00 201.00
  L 0.00 0.00
  Z
  M 970.59 38.71
  A 0.20 0.20 0.0 0 1 970.42 39.02
  Q 946.35 38.96 923.39 39.02
  C 912.97 39.04 905.08 46.84 905.06 57.28
  Q 904.98 86.58 905.01 116.55
  A 0.45 0.45 0.0 0 0 905.46 117.00
  L 916.46 117.00
  Q 917.00 117.00 917.00 116.46
  Q 917.01 91.34 916.99 57.46
  C 916.99 52.98 919.75 50.99 923.89 50.99
  Q 951.53 50.97 970.22 51.05
  A 0.28 0.28 0.0 0 1 970.45 51.49
  L 959.29 68.54
  A 0.30 0.29 -73.1 0 0 959.53 69.00
  L 972.71 69.00
  A 0.96 0.95 16.3 0 0 973.51 68.57
  L 988.68 45.47
  Q 989.00 45.00 988.69 44.53
  L 974.23 22.52
  A 1.18 1.16 72.8 0 0 973.26 22.00
  L 960.38 22.00
  A 0.40 0.40 0.0 0 0 960.05 22.62
  L 970.59 38.71
  Z
  M 63.66 74.97
  Q 50.80 75.10 38.78 74.92
  C 32.89 74.83 27.86 76.05 24.89 81.20
  C 21.49 87.08 22.90 93.42 28.05 97.84
  Q 28.56 98.28 28.04 98.71
  C 20.48 104.89 21.59 115.53 30.05 120.41
  Q 30.55 120.70 30.32 121.23
  Q 26.47 130.41 34.04 136.79
  Q 36.67 139.01 40.33 139.28
  Q 40.97 139.32 40.99 139.97
  Q 41.24 148.12 48.21 151.72
  Q 51.04 153.18 58.70 153.08
  Q 76.37 152.83 93.46 153.05
  C 103.55 153.19 112.00 152.00 120.65 147.67
  Q 121.97 147.01 123.50 147.00
  Q 129.94 147.00 136.54 147.00
  A 0.46 0.46 0.0 0 0 137.00 146.54
  L 137.00 87.75
  Q 137.00 87.00 136.25 87.00
  L 128.29 87.00
  A 1.06 1.06 0.0 0 1 127.54 86.69
  Q 115.89 74.98 104.82 63.96
  Q 102.12 61.28 99.81 58.13
  C 95.79 52.65 93.68 46.13 91.67 39.62
  C 86.04 21.41 60.62 23.69 59.14 42.43
  Q 58.51 50.37 59.77 58.97
  C 60.52 64.15 62.47 69.30 64.16 74.26
  Q 64.40 74.96 63.66 74.97
  Z
  M 1420.25 69.98
  L 1383.79 118.53
  Q 1383.44 119.00 1383.73 119.51
  L 1408.62 164.34
  Q 1409.00 165.02 1409.25 164.28
  L 1450.83 39.51
  A 0.27 0.27 0.0 0 0 1450.49 39.17
  L 1325.53 80.83
  A 0.24 0.23 -39.8 0 0 1325.49 81.26
  L 1370.48 106.23
  Q 1370.95 106.50 1371.38 106.17
  L 1420.00 69.74
  Q 1421.00 68.99 1420.25 69.98
  Z
  M 521.00 129.69
  L 521.00 152.44
  A 0.34 0.34 0.0 0 0 521.53 152.72
  Q 540.28 140.13 562.96 125.46
  Q 572.52 119.28 576.44 114.82
  C 600.27 87.68 580.90 45.05 544.75 45.01
  Q 521.48 44.99 496.75 45.12
  Q 485.99 45.18 477.19 49.93
  C 447.78 65.85 447.78 107.49 476.57 123.68
  Q 485.88 128.91 496.50 128.96
  Q 509.63 129.03 520.30 129.00
  Q 521.00 128.99 521.00 129.69
  Z
  M 947.40 134.71
  L 958.72 117.46
  A 0.29 0.29 0.0 0 0 958.47 117.01
  L 945.50 117.00
  Q 944.77 116.99 944.38 117.60
  L 929.32 140.51
  Q 929.00 141.00 929.32 141.48
  L 944.54 164.65
  Q 944.77 165.00 945.20 165.00
  L 958.56 165.00
  A 0.24 0.24 0.0 0 0 958.76 164.63
  L 947.43 147.31
  A 0.19 0.19 0.0 0 1 947.59 147.01
  Q 973.21 146.99 994.75 146.89
  Q 1003.13 146.86 1008.18 141.18
  Q 1012.96 135.82 1012.97 128.68
  Q 1013.03 101.16 1012.98 69.80
  Q 1012.98 69.00 1012.19 69.00
  L 1001.71 69.00
  A 0.72 0.72 0.0 0 0 1000.99 69.72
  Q 1001.07 97.87 1000.99 128.53
  C 1000.98 132.04 998.71 134.96 994.87 134.97
  Q 971.73 135.04 947.56 134.99
  A 0.19 0.18 16.0 0 1 947.40 134.71
  Z"
/>
<path d="
  M 80.53 87.00
  A 0.36 0.36 0.0 0 0 80.87 86.54
  Q 77.52 76.16 73.93 65.89
  C 71.27 58.29 70.54 51.07 71.11 43.20
  C 71.48 38.20 78.32 37.50 79.97 42.50
  Q 82.22 49.33 85.02 56.03
  C 88.06 63.30 92.88 69.15 98.60 74.79
  Q 110.35 86.39 122.27 98.43
  Q 122.76 98.92 123.46 98.98
  L 124.31 99.05
  Q 125.02 99.10 125.02 99.81
  L 125.01 134.45
  Q 125.01 135.12 124.34 135.06
  C 121.37 134.81 118.96 134.86 116.18 136.35
  Q 107.80 140.86 99.58 140.92
  Q 78.49 141.07 57.47 140.99
  C 52.00 140.97 51.03 136.36 50.04 132.18
  A 1.54 1.52 4.7 0 0 49.12 131.11
  Q 46.14 129.89 43.78 128.40
  C 39.66 125.80 41.24 121.30 41.95 117.41
  A 0.99 0.97 24.7 0 0 41.59 116.46
  C 38.03 113.67 33.85 109.98 36.67 104.97
  Q 38.37 101.95 40.28 99.02
  A 0.92 0.91 44.7 0 0 40.27 98.02
  L 35.98 91.60
  A 2.96 2.95 73.1 0 1 38.43 87.00
  L 80.53 87.00
  Z"
/>
<path d="
  M 532.99 117.54
  A 0.54 0.54 0.0 0 0 532.45 117.00
  Q 514.90 117.01 497.24 116.98
  Q 485.41 116.95 477.54 109.92
  C 456.86 91.44 468.57 57.50 496.49 57.12
  Q 515.35 56.87 544.90 57.03
  Q 559.15 57.10 568.07 67.98
  C 577.01 78.88 577.30 94.55 568.67 105.59
  Q 565.72 109.37 559.61 113.31
  Q 544.64 122.94 533.50 130.48
  A 0.31 0.31 0.0 0 1 533.01 130.22
  L 532.99 117.54
  Z
  M 550.99 75.50
  A 0.50 0.50 0.0 0 0 550.49 75.00
  L 491.51 75.00
  A 0.50 0.50 0.0 0 0 491.01 75.50
  L 491.01 80.48
  A 0.50 0.50 0.0 0 0 491.51 80.98
  L 550.49 80.98
  A 0.50 0.50 0.0 0 0 550.99 80.48
  L 550.99 75.50
  Z
  M 532.98 93.63
  A 0.62 0.62 0.0 0 0 532.36 93.01
  L 491.62 93.01
  A 0.62 0.62 0.0 0 0 491.00 93.63
  L 491.00 98.37
  A 0.62 0.62 0.0 0 0 491.62 98.99
  L 532.36 98.99
  A 0.62 0.62 0.0 0 0 532.98 98.37
  L 532.98 93.63
  Z"
/>
</g>
<g fill="#666666">
<path d="
  M 970.59 38.71
  L 960.05 22.62
  A 0.40 0.40 0.0 0 1 960.38 22.00
  L 973.26 22.00
  A 1.18 1.16 72.8 0 1 974.23 22.52
  L 988.69 44.53
  Q 989.00 45.00 988.68 45.47
  L 973.51 68.57
  A 0.96 0.95 16.3 0 1 972.71 69.00
  L 959.53 69.00
  A 0.30 0.29 -73.1 0 1 959.29 68.54
  L 970.45 51.49
  A 0.28 0.28 0.0 0 0 970.22 51.05
  Q 951.53 50.97 923.89 50.99
  C 919.75 50.99 916.99 52.98 916.99 57.46
  Q 917.01 91.34 917.00 116.46
  Q 917.00 117.00 916.46 117.00
  L 905.46 117.00
  A 0.45 0.45 0.0 0 1 905.01 116.55
  Q 904.98 86.58 905.06 57.28
  C 905.08 46.84 912.97 39.04 923.39 39.02
  Q 946.35 38.96 970.42 39.02
  A 0.20 0.20 0.0 0 0 970.59 38.71
  Z"
/>
<path d="
  M 64.16 74.26
  C 62.47 69.30 60.52 64.15 59.77 58.97
  Q 58.51 50.37 59.14 42.43
  C 60.62 23.69 86.04 21.41 91.67 39.62
  C 93.68 46.13 95.79 52.65 99.81 58.13
  Q 102.12 61.28 104.82 63.96
  Q 115.89 74.98 127.54 86.69
  A 1.06 1.06 0.0 0 0 128.29 87.00
  L 136.25 87.00
  Q 137.00 87.00 137.00 87.75
  L 137.00 146.54
  A 0.46 0.46 0.0 0 1 136.54 147.00
  Q 129.94 147.00 123.50 147.00
  Q 121.97 147.01 120.65 147.67
  C 112.00 152.00 103.55 153.19 93.46 153.05
  Q 76.37 152.83 58.70 153.08
  Q 51.04 153.18 48.21 151.72
  Q 41.24 148.12 40.99 139.97
  Q 40.97 139.32 40.33 139.28
  Q 36.67 139.01 34.04 136.79
  Q 26.47 130.41 30.32 121.23
  Q 30.55 120.70 30.05 120.41
  C 21.59 115.53 20.48 104.89 28.04 98.71
  Q 28.56 98.28 28.05 97.84
  C 22.90 93.42 21.49 87.08 24.89 81.20
  C 27.86 76.05 32.89 74.83 38.78 74.92
  Q 50.80 75.10 63.66 74.97
  Q 64.40 74.96 64.16 74.26
  Z
  M 80.53 87.00
  L 38.43 87.00
  A 2.96 2.95 73.1 0 0 35.98 91.60
  L 40.27 98.02
  A 0.92 0.91 44.7 0 1 40.28 99.02
  Q 38.37 101.95 36.67 104.97
  C 33.85 109.98 38.03 113.67 41.59 116.46
  A 0.99 0.97 24.7 0 1 41.95 117.41
  C 41.24 121.30 39.66 125.80 43.78 128.40
  Q 46.14 129.89 49.12 131.11
  A 1.54 1.52 4.7 0 1 50.04 132.18
  C 51.03 136.36 52.00 140.97 57.47 140.99
  Q 78.49 141.07 99.58 140.92
  Q 107.80 140.86 116.18 136.35
  C 118.96 134.86 121.37 134.81 124.34 135.06
  Q 125.01 135.12 125.01 134.45
  L 125.02 99.81
  Q 125.02 99.10 124.31 99.05
  L 123.46 98.98
  Q 122.76 98.92 122.27 98.43
  Q 110.35 86.39 98.60 74.79
  C 92.88 69.15 88.06 63.30 85.02 56.03
  Q 82.22 49.33 79.97 42.50
  C 78.32 37.50 71.48 38.20 71.11 43.20
  C 70.54 51.07 71.27 58.29 73.93 65.89
  Q 77.52 76.16 80.87 86.54
  A 0.36 0.36 0.0 0 1 80.53 87.00
  Z"
/>
<path d="
  M 1420.00 69.74
  L 1371.38 106.17
  Q 1370.95 106.50 1370.48 106.23
  L 1325.49 81.26
  A 0.24 0.23 -39.8 0 1 1325.53 80.83
  L 1450.49 39.17
  A 0.27 0.27 0.0 0 1 1450.83 39.51
  L 1409.25 164.28
  Q 1409.00 165.02 1408.62 164.34
  L 1383.73 119.51
  Q 1383.44 119.00 1383.79 118.53
  L 1420.25 69.98
  Q 1421.00 68.99 1420.00 69.74
  Z"
/>
<path d="
  M 520.30 129.00
  Q 509.63 129.03 496.50 128.96
  Q 485.88 128.91 476.57 123.68
  C 447.78 107.49 447.78 65.85 477.19 49.93
  Q 485.99 45.18 496.75 45.12
  Q 521.48 44.99 544.75 45.01
  C 580.90 45.05 600.27 87.68 576.44 114.82
  Q 572.52 119.28 562.96 125.46
  Q 540.28 140.13 521.53 152.72
  A 0.34 0.34 0.0 0 1 521.00 152.44
  L 521.00 129.69
  Q 521.00 128.99 520.30 129.00
  Z
  M 532.99 117.54
  L 533.01 130.22
  A 0.31 0.31 0.0 0 0 533.50 130.48
  Q 544.64 122.94 559.61 113.31
  Q 565.72 109.37 568.67 105.59
  C 577.30 94.55 577.01 78.88 568.07 67.98
  Q 559.15 57.10 544.90 57.03
  Q 515.35 56.87 496.49 57.12
  C 468.57 57.50 456.86 91.44 477.54 109.92
  Q 485.41 116.95 497.24 116.98
  Q 514.90 117.01 532.45 117.00
  A 0.54 0.54 0.0 0 1 532.99 117.54
  Z"
/>
<path d="
  M 947.40 134.71
  A 0.19 0.18 16.0 0 0 947.56 134.99
  Q 971.73 135.04 994.87 134.97
  C 998.71 134.96 1000.98 132.04 1000.99 128.53
  Q 1001.07 97.87 1000.99 69.72
  A 0.72 0.72 0.0 0 1 1001.71 69.00
  L 1012.19 69.00
  Q 1012.98 69.00 1012.98 69.80
  Q 1013.03 101.16 1012.97 128.68
  Q 1012.96 135.82 1008.18 141.18
  Q 1003.13 146.86 994.75 146.89
  Q 973.21 146.99 947.59 147.01
  A 0.19 0.19 0.0 0 0 947.43 147.31
  L 958.76 164.63
  A 0.24 0.24 0.0 0 1 958.56 165.00
  L 945.20 165.00
  Q 944.77 165.00 944.54 164.65
  L 929.32 141.48
  Q 929.00 141.00 929.32 140.51
  L 944.38 117.60
  Q 944.77 116.99 945.50 117.00
  L 958.47 117.01
  A 0.29 0.29 0.0 0 1 958.72 117.46
  L 947.40 134.71
  Z"
/>
<path d="
  M 550.99 80.48
  A 0.50 0.50 0.0 0 1 550.49 80.98
  L 491.51 80.98
  A 0.50 0.50 0.0 0 1 491.01 80.48
  L 491.01 75.50
  A 0.50 0.50 0.0 0 1 491.51 75.00
  L 550.49 75.00
  A 0.50 0.50 0.0 0 1 550.99 75.50
  L 550.99 80.48
  Z"
/>
<path d="
  M 532.98 98.37
  A 0.62 0.62 0.0 0 1 532.36 98.99
  L 491.62 98.99
  A 0.62 0.62 0.0 0 1 491.00 98.37
  L 491.00 93.63
  A 0.62 0.62 0.0 0 1 491.62 93.01
  L 532.36 93.01
  A 0.62 0.62 0.0 0 1 532.98 93.63
  L 532.98 98.37
  Z"
/>
</g>
</svg>
